<svg width="22" height="22" viewBox="0 0 22 22" fill="none" xmlns="http://www.w3.org/2000/svg">
<path d="M11.192 9.07102L18.971 1.29302C19.2548 1.02467 19.6322 0.877629 20.0227 0.883153C20.4133 0.888676 20.7863 1.04633 21.0624 1.32259C21.3386 1.59886 21.496 1.97193 21.5014 2.3625C21.5067 2.75306 21.3595 3.13031 21.091 3.41402L13.314 11.192L21.092 18.971C21.2376 19.1088 21.3542 19.2744 21.4347 19.458C21.5152 19.6416 21.5581 19.8395 21.5609 20.04C21.5636 20.2405 21.5261 20.4395 21.4506 20.6252C21.3752 20.811 21.2632 20.9797 21.1214 21.1214C20.9796 21.2632 20.8108 21.375 20.625 21.4504C20.4393 21.5258 20.2403 21.5632 20.0398 21.5604C19.8393 21.5575 19.6414 21.5145 19.4579 21.4339C19.2743 21.3533 19.1088 21.2367 18.971 21.091L11.192 13.314L3.41402 21.092C3.27565 21.2353 3.11013 21.3496 2.92712 21.4282C2.74412 21.5068 2.54729 21.5482 2.34812 21.5499C2.14895 21.5516 1.95143 21.5137 1.76708 21.4382C1.58274 21.3628 1.41526 21.2514 1.27442 21.1106C1.13358 20.9698 1.0222 20.8023 0.946783 20.6179C0.871362 20.4336 0.833409 20.2361 0.83514 20.0369C0.83687 19.8377 0.87825 19.6409 0.956863 19.4579C1.03548 19.2749 1.14975 19.1094 1.29302 18.971L9.07102 11.192L1.29302 3.41402C1.01978 3.13111 0.868587 2.75221 0.872004 2.35891C0.875422 1.96562 1.03318 1.5894 1.31129 1.31129C1.5894 1.03318 1.96562 0.875423 2.35891 0.872005C2.75221 0.868587 3.13111 1.01978 3.41402 1.29302L11.192 9.07102Z" fill="#867B9F"/>
</svg>
