<svg width="60" height="40" viewBox="0 0 60 40" fill="none" xmlns="http://www.w3.org/2000/svg">
<g clip-path="url(#clip0)">
<path d="M0.366199 20.8838L19.1162 39.6338C19.6045 40.1221 20.3955 40.1221 20.8838 39.6338C21.3721 39.1454 21.3721 38.3544 20.8838 37.8662L4.2675 21.25H58.75C59.4409 21.25 60 20.6909 60 19.9999C60 19.309 59.4409 18.7499 58.75 18.7499H4.2675L20.8838 2.1338C21.3721 1.6454 21.3721 0.8544 20.8838 0.366199C20.6396 0.122099 20.3197 0 19.9999 0C19.6801 0 19.3603 0.122099 19.1161 0.366199L0.3661 19.1162C-0.1221 19.6044 -0.122101 20.3954 0.366199 20.8838Z" fill="white"/>
</g>
<defs>
<clipPath id="clip0">
<rect width="60" height="40" fill="white" transform="translate(60 40) rotate(180)"/>
</clipPath>
</defs>
</svg>
