<svg width="512" height="512" viewBox="0 0 512 512" fill="none" xmlns="http://www.w3.org/2000/svg">
<path d="M447.999 160L384 255.999H416C416 344.218 344.219 415.999 256.001 415.999C201.716 415.999 153.815 388.685 124.874 347.22L87.5635 403.187C128.655 450.15 188.843 479.999 256.001 479.999C379.516 479.999 480 379.514 480 255.999H512L447.999 160Z" fill="#B6A9D3"/>
<path d="M95.9999 256C95.9999 167.781 167.781 96 255.999 96C310.284 96 358.185 123.314 387.126 164.779L424.437 108.813C383.345 61.8505 323.157 32.0015 255.999 32.0015C132.484 32.0015 32.0003 132.486 32.0003 256.001H0L63.9996 352.001L127.999 256.001L95.9999 256Z" fill="#B6A9D3"/>
</svg>
