<svg xmlns="http://www.w3.org/2000/svg" width="17.183" height="15.271" viewBox="0 0 17.183 15.271">
  <path id="Icon_awesome-edit" data-name="Icon awesome-edit" d="M12.01,2.486,14.7,5.177a.292.292,0,0,1,0,.412L8.186,12.1l-2.768.307a.58.58,0,0,1-.641-.641L5.083,9,11.6,2.486A.292.292,0,0,1,12.01,2.486ZM16.843,1.8,15.387.347a1.167,1.167,0,0,0-1.647,0L12.684,1.4a.292.292,0,0,0,0,.412l2.691,2.691a.292.292,0,0,0,.412,0L16.843,3.45a1.167,1.167,0,0,0,0-1.647Zm-5.388,8.529v3.037H1.909V3.822H8.764a.367.367,0,0,0,.254-.1l1.193-1.193a.358.358,0,0,0-.254-.612H1.432A1.432,1.432,0,0,0,0,3.345v10.5a1.432,1.432,0,0,0,1.432,1.432h10.5a1.432,1.432,0,0,0,1.432-1.432V9.138a.359.359,0,0,0-.612-.254L11.56,10.078A.367.367,0,0,0,11.455,10.332Z" transform="translate(0 -0.007)" fill="#a3a3a3"/>
</svg>
