<svg id="Layer_2" data-name="Layer 2" xmlns="http://www.w3.org/2000/svg" width="40.683" height="29.003" viewBox="0 0 40.683 29.003">
  <g id="Layer_1" data-name="Layer 1" transform="translate(0 0)">
    <path id="Path_27" data-name="Path 27" d="M29.507,254.4H3.094A3.134,3.134,0,0,0,0,257.494v15.053a3.159,3.159,0,0,0,3.094,3.14H29.507a3.158,3.158,0,0,0,3.094-3.14V257.493A3.133,3.133,0,0,0,29.507,254.4ZM16.763,267.192a.785.785,0,1,1,0,1.569H4.387a.785.785,0,1,1,0-1.569Zm-9.744-3.281v-1.385a.785.785,0,1,1,1.57,0v1.385a.785.785,0,1,1-1.57,0Zm3.463,0v-1.385a.785.785,0,0,1,1.57,0v1.385a.785.785,0,0,1-1.57,0Zm3.463,0v-1.385a.785.785,0,0,1,1.57,0v1.385a.785.785,0,0,1-1.57,0Zm3.464,0v-1.385a.785.785,0,0,1,1.57,0v1.385a.785.785,0,0,1-1.57,0Zm-4.895,7.3a.784.784,0,0,1-.785.784H4.387a.785.785,0,1,1,0-1.569h7.343a.784.784,0,0,1,.785.785Zm-7.389-7.3a.785.785,0,0,1-1.57,0v-1.385a.785.785,0,0,1,1.57,0Zm20.142,3.915a2.4,2.4,0,1,1,0,3.531,2.393,2.393,0,0,1-1.624.634,2.4,2.4,0,1,1,0-4.8,2.392,2.392,0,0,1,1.624.635Zm-.932-3.915v-1.385a.785.785,0,0,1,1.57,0v1.385a.785.785,0,0,1-1.57,0Zm-1.892,0a.785.785,0,0,1-1.57,0v-1.385a.785.785,0,0,1,1.57,0Zm6.972,0a.785.785,0,1,1-1.57,0v-1.385a.785.785,0,1,1,1.57,0Z" transform="translate(0 -246.684)" fill="#b1a5cc"/>
    <path id="Path_28" data-name="Path 28" d="M295.9,0H269.534a3.12,3.12,0,0,0-3.094,3.139V5.308a.785.785,0,0,0,.516.737v.022h.07a.792.792,0,0,0,.4,0h20.381l.04,0a4.876,4.876,0,0,1,3.393,1.044,4.871,4.871,0,0,1,1.354,3.783v9.527h.026a.773.773,0,0,0,0,.084.784.784,0,0,0,.785.784h2.5a3.158,3.158,0,0,0,3.14-3.094V3.139A3.143,3.143,0,0,0,295.9,0Z" transform="translate(-258.359 0)" fill="#b1a5cc"/>
  </g>
</svg>
