<svg width="175" height="30" viewBox="0 0 175 30" fill="none" xmlns="http://www.w3.org/2000/svg">
<g clip-path="url(#clip0)">
<path d="M29.507 7.71582H3.094C2.27664 7.72619 1.49568 8.05549 0.917675 8.6335C0.33967 9.2115 0.0103672 9.99246 0 10.8098L0 25.8628C0.00477834 26.6862 0.330856 27.4752 0.908775 28.0617C1.48669 28.6482 2.27078 28.9859 3.094 29.0028H29.507C30.3303 28.9862 31.1145 28.6485 31.6925 28.062C32.2705 27.4754 32.5965 26.6863 32.601 25.8628V10.8088C32.5906 9.99157 32.2613 9.2107 31.6833 8.63286C31.1052 8.05501 30.3243 7.72593 29.507 7.71582V7.71582ZM16.763 20.5078C16.8684 20.504 16.9734 20.5216 17.0719 20.5593C17.1704 20.597 17.2602 20.6542 17.3361 20.7274C17.412 20.8006 17.4723 20.8884 17.5135 20.9855C17.5548 21.0825 17.576 21.1869 17.576 21.2923C17.576 21.3978 17.5548 21.5021 17.5135 21.5992C17.4723 21.6962 17.412 21.784 17.3361 21.8572C17.2602 21.9304 17.1704 21.9876 17.0719 22.0254C16.9734 22.0631 16.8684 22.0806 16.763 22.0768H4.387C4.28162 22.0806 4.17656 22.0631 4.0781 22.0254C3.97964 21.9876 3.88978 21.9304 3.8139 21.8572C3.73802 21.784 3.67767 21.6962 3.63645 21.5992C3.59523 21.5021 3.57399 21.3978 3.57399 21.2923C3.57399 21.1869 3.59523 21.0825 3.63645 20.9855C3.67767 20.8884 3.73802 20.8006 3.8139 20.7274C3.88978 20.6542 3.97964 20.597 4.0781 20.5593C4.17656 20.5216 4.28162 20.504 4.387 20.5078H16.763ZM7.019 17.2268V15.8418C7.019 15.6336 7.10171 15.434 7.24892 15.2867C7.39614 15.1395 7.5958 15.0568 7.804 15.0568C8.01219 15.0568 8.21186 15.1395 8.35908 15.2867C8.50629 15.434 8.589 15.6336 8.589 15.8418V17.2268C8.589 17.435 8.50629 17.6347 8.35908 17.7819C8.21186 17.9291 8.01219 18.0118 7.804 18.0118C7.5958 18.0118 7.39614 17.9291 7.24892 17.7819C7.10171 17.6347 7.019 17.435 7.019 17.2268V17.2268ZM10.482 17.2268V15.8418C10.482 15.6336 10.5647 15.434 10.7119 15.2867C10.8591 15.1395 11.0588 15.0568 11.267 15.0568C11.4752 15.0568 11.6749 15.1395 11.8221 15.2867C11.9693 15.434 12.052 15.6336 12.052 15.8418V17.2268C12.052 17.435 11.9693 17.6347 11.8221 17.7819C11.6749 17.9291 11.4752 18.0118 11.267 18.0118C11.0588 18.0118 10.8591 17.9291 10.7119 17.7819C10.5647 17.6347 10.482 17.435 10.482 17.2268V17.2268ZM13.945 17.2268V15.8418C13.945 15.6336 14.0277 15.434 14.1749 15.2867C14.3221 15.1395 14.5218 15.0568 14.73 15.0568C14.9382 15.0568 15.1379 15.1395 15.2851 15.2867C15.4323 15.434 15.515 15.6336 15.515 15.8418V17.2268C15.515 17.435 15.4323 17.6347 15.2851 17.7819C15.1379 17.9291 14.9382 18.0118 14.73 18.0118C14.5218 18.0118 14.3221 17.9291 14.1749 17.7819C14.0277 17.6347 13.945 17.435 13.945 17.2268V17.2268ZM17.409 17.2268V15.8418C17.409 15.6336 17.4917 15.434 17.6389 15.2867C17.7861 15.1395 17.9858 15.0568 18.194 15.0568C18.4022 15.0568 18.6019 15.1395 18.7491 15.2867C18.8963 15.434 18.979 15.6336 18.979 15.8418V17.2268C18.979 17.435 18.8963 17.6347 18.7491 17.7819C18.6019 17.9291 18.4022 18.0118 18.194 18.0118C17.9858 18.0118 17.7861 17.9291 17.6389 17.7819C17.4917 17.6347 17.409 17.435 17.409 17.2268V17.2268ZM12.514 24.5268C12.514 24.6299 12.4937 24.7319 12.4542 24.8271C12.4148 24.9223 12.3569 25.0087 12.284 25.0815C12.2111 25.1544 12.1246 25.2121 12.0293 25.2514C11.9341 25.2908 11.832 25.311 11.729 25.3108H4.387C4.28162 25.3146 4.17656 25.2971 4.0781 25.2593C3.97964 25.2216 3.88978 25.1644 3.8139 25.0912C3.73802 25.018 3.67767 24.9302 3.63645 24.8332C3.59523 24.7361 3.57399 24.6318 3.57399 24.5263C3.57399 24.4209 3.59523 24.3165 3.63645 24.2195C3.67767 24.1224 3.73802 24.0346 3.8139 23.9614C3.88978 23.8882 3.97964 23.831 4.0781 23.7933C4.17656 23.7556 4.28162 23.7381 4.387 23.7418H11.73C11.8331 23.7417 11.9353 23.7619 12.0306 23.8013C12.1259 23.8407 12.2125 23.8985 12.2854 23.9715C12.3583 24.0444 12.4161 24.131 12.4555 24.2263C12.4949 24.3216 12.5151 24.4237 12.515 24.5268H12.514ZM5.125 17.2268C5.125 17.435 5.04229 17.6347 4.89508 17.7819C4.74786 17.9291 4.5482 18.0118 4.34 18.0118C4.13181 18.0118 3.93214 17.9291 3.78492 17.7819C3.63771 17.6347 3.555 17.435 3.555 17.2268V15.8418C3.555 15.6336 3.63771 15.434 3.78492 15.2867C3.93214 15.1395 4.13181 15.0568 4.34 15.0568C4.5482 15.0568 4.74786 15.1395 4.89508 15.2867C5.04229 15.434 5.125 15.6336 5.125 15.8418V17.2268ZM25.267 21.1418C25.61 20.826 26.0376 20.6169 26.4974 20.5401C26.9573 20.4633 27.4296 20.5221 27.8566 20.7094C28.2836 20.8967 28.6469 21.2042 28.9019 21.5946C29.1569 21.9849 29.2927 22.4411 29.2927 22.9073C29.2927 23.3736 29.1569 23.8297 28.9019 24.2201C28.6469 24.6104 28.2836 24.918 27.8566 25.1053C27.4296 25.2925 26.9573 25.3513 26.4974 25.2745C26.0376 25.1977 25.61 24.9887 25.267 24.6728C24.8246 25.0808 24.2448 25.3072 23.643 25.3068C23.0065 25.3068 22.396 25.054 21.9459 24.6039C21.4959 24.1538 21.243 23.5433 21.243 22.9068C21.243 22.2703 21.4959 21.6599 21.9459 21.2098C22.396 20.7597 23.0065 20.5068 23.643 20.5068C24.2449 20.5066 24.8248 20.7333 25.267 21.1418V21.1418ZM24.335 17.2268V15.8418C24.335 15.6336 24.4177 15.434 24.5649 15.2867C24.7121 15.1395 24.9118 15.0568 25.12 15.0568C25.3282 15.0568 25.5279 15.1395 25.6751 15.2867C25.8223 15.434 25.905 15.6336 25.905 15.8418V17.2268C25.905 17.435 25.8223 17.6347 25.6751 17.7819C25.5279 17.9291 25.3282 18.0118 25.12 18.0118C24.9118 18.0118 24.7121 17.9291 24.5649 17.7819C24.4177 17.6347 24.335 17.435 24.335 17.2268V17.2268ZM22.443 17.2268C22.443 17.435 22.3603 17.6347 22.2131 17.7819C22.0659 17.9291 21.8662 18.0118 21.658 18.0118C21.4498 18.0118 21.2501 17.9291 21.1029 17.7819C20.9557 17.6347 20.873 17.435 20.873 17.2268V15.8418C20.873 15.6336 20.9557 15.434 21.1029 15.2867C21.2501 15.1395 21.4498 15.0568 21.658 15.0568C21.8662 15.0568 22.0659 15.1395 22.2131 15.2867C22.3603 15.434 22.443 15.6336 22.443 15.8418V17.2268ZM29.415 17.2268C29.415 17.3299 29.3947 17.432 29.3552 17.5272C29.3158 17.6225 29.258 17.709 29.1851 17.7819C29.1122 17.8548 29.0256 17.9126 28.9304 17.9521C28.8352 17.9915 28.7331 18.0118 28.63 18.0118C28.5269 18.0118 28.4248 17.9915 28.3296 17.9521C28.2344 17.9126 28.1478 17.8548 28.0749 17.7819C28.002 17.709 27.9442 17.6225 27.9048 17.5272C27.8653 17.432 27.845 17.3299 27.845 17.2268V15.8418C27.845 15.7387 27.8653 15.6367 27.9048 15.5414C27.9442 15.4462 28.002 15.3596 28.0749 15.2867C28.1478 15.2138 28.2344 15.156 28.3296 15.1166C28.4248 15.0771 28.5269 15.0568 28.63 15.0568C28.7331 15.0568 28.8352 15.0771 28.9304 15.1166C29.0256 15.156 29.1122 15.2138 29.1851 15.2867C29.258 15.3596 29.3158 15.4462 29.3552 15.5414C29.3947 15.6367 29.415 15.7387 29.415 15.8418V17.2268Z" fill="#7B5BC4"/>
<path d="M37.5411 6.38874e-07H11.1751C10.3488 0.0068709 9.55904 0.341225 8.979 0.929704C8.39896 1.51818 8.07605 2.31272 8.08111 3.139V5.308C8.08121 5.46892 8.13075 5.62593 8.22305 5.75776C8.31535 5.88958 8.44592 5.98986 8.5971 6.045V6.067H8.66711C8.79825 6.10123 8.93597 6.10123 9.06711 6.067H29.4481H29.4881C30.7101 5.9763 31.9215 6.34902 32.8811 7.111C33.3629 7.60899 33.7328 8.20403 33.9663 8.85639C34.1998 9.50875 34.2915 10.2034 34.2351 10.894V20.421H34.2611C34.2596 20.449 34.2596 20.477 34.2611 20.505C34.2611 20.608 34.2814 20.7101 34.3209 20.8053C34.3604 20.9004 34.4182 20.9869 34.4911 21.0597C34.564 21.1325 34.6506 21.1903 34.7458 21.2296C34.841 21.2689 34.9431 21.2891 35.0461 21.289H37.5461C38.3696 21.2845 39.1587 20.9585 39.7453 20.3805C40.3318 19.8025 40.6694 19.0183 40.6861 18.195V3.139C40.6851 2.30577 40.3532 1.50706 39.7634 0.918442C39.1737 0.329823 38.3743 -0.000530249 37.5411 6.38874e-07V6.38874e-07Z" fill="#7B5BC4"/>
</g>
<g clip-path="url(#clip1)">
<path d="M163.507 7.71582H137.094C136.277 7.72619 135.496 8.05549 134.918 8.6335C134.34 9.2115 134.01 9.99246 134 10.8098V25.8628C134.005 26.6862 134.331 27.4752 134.909 28.0617C135.487 28.6482 136.271 28.9859 137.094 29.0028H163.507C164.33 28.9862 165.115 28.6485 165.693 28.062C166.27 27.4754 166.596 26.6863 166.601 25.8628V10.8088C166.591 9.99157 166.261 9.2107 165.683 8.63286C165.105 8.05501 164.324 7.72593 163.507 7.71582V7.71582ZM150.763 20.5078C150.868 20.504 150.973 20.5216 151.072 20.5593C151.17 20.597 151.26 20.6542 151.336 20.7274C151.412 20.8006 151.472 20.8884 151.514 20.9855C151.555 21.0825 151.576 21.1869 151.576 21.2923C151.576 21.3978 151.555 21.5021 151.514 21.5992C151.472 21.6962 151.412 21.784 151.336 21.8572C151.26 21.9304 151.17 21.9876 151.072 22.0254C150.973 22.0631 150.868 22.0806 150.763 22.0768H138.387C138.282 22.0806 138.177 22.0631 138.078 22.0254C137.98 21.9876 137.89 21.9304 137.814 21.8572C137.738 21.784 137.678 21.6962 137.636 21.5992C137.595 21.5021 137.574 21.3978 137.574 21.2923C137.574 21.1869 137.595 21.0825 137.636 20.9855C137.678 20.8884 137.738 20.8006 137.814 20.7274C137.89 20.6542 137.98 20.597 138.078 20.5593C138.177 20.5216 138.282 20.504 138.387 20.5078H150.763ZM141.019 17.2268V15.8418C141.019 15.6336 141.102 15.434 141.249 15.2867C141.396 15.1395 141.596 15.0568 141.804 15.0568C142.012 15.0568 142.212 15.1395 142.359 15.2867C142.506 15.434 142.589 15.6336 142.589 15.8418V17.2268C142.589 17.435 142.506 17.6347 142.359 17.7819C142.212 17.9291 142.012 18.0118 141.804 18.0118C141.596 18.0118 141.396 17.9291 141.249 17.7819C141.102 17.6347 141.019 17.435 141.019 17.2268V17.2268ZM144.482 17.2268V15.8418C144.482 15.6336 144.565 15.434 144.712 15.2867C144.859 15.1395 145.059 15.0568 145.267 15.0568C145.475 15.0568 145.675 15.1395 145.822 15.2867C145.969 15.434 146.052 15.6336 146.052 15.8418V17.2268C146.052 17.435 145.969 17.6347 145.822 17.7819C145.675 17.9291 145.475 18.0118 145.267 18.0118C145.059 18.0118 144.859 17.9291 144.712 17.7819C144.565 17.6347 144.482 17.435 144.482 17.2268V17.2268ZM147.945 17.2268V15.8418C147.945 15.6336 148.028 15.434 148.175 15.2867C148.322 15.1395 148.522 15.0568 148.73 15.0568C148.938 15.0568 149.138 15.1395 149.285 15.2867C149.432 15.434 149.515 15.6336 149.515 15.8418V17.2268C149.515 17.435 149.432 17.6347 149.285 17.7819C149.138 17.9291 148.938 18.0118 148.73 18.0118C148.522 18.0118 148.322 17.9291 148.175 17.7819C148.028 17.6347 147.945 17.435 147.945 17.2268V17.2268ZM151.409 17.2268V15.8418C151.409 15.6336 151.492 15.434 151.639 15.2867C151.786 15.1395 151.986 15.0568 152.194 15.0568C152.402 15.0568 152.602 15.1395 152.749 15.2867C152.896 15.434 152.979 15.6336 152.979 15.8418V17.2268C152.979 17.435 152.896 17.6347 152.749 17.7819C152.602 17.9291 152.402 18.0118 152.194 18.0118C151.986 18.0118 151.786 17.9291 151.639 17.7819C151.492 17.6347 151.409 17.435 151.409 17.2268V17.2268ZM146.514 24.5268C146.514 24.6299 146.494 24.7319 146.454 24.8271C146.415 24.9223 146.357 25.0087 146.284 25.0815C146.211 25.1544 146.125 25.2121 146.029 25.2514C145.934 25.2908 145.832 25.311 145.729 25.3108H138.387C138.282 25.3146 138.177 25.2971 138.078 25.2593C137.98 25.2216 137.89 25.1644 137.814 25.0912C137.738 25.018 137.678 24.9302 137.636 24.8332C137.595 24.7361 137.574 24.6318 137.574 24.5263C137.574 24.4209 137.595 24.3165 137.636 24.2195C137.678 24.1224 137.738 24.0346 137.814 23.9614C137.89 23.8882 137.98 23.831 138.078 23.7933C138.177 23.7556 138.282 23.7381 138.387 23.7418H145.73C145.833 23.7417 145.935 23.7619 146.031 23.8013C146.126 23.8407 146.212 23.8985 146.285 23.9715C146.358 24.0444 146.416 24.131 146.456 24.2263C146.495 24.3216 146.515 24.4237 146.515 24.5268H146.514ZM139.125 17.2268C139.125 17.435 139.042 17.6347 138.895 17.7819C138.748 17.9291 138.548 18.0118 138.34 18.0118C138.132 18.0118 137.932 17.9291 137.785 17.7819C137.638 17.6347 137.555 17.435 137.555 17.2268V15.8418C137.555 15.6336 137.638 15.434 137.785 15.2867C137.932 15.1395 138.132 15.0568 138.34 15.0568C138.548 15.0568 138.748 15.1395 138.895 15.2867C139.042 15.434 139.125 15.6336 139.125 15.8418V17.2268ZM159.267 21.1418C159.61 20.826 160.038 20.6169 160.497 20.5401C160.957 20.4633 161.43 20.5221 161.857 20.7094C162.284 20.8967 162.647 21.2042 162.902 21.5946C163.157 21.9849 163.293 22.4411 163.293 22.9073C163.293 23.3736 163.157 23.8297 162.902 24.2201C162.647 24.6104 162.284 24.918 161.857 25.1053C161.43 25.2925 160.957 25.3513 160.497 25.2745C160.038 25.1977 159.61 24.9887 159.267 24.6728C158.825 25.0808 158.245 25.3072 157.643 25.3068C157.006 25.3068 156.396 25.054 155.946 24.6039C155.496 24.1538 155.243 23.5433 155.243 22.9068C155.243 22.2703 155.496 21.6599 155.946 21.2098C156.396 20.7597 157.006 20.5068 157.643 20.5068C158.245 20.5066 158.825 20.7333 159.267 21.1418V21.1418ZM158.335 17.2268V15.8418C158.335 15.6336 158.418 15.434 158.565 15.2867C158.712 15.1395 158.912 15.0568 159.12 15.0568C159.328 15.0568 159.528 15.1395 159.675 15.2867C159.822 15.434 159.905 15.6336 159.905 15.8418V17.2268C159.905 17.435 159.822 17.6347 159.675 17.7819C159.528 17.9291 159.328 18.0118 159.12 18.0118C158.912 18.0118 158.712 17.9291 158.565 17.7819C158.418 17.6347 158.335 17.435 158.335 17.2268V17.2268ZM156.443 17.2268C156.443 17.435 156.36 17.6347 156.213 17.7819C156.066 17.9291 155.866 18.0118 155.658 18.0118C155.45 18.0118 155.25 17.9291 155.103 17.7819C154.956 17.6347 154.873 17.435 154.873 17.2268V15.8418C154.873 15.6336 154.956 15.434 155.103 15.2867C155.25 15.1395 155.45 15.0568 155.658 15.0568C155.866 15.0568 156.066 15.1395 156.213 15.2867C156.36 15.434 156.443 15.6336 156.443 15.8418V17.2268ZM163.415 17.2268C163.415 17.3299 163.395 17.432 163.355 17.5272C163.316 17.6225 163.258 17.709 163.185 17.7819C163.112 17.8548 163.026 17.9126 162.93 17.9521C162.835 17.9915 162.733 18.0118 162.63 18.0118C162.527 18.0118 162.425 17.9915 162.33 17.9521C162.234 17.9126 162.148 17.8548 162.075 17.7819C162.002 17.709 161.944 17.6225 161.905 17.5272C161.865 17.432 161.845 17.3299 161.845 17.2268V15.8418C161.845 15.7387 161.865 15.6367 161.905 15.5414C161.944 15.4462 162.002 15.3596 162.075 15.2867C162.148 15.2138 162.234 15.156 162.33 15.1166C162.425 15.0771 162.527 15.0568 162.63 15.0568C162.733 15.0568 162.835 15.0771 162.93 15.1166C163.026 15.156 163.112 15.2138 163.185 15.2867C163.258 15.3596 163.316 15.4462 163.355 15.5414C163.395 15.6367 163.415 15.7387 163.415 15.8418V17.2268Z" fill="#B1A5CC"/>
<path d="M171.541 6.38874e-07H145.175C144.349 0.0068709 143.559 0.341225 142.979 0.929704C142.399 1.51818 142.076 2.31272 142.081 3.139V5.308C142.081 5.46892 142.131 5.62593 142.223 5.75776C142.315 5.88958 142.446 5.98986 142.597 6.045V6.067H142.667C142.798 6.10123 142.936 6.10123 143.067 6.067H163.448H163.488C164.71 5.9763 165.921 6.34902 166.881 7.111C167.363 7.60899 167.733 8.20403 167.966 8.85639C168.2 9.50875 168.291 10.2034 168.235 10.894V20.421H168.261C168.26 20.449 168.26 20.477 168.261 20.505C168.261 20.608 168.281 20.7101 168.321 20.8053C168.36 20.9004 168.418 20.9869 168.491 21.0597C168.564 21.1325 168.651 21.1903 168.746 21.2296C168.841 21.2689 168.943 21.2891 169.046 21.289H171.546C172.37 21.2845 173.159 20.9585 173.745 20.3805C174.332 19.8025 174.669 19.0183 174.686 18.195V3.139C174.685 2.30577 174.353 1.50706 173.763 0.918442C173.174 0.329823 172.374 -0.000530249 171.541 6.38874e-07V6.38874e-07Z" fill="#B1A5CC"/>
</g>
<defs>
<clipPath id="clip0">
<rect width="40.683" height="29.003" fill="white"/>
</clipPath>
<clipPath id="clip1">
<rect width="40.683" height="29.003" fill="white" transform="translate(134)"/>
</clipPath>
</defs>
</svg>
