<svg width="60" height="40" viewBox="0 0 60 40" fill="none" xmlns="http://www.w3.org/2000/svg">
<path d="M59.6338 19.1162L40.8838 0.36624C40.3955 -0.12208 39.6045 -0.12208 39.1162 0.36624C38.6279 0.85456 38.6279 1.64558 39.1162 2.13378L55.7325 18.75H1.25004C0.559102 18.75 0 19.3091 0 20.0001C0 20.691 0.559102 21.2501 1.25004 21.2501H55.7325L39.1162 37.8662C38.6279 38.3546 38.6279 39.1456 39.1162 39.6338C39.3604 39.8779 39.6803 40 40.0001 40C40.3199 40 40.6397 39.8779 40.8839 39.6338L59.6339 20.8838C60.1221 20.3956 60.1221 19.6046 59.6338 19.1162Z" fill="white"/>
</svg>
