<svg xmlns="http://www.w3.org/2000/svg" width="19.113" height="14.501" viewBox="0 0 19.113 14.501">
  <g id="sort-down" transform="translate(-5.992 -24)">
    <g id="Group_1191" data-name="Group 1191" transform="translate(5.992 24)">
      <path id="Path_306" data-name="Path 306" d="M9.948,24.659a.659.659,0,0,0-1.318,0v11.59L7.119,34.737a.66.66,0,0,0-.933.933l2.636,2.635.009.009a.655.655,0,0,0,.923-.008L12.39,35.67a.659.659,0,0,0-.932-.933L9.948,36.249Zm4.613,1.318a.659.659,0,0,1,.659-.659h9.227a.659.659,0,1,1,0,1.318H15.22A.659.659,0,0,1,14.561,25.977Zm.659,3.3a.659.659,0,1,0,0,1.318h6.59a.659.659,0,1,0,0-1.318Zm0,3.954a.659.659,0,0,0,0,1.318h3.954a.659.659,0,0,0,0-1.318Zm0,3.954a.659.659,0,0,0,0,1.318h1.318a.659.659,0,0,0,0-1.318Z" transform="translate(-5.992 -24)" fill="#434246"/>
    </g>
  </g>
</svg>
