<svg width="113" height="113" viewBox="0 0 113 113" fill="none" xmlns="http://www.w3.org/2000/svg">
<g clip-path="url(#clip0)">
<path d="M103.478 47.421C102.954 47.9373 102.554 48.5651 102.306 49.2576C102.058 49.9502 101.97 50.6897 102.048 51.421C102.221 53.0821 102.308 54.751 102.308 56.421C102.311 67.4033 98.3982 78.0269 91.2724 86.3836C84.1467 94.7404 74.275 100.283 63.4302 102.015C52.5854 103.748 41.4782 101.557 32.1034 95.8364C22.7287 90.1158 15.7008 81.2401 12.2818 70.8036C8.86288 60.367 9.27698 49.0534 13.4497 38.8947C17.6225 28.736 25.2805 20.3978 35.0484 15.3779C44.8162 10.3579 56.0539 8.98496 66.743 11.5057C77.4321 14.0265 86.8723 20.2757 93.368 29.131L54.428 67.931L42.658 56.061L39.128 52.521C38.6628 52.0493 38.1086 51.6748 37.4974 51.4192C36.8863 51.1635 36.2305 51.0319 35.568 51.0319C34.9055 51.0319 34.2497 51.1635 33.6386 51.4192C33.0274 51.6748 32.4732 52.0493 32.008 52.521C31.5363 52.9862 31.1618 53.5404 30.9062 54.1516C30.6505 54.7627 30.5189 55.4186 30.5189 56.081C30.5189 56.7435 30.6505 57.3993 30.9062 58.0104C31.1618 58.6216 31.5363 59.1758 32.008 59.641L47.308 75.011L54.408 82.141L61.538 75.041L98.538 38.191L106.118 30.641C104.564 27.5727 102.726 24.6567 100.628 21.931C92.5252 11.386 80.9411 4.06103 67.9404 1.26189C54.9398 -1.53726 41.3675 0.371304 29.643 6.64736C17.9186 12.9234 8.8038 23.1591 3.92352 35.5298C-0.956768 47.9006 -1.28541 61.6024 2.99616 74.1929C7.27774 86.7834 15.8913 97.4443 27.3014 104.275C38.7115 111.106 52.1766 113.663 65.2965 111.491C78.4164 109.318 90.3385 102.557 98.9375 92.4124C107.536 82.268 112.254 69.3996 112.248 56.101C112.248 54.221 112.148 52.371 111.968 50.541C111.884 49.5965 111.534 48.6953 110.957 47.9425C110.381 47.1897 109.602 46.6163 108.712 46.2892C107.822 45.9622 106.858 45.8949 105.931 46.0953C105.004 46.2957 104.153 46.7555 103.478 47.421V47.421Z" fill="#252525"/>
</g>
<defs>
<clipPath id="clip0">
<rect width="112.248" height="112.249" fill="white"/>
</clipPath>
</defs>
</svg>
