<svg width="34" height="34" viewBox="0 0 34 34" fill="none" xmlns="http://www.w3.org/2000/svg">
<path d="M15.2978 22.2043C15.5569 21.9447 15.5569 21.5242 15.2978 21.2645C15.0382 21.0057 14.6179 21.0057 14.3583 21.2645C14.0991 21.5242 14.0991 21.9447 14.3583 22.2043C14.6179 22.4632 15.0382 22.4632 15.2978 22.2043V22.2043Z" fill="#FF6600"/>
<path d="M15.5396 6.57446V7.90259C15.5396 10.1039 17.3227 11.887 19.5239 11.887C21.721 11.887 23.5086 10.0997 23.5086 7.90259V6.57446C23.8754 6.57446 24.1726 6.27719 24.1726 5.9104C24.1726 5.54361 23.8754 5.24634 23.5086 5.24634H22.1804C21.8137 5.24634 21.5164 5.54361 21.5164 5.9104C21.5164 6.27719 21.8137 6.57446 22.1804 6.57446V7.90259C22.1804 9.36716 20.9888 10.5588 19.5239 10.5588C18.057 10.5588 16.8677 9.37001 16.8677 7.90259V6.57446C17.2345 6.57446 17.5318 6.27719 17.5318 5.9104C17.5318 5.54361 17.2345 5.24634 16.8677 5.24634H15.5396C15.1728 5.24634 14.8755 5.54361 14.8755 5.9104C14.8755 6.27719 15.1728 6.57446 15.5396 6.57446V6.57446Z" fill="#FF6600"/>
<path d="M7.71764 32.6016C7.84734 32.731 8.01699 32.7956 8.1869 32.7956C8.3568 32.7956 8.52671 32.7308 8.65641 32.6013L10.6955 30.5622C11.3599 29.8984 11.6797 28.9892 11.5874 28.0704L12.3186 27.3643C12.8989 26.805 13.6618 26.4969 14.4664 26.4969H23.2097C24.776 26.4969 26.2564 25.8953 27.378 24.803C27.3946 24.7869 27.4102 24.7701 27.425 24.7522L33.374 17.6083C34.3193 16.4898 34.1779 14.8104 33.0583 13.8641C31.946 12.9267 30.2791 13.0615 29.331 14.1614L28.6885 14.826V1.85938C28.6885 1.49258 28.391 1.19531 28.0244 1.19531H10.9573C10.5907 1.19531 10.2932 1.49258 10.2932 1.85938V16.7377C7.72153 17.2776 5.68188 18.8739 4.58332 21.2075C3.71693 21.1626 2.87207 21.4811 2.2451 22.1089L0.195588 24.1483C0.0705573 24.2728 0.000260114 24.4419 7.15355e-07 24.6183C-0.000258684 24.795 0.0700385 24.9641 0.194809 25.0889L7.71764 32.6016ZM27.3604 2.52344V16.1992L25.4385 18.1862C24.9438 17.5785 24.19 17.1997 23.3758 17.1997H15.6763C15.6337 17.1997 15.5876 17.1899 15.5411 17.1712C14.5066 16.7494 13.4112 16.5357 12.2857 16.5357C12.0634 16.5357 11.8418 16.5437 11.6216 16.5582V2.52344H27.3604ZM11.0525 17.9512C12.3959 17.7569 13.7393 17.8711 15.0423 18.4021C15.2493 18.4856 15.4628 18.5281 15.6763 18.5281H23.3758C24.0958 18.5281 24.7039 19.1154 24.7039 19.8562C24.7039 20.5885 24.108 21.1844 23.3758 21.1844H17.5982C17.2316 21.1844 16.9341 21.4816 16.9341 21.8484C16.9341 22.2152 17.2316 22.5125 17.5982 22.5125H23.3758C24.8406 22.5125 26.032 21.3208 26.032 19.8562C26.032 19.739 26.0234 19.6225 26.0084 19.5076C26.1469 19.3657 30.1609 15.2143 30.2999 15.0703C30.31 15.0597 30.3201 15.0488 30.3295 15.0376C30.8026 14.4789 31.6428 14.4083 32.2018 14.8794C32.7613 15.3523 32.8321 16.192 32.3564 16.7549L26.4273 23.8749C25.5581 24.7096 24.4167 25.1687 23.2097 25.1687H14.4664C13.316 25.1687 12.226 25.6087 11.3964 26.4084L11.1036 26.6912C10.9863 26.5109 10.8499 26.3425 10.6958 26.1887L6.61701 22.1099C6.39912 21.892 6.15191 21.711 5.88447 21.568C6.89898 19.567 8.71114 18.2915 11.0525 17.9512V17.9512ZM3.18335 23.0489C3.88113 22.3501 4.99629 22.3672 5.67773 23.0492L9.75704 27.1283C10.4408 27.8107 10.453 28.9272 9.75678 29.6226L8.18638 31.1928L1.60464 24.6199L3.18335 23.0489Z" fill="#FF6600"/>
</svg>
