<svg width="40" height="40" viewBox="0 0 40 40" fill="none" xmlns="http://www.w3.org/2000/svg">
<path d="M39.6207 37.8238L29.2934 27.6615C31.9978 24.7233 33.6594 20.8374 33.6594 16.5614C33.6581 7.41419 26.1239 0 16.8292 0C7.5345 0 0.000244141 7.41419 0.000244141 16.5614C0.000244141 25.7085 7.5345 33.1227 16.8292 33.1227C20.8451 33.1227 24.5285 31.7337 27.4217 29.4244L37.7891 39.6267C38.2943 40.1244 39.1144 40.1244 39.6195 39.6267C40.1259 39.1292 40.1259 38.3215 39.6207 37.8238ZM16.8292 30.5747C8.96487 30.5747 2.58961 24.3007 2.58961 16.5614C2.58961 8.82201 8.96487 2.54806 16.8292 2.54806C24.6936 2.54806 31.0688 8.82201 31.0688 16.5614C31.0688 24.3007 24.6936 30.5747 16.8292 30.5747Z" fill="#625F69"/>
</svg>
