<svg width="254" height="70" viewBox="0 0 254 70" fill="none" xmlns="http://www.w3.org/2000/svg">
<g clip-path="url(#clip0)">
<path d="M11.7081 69.8791C9.74776 69.605 8.34331 69.166 6.90889 68.3791C3.61848 66.5738 1.48736 63.9134 0.388452 60.2386C0.0953581 59.2586 0.0641094 57.2449 0.0118128 35.9736C-0.0241342 21.3315 0.0228492 12.2115 0.140623 11.2451C0.359111 9.44524 1.51342 6.47565 2.44265 5.32309C4.55801 2.69905 7.45616 0.842761 10.3108 0.283587C11.655 0.0202379 23.1491 -0.00750793 127.24 0.0013676C255.826 0.0124029 244.272 -0.116237 246.994 1.33356C250.256 3.07178 252.652 6.19934 253.619 9.98113C253.973 11.3651 253.966 58.322 253.613 59.8638C252.532 64.567 248.96 68.3659 244.47 69.5867L243.05 69.9728L127.892 69.9974C64.5561 70.011 12.2737 69.9576 11.7092 69.8787L11.7081 69.8791ZM243.33 69.1368C245.866 68.817 249.029 66.843 250.845 64.448C251.706 63.3115 251.939 62.8407 252.579 60.9401L253.113 59.3563V10.5394L252.505 8.74346C252.171 7.75571 251.584 6.5003 251.201 5.95342C250.027 4.27827 248.235 2.69581 246.591 1.88298C243.707 0.456857 249.973 0.576905 178.262 0.573831C142.833 0.572428 113.805 0.637836 113.754 0.719655C113.704 0.801316 114.265 1.17472 115.001 1.54938C116.4 2.26149 118.31 3.75549 118.831 4.54468C118.998 4.79831 119.37 5.30031 119.657 5.6602C120.292 6.45651 121.396 9.10857 121.65 10.4484C121.925 11.8956 121.902 58.3747 121.627 59.6721C121.325 61.0891 120.144 63.7355 119.4 64.6621C117.948 66.4684 116.71 67.4761 114.383 68.7463L113.358 69.3056L177.645 69.3091C216.956 69.3111 242.475 69.2438 243.33 69.1361L243.33 69.1368ZM136.072 42.727C136.209 42.2849 136.742 39.7182 136.742 39.5008C136.742 39.4049 136.251 39.3267 135.651 39.3267H134.559L134.744 38.395L134.928 37.4634H137.088L137.303 36.3921C137.421 35.8029 137.562 35.1321 137.616 34.9015C137.709 34.5019 137.661 34.4823 136.576 34.4823C135.95 34.4823 135.438 34.4194 135.438 34.3426C135.439 34.2658 135.526 33.8924 135.631 33.5129L135.823 32.8229L138.137 32.7122L138.359 31.5943C138.481 30.9795 138.633 30.162 138.695 29.7777C138.808 29.0792 138.809 29.079 139.735 29.079C140.6 29.079 140.656 29.1069 140.567 29.4983C140.437 30.0699 140.099 32.2848 140.097 32.5725C140.097 32.7379 140.493 32.8055 141.464 32.8055H142.833L143.158 31.1751C143.337 30.2784 143.515 29.44 143.554 29.3118C143.597 29.1703 143.955 29.0789 144.469 29.0789C145.268 29.0789 145.313 29.1067 145.307 29.5913C145.303 29.8731 145.179 30.6068 145.03 31.2217C144.635 32.8586 144.606 32.8054 145.896 32.8054H147.037L146.921 33.3877C146.857 33.7079 146.804 34.0852 146.804 34.2261C146.804 34.4185 146.487 34.4823 145.532 34.4823H144.26L144.041 35.6683C143.698 37.5322 143.663 37.4634 144.955 37.4634H146.088L145.966 38.069C145.705 39.3653 145.75 39.3267 144.503 39.3267H143.346L142.976 41.1432L142.605 42.9598L141.614 43.0166C140.733 43.0672 140.634 43.0364 140.723 42.7372C140.925 42.0607 141.4 39.8549 141.4 39.5945C141.4 39.3858 141.098 39.3265 140.033 39.3265H138.667L138.251 41.1898L137.835 43.053H136.903C136.101 43.053 135.985 43.0074 136.072 42.7269L136.072 42.727ZM142.207 36.2016C142.378 35.405 142.518 34.647 142.518 34.5171C142.518 34.3413 142.129 34.2947 140.994 34.335L139.47 34.3893L139.141 35.8798C138.961 36.6996 138.808 37.4333 138.802 37.5102C138.796 37.587 139.49 37.6499 140.344 37.6499H141.896L142.207 36.2016ZM73.7595 52.1822V49.76H68.2624C65.0291 49.76 62.7654 49.6892 62.7654 49.5881C62.7654 49.4935 63.2475 49.0114 63.8368 48.5167C64.4261 48.022 64.9362 47.5544 64.9704 47.4775C65.0046 47.4007 65.1362 47.3378 65.2629 47.3378C65.3897 47.3378 65.8229 47.0601 66.2257 46.7207C66.6285 46.3813 67.5821 45.6895 68.3448 45.1835C70.3662 43.8426 72.0848 42.0743 72.8223 40.5761C73.3473 39.5097 73.4519 39.0692 73.5282 37.6017C73.6647 34.9768 73.3734 33.5277 72.4295 32.136C70.2011 28.8504 65.8386 27.5627 61.4779 28.9035C59.9272 29.3804 59.2637 29.8043 58.1341 31.0402C57.0248 32.2538 56.3123 34.1506 56.1239 36.3914L56.0025 37.8354H61.2518L61.3581 36.9504C61.5286 35.5295 61.8338 34.4178 62.149 34.0695C62.7635 33.3906 64.0343 32.942 65.0941 33.0299C66.3607 33.1349 67.2595 33.7305 67.8854 34.8795C68.4917 35.9928 68.4942 37.0645 67.8932 38.3545C67.2884 39.6537 66.0134 40.8941 62.9091 43.2035C60.1613 45.2477 57.988 47.3013 57.2717 48.5305C56.6274 49.6362 55.9287 51.8947 55.7818 53.3468L55.6546 54.6045H73.759V52.1822L73.7595 52.1822ZM91.6478 51.8174V49.0304L94.5361 48.9215L94.5886 46.7323L94.6411 44.543H91.6478V28.3338H88.5674C85.8044 28.3338 85.4744 28.3673 85.3648 28.6598C85.2977 28.8392 84.881 29.5527 84.439 30.2454C83.9969 30.9382 83.6353 31.5558 83.6353 31.6178C83.6353 31.6799 83.2579 32.2981 82.7967 32.9918C82.3355 33.6854 81.9582 34.3092 81.9582 34.3779C81.9582 34.4466 81.6208 34.9996 81.2084 35.6068C80.796 36.214 80.4043 36.8523 80.3379 37.0253C80.2715 37.1983 79.8544 37.8917 79.411 38.5662C78.9676 39.2407 78.6047 39.8684 78.6045 39.9612C78.6043 40.0541 78.4076 40.3894 78.1674 40.7065C77.9273 41.0236 77.3377 41.9667 76.8572 42.8021L75.9836 44.3212L76.0886 48.9223L86.2441 49.0214V54.6051H91.648L91.6478 51.8174ZM80.6348 43.7513C80.9249 43.3157 81.4388 42.4563 81.7769 41.8415C82.1148 41.2267 82.5354 40.514 82.7113 40.2578C82.8872 40.0016 83.3557 39.2217 83.7524 38.5246C84.1491 37.8275 84.6833 36.8979 84.9396 36.4585C85.1958 36.0193 85.5543 35.3948 85.7363 35.0709C85.9183 34.7469 86.1069 34.4818 86.1556 34.4818C86.2041 34.4818 86.244 36.7457 86.244 39.5125V44.5432H80.1075L80.6348 43.7513ZM33.6514 50.7755C35.0048 50.5602 35.9401 50.2684 37.3297 49.6281C44.8639 46.1564 48.6856 38.4482 46.949 30.2265C46.3258 27.2758 45.1654 25.0481 43.0506 22.743C41.2992 20.8339 39.4304 19.4497 37.3297 18.5057C34.8287 17.3819 34.0653 17.2467 30.2488 17.2512C27.2715 17.2544 26.7376 17.3039 25.4971 17.688C23.8786 18.1892 21.092 19.5782 20.3786 20.2392C20.1086 20.4894 19.8283 20.6941 19.7558 20.6941C19.5966 20.6941 17.0063 23.4132 16.4028 24.2137C15.7548 25.0735 14.4077 27.8869 13.9398 29.3581C13.3581 31.1866 13.211 35.2807 13.6492 37.4432C14.0718 39.5285 16.0617 43.9844 16.5704 43.9844C16.6631 43.9844 16.739 44.1081 16.739 44.2593C16.739 44.5661 19.0448 46.9041 20.3006 47.8705C21.173 48.5419 23.0373 49.5291 24.6153 50.1553C26.8024 51.0232 30.5007 51.2771 33.6514 50.7757L33.6514 50.7755ZM26.2952 44.8611C25.805 44.4212 24.5343 43.1948 23.4713 42.1357L21.5387 40.2102L36.489 25.2613L39.192 27.9593C41.7256 30.4881 41.895 30.7016 41.895 31.3664C41.895 31.948 41.7471 32.2331 41.0728 32.9524C38.9986 35.165 29.0706 44.9647 28.5717 45.2918C27.7434 45.835 27.2838 45.7481 26.2953 44.861L26.2952 44.8611ZM19.3139 37.8912C18.8407 37.3528 18.7534 36.7889 19.0406 36.1257C19.1964 35.7658 22.0316 32.7946 25.8098 29.0318C31.9446 22.9218 32.3487 22.557 32.9828 22.557C33.3746 22.557 33.8382 22.7085 34.0947 22.9205L34.5346 23.284L27.0715 30.7553C20.0568 37.7776 19.5907 38.2063 19.3139 37.8911L19.3139 37.8912ZM96.1191 39.817C96.1191 37.3913 96.1554 37.0945 96.5054 36.6496C96.9976 36.0238 98.2277 35.9447 98.5349 36.519C98.6434 36.7217 98.7278 38.1078 98.7278 39.6865V42.4936H101.15V39.2236C101.15 35.5829 101.036 35.1199 99.9767 34.4742C99.1256 33.9554 97.2819 33.9669 96.6101 34.4953L96.1191 34.8815V28.1468H93.6966V42.4936H96.1191L96.1191 39.817ZM105.282 39.9616C105.343 37.4506 105.347 37.426 105.866 36.9805C106.227 36.67 106.616 36.5313 107.124 36.5313H107.859V34.109H107.099C106.508 34.109 106.218 34.2298 105.795 34.6537L105.25 35.1983V34.0904L104.178 34.1464L103.107 34.2022L103.057 38.3478L103.007 42.4935H105.221L105.282 39.9616ZM80.5164 22.994C80.9688 22.7629 81.0457 22.7656 81.142 23.0166C81.2216 23.2243 81.524 23.3026 82.2456 23.3026C83.3549 23.3026 83.5623 23.1517 83.1684 22.6313C82.9696 22.3687 82.8992 21.6758 82.8948 19.9371C82.8885 17.615 82.8854 17.5925 82.3624 17.0921C81.6748 16.4333 80.7798 16.1831 79.6279 16.3275C78.5101 16.4676 77.9622 16.7875 77.4768 17.5834C76.8507 18.6102 76.9653 18.8309 78.1246 18.8309C78.9729 18.8309 79.1561 18.7706 79.2551 18.4587C79.4865 17.7298 80.8391 17.8254 80.8391 18.5707C80.8391 18.8382 80.5656 18.9232 79.0801 19.1169C77.7668 19.2882 76.9259 20.1414 76.9259 21.3025C76.9259 23.1243 78.6615 23.942 80.5164 22.9942L80.5164 22.994ZM79.1 21.6877C78.8964 21.4842 78.9587 20.9396 79.2086 20.7379C79.3368 20.6344 79.7979 20.491 80.2335 20.4192C81.1575 20.2667 81.2706 20.5184 80.6392 21.321C80.2703 21.7899 79.4077 21.9954 79.0999 21.6877H79.1ZM92.2359 23.0047C92.8573 22.6868 93.5102 21.8719 93.5102 21.4142C93.5102 20.9055 91.9784 20.9253 91.3209 21.4426C90.809 21.8452 90.3105 21.7989 89.7368 21.2952C88.9927 20.6418 89.3067 20.5076 91.5802 20.5076H93.7497L93.6324 19.385C93.484 17.9663 93.1395 17.3006 92.2779 16.7681C91.5538 16.3206 89.779 16.176 89.1977 16.5172C87.6549 17.4227 87.0615 18.7608 87.3679 20.6433C87.6661 22.4758 89.1721 23.6033 90.9946 23.3586C91.4045 23.3036 91.9631 23.1443 92.2359 23.0047L92.2359 23.0047ZM89.4108 18.8597C89.4108 18.5499 90.1008 18.0855 90.5612 18.0855C90.9847 18.0855 91.6468 18.5774 91.6468 18.892C91.6468 18.9608 91.1437 19.0171 90.5288 19.0171C89.9139 19.0171 89.4108 18.9463 89.4108 18.8596V18.8597ZM61.1199 22.8068C61.4356 22.5211 61.4596 22.5212 61.4596 22.8075C61.4596 23.0533 61.6485 23.1159 62.3913 23.1159H63.323V13.6136H61.4596V17.1346L60.8134 16.8646C58.9719 16.0953 56.9878 17.1782 56.6981 19.1109C56.491 20.4915 56.7472 21.5951 57.4218 22.2278C57.7466 22.5325 58.2639 22.9001 58.5713 23.0448C59.2585 23.3681 60.6422 23.2388 61.1199 22.8066L61.1199 22.8068ZM58.8528 20.9193C58.2649 20.4433 58.2794 19.264 58.8788 18.8031C59.4644 18.3527 60.3615 18.3684 60.8655 18.8379C62.199 20.0801 60.2745 22.0703 58.853 20.9193H58.8528ZM68.9689 22.4164C69.5867 21.9675 69.9036 21.5864 69.9938 21.1837C70.1029 20.6968 70.1398 20.8003 70.2175 21.8118L70.3107 23.0229L72.2187 23.1339L72.3047 21.0468C72.3827 19.154 72.4302 18.9277 72.8155 18.6158C73.3598 18.175 73.6679 18.1818 74.1307 18.6444C74.4582 18.9719 74.5034 19.2655 74.5034 21.0667V23.1163H76.5888L76.5243 20.5271C76.4677 18.2541 76.4144 17.8876 76.0876 17.5269C75.2511 16.6033 73.9699 16.3411 72.9339 16.8813C72.5547 17.079 72.3511 17.1035 72.2637 16.962C72.1919 16.846 71.746 16.7836 71.2243 16.8167L70.3106 16.8747L70.2479 17.9926L70.1851 19.1106L69.9684 18.4695C69.8274 18.0528 69.4374 17.6034 68.8537 17.1852C68.0988 16.6445 67.7975 16.542 66.9622 16.542C64.6635 16.542 63.022 18.7062 63.673 20.8787C63.918 21.6961 65.1156 22.866 65.8805 23.0348C66.1649 23.0976 66.4814 23.1769 66.5839 23.2108C67.0646 23.37 68.1579 23.006 68.9689 22.4167L68.9689 22.4164ZM65.7993 21.4103L65.3977 21.0087L66.6964 19.7305C67.7774 18.6666 68.0529 18.4832 68.3391 18.6363C69.0807 19.0331 68.9702 19.4153 67.7612 20.635C67.1196 21.2822 66.5061 21.8118 66.3978 21.8118C66.2895 21.8118 66.0202 21.6311 65.7993 21.4103H65.7993ZM65 20.1405C65 20.0818 65.5241 19.5335 66.1647 18.9219C66.8052 18.3104 67.2035 17.9768 67.0498 18.1806C66.6804 18.6704 65 20.277 65 20.1405L65 20.1405ZM86.9876 22.4558C86.9876 21.8866 86.9113 21.6191 86.7547 21.6394C86.0896 21.7258 86.0559 21.6347 86.0559 19.7623V17.8991H86.5218C86.941 17.8991 86.9876 17.8245 86.9876 17.1538C86.9876 16.4831 86.9409 16.4085 86.5218 16.4085C86.0939 16.4085 86.0559 16.3403 86.0559 15.5701V14.7317H84.0061V15.5701C84.0061 16.2843 83.951 16.4085 83.6335 16.4085C83.3229 16.4085 83.2608 16.5328 83.2608 17.1538C83.2608 17.7749 83.3229 17.8991 83.6335 17.8991C83.9857 17.8991 84.0063 18.0243 84.009 20.1815C84.0105 21.4369 84.0758 22.5645 84.154 22.6876C84.379 23.0415 85.1426 23.2779 86.1024 23.2907L86.9876 23.3033L86.9876 22.4558Z" fill="#5652AB"/>
</g>
<defs>
<clipPath id="clip0">
<rect width="253.884" height="70" fill="white"/>
</clipPath>
</defs>
</svg>
