<svg width="110" height="48" viewBox="0 0 110 48" fill="none" xmlns="http://www.w3.org/2000/svg">
<path d="M87.1814 1.27638C86.8655 0.897622 86.4742 0.588829 86.0324 0.369691C85.5906 0.150554 85.1079 0.0258801 84.6152 0.00361858C84.1226 -0.0186429 83.6306 0.0619961 83.1709 0.240395C82.7111 0.418794 82.2935 0.691038 81.9448 1.03977C81.596 1.3885 81.3238 1.80608 81.1454 2.26586C80.967 2.72565 80.8864 3.21756 80.9086 3.71024C80.9309 4.20292 81.0556 4.68556 81.2747 5.12738C81.4938 5.56921 81.8026 5.96052 82.1814 6.27638L97.6914 20.8164H3.37139C2.46115 20.8647 1.60411 21.2603 0.976875 21.9217C0.349641 22.5831 0 23.4599 0 24.3714C0 25.2829 0.349641 26.1597 0.976875 26.8211C1.60411 27.4825 2.46115 27.8781 3.37139 27.9264H97.6914L82.1414 41.4364C81.4983 42.1098 81.1395 43.0052 81.1395 43.9364C81.1395 44.8676 81.4983 45.7629 82.1414 46.4364C82.4693 46.7654 82.859 47.0264 83.288 47.2045C83.717 47.3825 84.1769 47.4742 84.6414 47.4742C85.1059 47.4742 85.5658 47.3825 85.9948 47.2045C86.4238 47.0264 86.8135 46.7654 87.1414 46.4364L108.741 26.8364C109.078 26.5126 109.345 26.1244 109.528 25.6948C109.711 25.2652 109.805 24.8032 109.805 24.3364C109.805 23.8696 109.711 23.4075 109.528 22.978C109.345 22.5484 109.078 22.1601 108.741 21.8364L87.1814 1.27638Z" fill="#938D9F"/>
</svg>
