<svg width="14" height="15" viewBox="0 0 14 15" fill="none" xmlns="http://www.w3.org/2000/svg">
<path d="M1.84932 9.26684L10.9064 14.3767C11.2022 14.5457 11.5375 14.6334 11.8782 14.6308C12.2188 14.6282 12.5527 14.5354 12.8459 14.3619C13.1315 14.1985 13.3688 13.9625 13.5337 13.6777C13.6985 13.393 13.7851 13.0697 13.7845 12.7407V2.52093C13.7851 2.19191 13.6985 1.8686 13.5337 1.58385C13.3688 1.2991 13.1315 1.06306 12.8459 0.899711C12.5527 0.726259 12.2188 0.633519 11.8782 0.630916C11.5375 0.628313 11.2022 0.715938 10.9064 0.884889L1.84932 5.99475C1.55722 6.15656 1.31376 6.39363 1.14424 6.68133C0.974721 6.96903 0.885319 7.29687 0.885319 7.63079C0.885319 7.96472 0.974721 8.29256 1.14424 8.58026C1.31376 8.86796 1.55722 9.10503 1.84932 9.26684Z" fill="#625F69"/>
</svg>
