<svg width="14" height="15" viewBox="0 0 14 15" fill="none" xmlns="http://www.w3.org/2000/svg">
<path d="M12.8205 5.99488L3.76336 0.88502C3.46758 0.715987 3.1323 0.628312 2.79163 0.630916C2.45097 0.633519 2.11707 0.726307 1.8239 0.89984C1.53829 1.06319 1.301 1.29923 1.13613 1.58398C0.971273 1.86873 0.884716 2.19204 0.885256 2.52106V12.7408C0.884716 13.0698 0.971273 13.3931 1.13613 13.6779C1.301 13.9626 1.53829 14.1987 1.8239 14.362C2.1171 14.5355 2.45099 14.6282 2.79163 14.6308C3.13228 14.6334 3.46755 14.5458 3.76336 14.3768L12.8205 9.26697C13.1126 9.10516 13.356 8.86809 13.5256 8.58039C13.6951 8.29269 13.7845 7.96485 13.7845 7.63092C13.7845 7.297 13.6951 6.96916 13.5256 6.68146C13.356 6.39376 13.1126 6.15669 12.8205 5.99488Z" fill="#625F69"/>
</svg>
