<svg width="30" height="30" viewBox="0 0 30 30" fill="none" xmlns="http://www.w3.org/2000/svg">
<path d="M21.7673 28.4484C19.1813 29.6123 16.9397 30 13.8792 30C6.72422 30 0.430786 24.8705 0.430786 16.4227C0.430786 7.62937 6.81001 0 16.552 0C24.1383 0 29.5692 5.21578 29.5692 12.457C29.5692 18.75 26.0348 22.7156 21.3797 22.7156C19.3538 22.7156 17.8884 21.6811 17.6728 19.3964H17.5866C16.2506 21.5948 14.3109 22.7156 12.0263 22.7156C9.22454 22.7156 7.1986 20.6466 7.1986 17.1117C7.1986 11.8533 11.078 7.06875 17.2847 7.06875C19.1813 7.06875 21.3361 7.54312 22.4142 8.14641L21.1214 16.1208C20.6906 18.6633 20.992 19.8277 22.1991 19.8703C24.0525 19.9134 26.3798 17.5425 26.3798 12.5859C26.3798 6.9825 22.7592 2.62875 16.0777 2.62875C9.48329 2.62875 3.70688 7.80141 3.70688 16.0341C3.70688 23.2322 8.31891 27.3272 14.7417 27.3272C16.9402 27.3272 19.268 26.8533 20.9916 25.9477L21.7673 28.4484ZM17.9311 10.6467C17.5861 10.5605 17.1548 10.4742 16.5947 10.4742C13.7503 10.4742 11.5083 13.2759 11.5083 16.5947C11.5083 18.2325 12.2414 19.267 13.6636 19.267C15.2583 19.267 16.9397 17.2411 17.3273 14.7412L17.9311 10.6467Z" fill="#6D56A4"/>
</svg>
