<svg width="70" height="35" viewBox="0 0 70 35" fill="none" xmlns="http://www.w3.org/2000/svg">
<path d="M0.734276 15.6994L15.7343 0.699425C16.2064 0.244653 16.8383 -0.0064775 17.4938 0.000127047C18.1493 0.00673159 18.776 0.270542 19.2389 0.734735C19.7018 1.19893 19.9638 1.82636 19.9686 2.48188C19.9733 3.13741 19.7204 3.76857 19.2643 4.23942L8.53428 14.9694H66.8843C67.5473 14.9694 68.1832 15.2328 68.652 15.7017C69.1209 16.1705 69.3843 16.8064 69.3843 17.4694C69.3843 18.1325 69.1209 18.7684 68.652 19.2372C68.1832 19.706 67.5473 19.9694 66.8843 19.9694H8.53428L19.2643 30.6994C19.4971 30.9317 19.6818 31.2075 19.8078 31.5113C19.9339 31.815 19.9987 32.1406 19.9987 32.4694C19.9987 32.7983 19.9339 33.1239 19.8078 33.4276C19.6818 33.7313 19.4971 34.0072 19.2643 34.2394C19.0345 34.4725 18.7604 34.6571 18.4581 34.7825C18.1559 34.9079 17.8315 34.9715 17.5043 34.9694C17.1757 34.9706 16.8501 34.9066 16.5463 34.7813C16.2425 34.6561 15.9665 34.4719 15.7343 34.2394L0.734276 19.2394C0.50146 19.0072 0.316744 18.7313 0.190712 18.4276C0.0646797 18.1239 -0.000190735 17.7983 -0.000190735 17.4694C-0.000190735 17.1406 0.0646797 16.815 0.190712 16.5113C0.316744 16.2075 0.50146 15.9317 0.734276 15.6994Z" fill="#625F69"/>
</svg>
