<svg width="21" height="21" viewBox="0 0 21 21" fill="none" xmlns="http://www.w3.org/2000/svg">
<path d="M7.59656 19.1054C8.08951 20.2199 9.20516 20.9999 10.5001 20.9999C11.7951 20.9999 12.9106 20.2199 13.4036 19.1054H7.59656Z" fill="#7B5BC4"/>
<path d="M10.4998 2.00635C11.3543 2.00635 12.1748 2.15712 12.9363 2.43316V2.33937C12.9363 1.04944 11.8868 0 10.5969 0H10.4031C9.11315 0 8.0637 1.04944 8.0637 2.33937V2.43197C8.82475 2.15675 9.645 2.00635 10.4998 2.00635Z" fill="#7B5BC4"/>
<path d="M18.1896 17.873H2.81048C2.51953 17.873 2.25302 17.6768 2.1925 17.3922C2.1326 17.1104 2.26103 16.8322 2.52158 16.7119C2.58341 16.6718 3.0488 16.3464 3.51473 15.3618C4.37046 13.5537 4.55007 11.0068 4.55007 9.18845C4.55007 5.90775 7.21915 3.23877 10.4998 3.23877C13.7727 3.23877 16.4369 5.8949 16.4495 9.16485C16.4498 9.1727 16.45 9.18055 16.45 9.18845C16.45 11.0068 16.6296 13.5537 17.4853 15.3618C17.9512 16.3464 18.4166 16.6718 18.4785 16.7119C18.739 16.8322 18.8675 17.1103 18.8075 17.3922C18.747 17.6768 18.4806 17.873 18.1896 17.873ZM18.4854 16.7162H18.4858H18.4854Z" fill="#7B5BC4"/>
</svg>
