<svg xmlns="http://www.w3.org/2000/svg" xmlns:xlink="http://www.w3.org/1999/xlink" width="84.611" height="20.989" viewBox="0 0 84.611 20.989">
  <defs>
    <clipPath id="clip-path">
      <rect id="Rectangle_3152" data-name="Rectangle 3152" width="84.611" height="20.989" transform="translate(0 0)" fill="#b1b1b1"/>
    </clipPath>
  </defs>
  <g id="Group_2978" data-name="Group 2978" transform="translate(0 0)">
    <g id="Group_736" data-name="Group 736" transform="translate(0 0)" clip-path="url(#clip-path)">
      <path id="Path_1106" data-name="Path 1106" d="M13.826,2.655A7.759,7.759,0,0,0,7.014,6.7s-5.6,9.541-5.791,9.918A2.157,2.157,0,0,1,0,17.66c.08.169.154.34.225.514H.56a1.108,1.108,0,0,0,.922-.494L3.37,14.849H6.8a2.218,2.218,0,0,0,1.946-1.155L13.018,6.4A18.517,18.517,0,0,1,15.85,2.676l.021-.021Z" transform="translate(0 -1.747)" fill="#b1b1b1"/>
      <path id="Path_1107" data-name="Path 1107" d="M58,17.486v.371H51.87v-.371a1.9,1.9,0,0,0,1.506-2.064V4.979A1.876,1.876,0,0,0,51.87,2.957V2.585a55.026,55.026,0,0,1,6.48-.413,8.146,8.146,0,0,1,4.922,1.393,4.254,4.254,0,0,1,1.908,3.58,4.766,4.766,0,0,1-1.042,3.075A5.933,5.933,0,0,1,61.57,12.1a9.316,9.316,0,0,1-3.323.578,8.55,8.55,0,0,1-1.816-.207v2.951a2.077,2.077,0,0,0,.423,1.311A2.149,2.149,0,0,0,58,17.486M56.431,4.711v6.707a10.467,10.467,0,0,0,1.342.1,4.132,4.132,0,0,0,3.013-1.012A3.861,3.861,0,0,0,61.818,7.62a5.1,5.1,0,0,0-.991-3.271A3.079,3.079,0,0,0,58.309,3.1a2.07,2.07,0,0,0-1.372.424,1.462,1.462,0,0,0-.506,1.187" transform="translate(-34.124 -1.429)" fill="#b1b1b1"/>
      <path id="Path_1108" data-name="Path 1108" d="M92.531,0V14.2a1.816,1.816,0,0,0,1.2,1.857v.371h-5.2v-.371A1.8,1.8,0,0,0,89.621,14.2V3.88a1.759,1.759,0,0,0-1.259-1.919V1.589A6.949,6.949,0,0,0,92.139,0Z" transform="translate(-58.13 0)" fill="#b1b1b1"/>
      <path id="Path_1109" data-name="Path 1109" d="M112.014,23.95A4.412,4.412,0,0,1,110.28,26.4a4.816,4.816,0,0,1-2.827.9,4.992,4.992,0,0,1-3.529-1.414,5.074,5.074,0,0,1-1.506-3.89,6.146,6.146,0,0,1,1.527-4.21,4.878,4.878,0,0,1,3.818-1.734,4.264,4.264,0,0,1,3.117,1.218,4.206,4.206,0,0,1,1.238,3.137v.557h-7.038a4.922,4.922,0,0,0,1.053,3.291,3.314,3.314,0,0,0,2.58,1.125,3.418,3.418,0,0,0,2.972-1.609Zm-4.747-6.872a1.782,1.782,0,0,0-1.424.743,4.022,4.022,0,0,0-.722,2.208h4.045a3.99,3.99,0,0,0-.506-2.157,1.573,1.573,0,0,0-1.393-.795" transform="translate(-67.377 -10.556)" fill="#b1b1b1"/>
      <path id="Path_1110" data-name="Path 1110" d="M136.178,16.717a3.565,3.565,0,0,1-2.8-1.362,5.024,5.024,0,0,1-1.166-3.385,6.543,6.543,0,0,1,1.651-4.488,5.348,5.348,0,0,1,4.19-1.868,5.087,5.087,0,0,1,1.692.289V3.88a1.809,1.809,0,0,0-1.383-1.919V1.59A7.214,7.214,0,0,0,142.224,0h.393V13.332a1.847,1.847,0,0,0,1.176,1.981v.371a10.5,10.5,0,0,0-3.653,1.156h-.372v-.949c0-.124,0-.3.011-.516s.01-.364.01-.433l-.041-.021a6.028,6.028,0,0,1-1.62,1.269,4.018,4.018,0,0,1-1.951.526m1.651-1.775a3.167,3.167,0,0,0,1.919-.826V8.131a1.587,1.587,0,0,0-.444-1.156,1.5,1.5,0,0,0-1.166-.433,2.4,2.4,0,0,0-2.126,1.28,5.607,5.607,0,0,0-.8,3.137,5.3,5.3,0,0,0,.691,2.93,2.184,2.184,0,0,0,1.93,1.053" transform="translate(-86.98 0)" fill="#b1b1b1"/>
      <path id="Path_1111" data-name="Path 1111" d="M174.509,27.139a2.852,2.852,0,0,1-1.682,2.539,8.54,8.54,0,0,1-4.241.949,12.659,12.659,0,0,1-1.857-.134,10.658,10.658,0,0,1-1.734-.4,3.348,3.348,0,0,1-1.331-.764,1.567,1.567,0,0,1-.506-1.156q0-.785,1.094-1.4a8.274,8.274,0,0,1,2.765-.887q-2.043-.578-2.477-1.672v-.248a9.6,9.6,0,0,0,2.93-1.651,4.805,4.805,0,0,1-2.662-1.2,3,3,0,0,1-1.053-2.27,3.089,3.089,0,0,1,1.321-2.487,4.974,4.974,0,0,1,3.178-1.042,5.226,5.226,0,0,1,3.3,1.074,3.03,3.03,0,0,1,2.414-1.549,1.254,1.254,0,0,1,.877.33,1.074,1.074,0,0,1,.362.826,1.121,1.121,0,0,1-.331.826,1.068,1.068,0,0,1-.783.33,1.394,1.394,0,0,1-.857-.351,1.311,1.311,0,0,0-.692-.351,1.01,1.01,0,0,0-.619.268,3.019,3.019,0,0,1,.929,2.126,3.06,3.06,0,0,1-1.351,2.5,5.2,5.2,0,0,1-3.251,1.032h-.123a1.162,1.162,0,0,0-.372.681q0,.331.692.578a13.812,13.812,0,0,0,1.682.465q.991.216,1.992.526a4.266,4.266,0,0,1,1.692.96,2.064,2.064,0,0,1,.691,1.558m-9.06.909a1.366,1.366,0,0,0,.95,1.228,5.78,5.78,0,0,0,2.559.4,5.634,5.634,0,0,0,2.311-.433q.867-.414.867-1.032a1.032,1.032,0,0,0-.114-.485,1.163,1.163,0,0,0-.381-.4,4.767,4.767,0,0,0-.506-.31,4.336,4.336,0,0,0-.722-.268q-.485-.145-.764-.217t-.877-.207q-.6-.134-.867-.2-2.456.454-2.456,1.92M168.255,16.2q-1.692,0-1.692,2.642a3.671,3.671,0,0,0,.444,1.95,1.394,1.394,0,0,0,1.248.712,1.478,1.478,0,0,0,1.311-.712,3.541,3.541,0,0,0,.464-1.95q0-2.641-1.775-2.642" transform="translate(-107.336 -9.762)" fill="#b1b1b1"/>
      <path id="Path_1112" data-name="Path 1112" d="M204.726,23.95a4.414,4.414,0,0,1-1.733,2.446,4.817,4.817,0,0,1-2.827.9,4.992,4.992,0,0,1-3.529-1.414,5.075,5.075,0,0,1-1.506-3.89,6.146,6.146,0,0,1,1.527-4.21,4.878,4.878,0,0,1,3.818-1.734,4.264,4.264,0,0,1,3.117,1.218,4.206,4.206,0,0,1,1.238,3.137v.557h-7.038a4.922,4.922,0,0,0,1.053,3.291,3.314,3.314,0,0,0,2.58,1.125,3.418,3.418,0,0,0,2.972-1.609Zm-4.747-6.872a1.782,1.782,0,0,0-1.424.743,4.022,4.022,0,0,0-.722,2.208h4.045a3.99,3.99,0,0,0-.506-2.157,1.573,1.573,0,0,0-1.393-.795" transform="translate(-128.369 -10.556)" fill="#b1b1b1"/>
      <path id="Path_1113" data-name="Path 1113" d="M226.339,16.86q0,.228-.082,1.053l.082.041a4.779,4.779,0,0,1,1.28-1.5,2.642,2.642,0,0,1,1.63-.65,1.492,1.492,0,0,1,1.094.454,1.515,1.515,0,0,1,.454,1.114,1.447,1.447,0,0,1-.4,1.053,1.248,1.248,0,0,1-.919.413,1.827,1.827,0,0,1-1.1-.464,1.737,1.737,0,0,0-.959-.465q-.413,0-1.073.784v5.82a2.038,2.038,0,0,0,1.239,1.858v.371h-5.366v-.371a1.932,1.932,0,0,0,1.238-1.858V19.564a2.321,2.321,0,0,0-.289-1.28,1.609,1.609,0,0,0-.949-.619v-.392a7.448,7.448,0,0,0,2.043-.567,6.375,6.375,0,0,0,1.692-1.022h.392Z" transform="translate(-146.186 -10.318)" fill="#b1b1b1"/>
      <path id="Path_1114" data-name="Path 1114" d="M58.041,54.19a.561.561,0,0,0-.127-.143.593.593,0,0,0-.172-.1.583.583,0,0,0-.2-.035.658.658,0,0,0-.326.075.615.615,0,0,0-.218.2.88.88,0,0,0-.121.284,1.422,1.422,0,0,0-.038.329,1.323,1.323,0,0,0,.038.317A.871.871,0,0,0,57,55.4a.627.627,0,0,0,.218.2.661.661,0,0,0,.326.074.526.526,0,0,0,.408-.159.738.738,0,0,0,.179-.42h.55a1.29,1.29,0,0,1-.112.438,1.048,1.048,0,0,1-.239.333,1.011,1.011,0,0,1-.348.21,1.271,1.271,0,0,1-.438.073,1.321,1.321,0,0,1-.534-.1,1.145,1.145,0,0,1-.4-.284,1.258,1.258,0,0,1-.25-.426,1.559,1.559,0,0,1-.087-.527,1.612,1.612,0,0,1,.087-.538,1.293,1.293,0,0,1,.25-.432,1.145,1.145,0,0,1,.4-.289,1.381,1.381,0,0,1,.938-.043,1.088,1.088,0,0,1,.34.179.961.961,0,0,1,.248.291,1.038,1.038,0,0,1,.124.4h-.55a.462.462,0,0,0-.065-.179" transform="translate(-37.018 -35.155)" fill="#b1b1b1"/>
      <path id="Path_1115" data-name="Path 1115" d="M68.61,53.619v.992h1.047v-.992h.569V56.2h-.569V55.089H68.61V56.2h-.568V53.619Z" transform="translate(-44.762 -35.274)" fill="#b1b1b1"/>
      <path id="Path_1116" data-name="Path 1116" d="M80.25,53.618l.968,2.586h-.591l-.2-.576h-.967l-.2.576h-.572l.978-2.586Zm.033,1.586-.326-.949h-.008l-.337.949Z" transform="translate(-51.767 -35.274)" fill="#b1b1b1"/>
      <path id="Path_1117" data-name="Path 1117" d="M91.729,53.618a.842.842,0,0,1,.313.056.721.721,0,0,1,.239.155.663.663,0,0,1,.153.226.737.737,0,0,1,.052.277.782.782,0,0,1-.1.394.6.6,0,0,1-.313.254v.007a.449.449,0,0,1,.174.089.5.5,0,0,1,.112.142.653.653,0,0,1,.064.179,1.747,1.747,0,0,1,.027.195c0,.041,0,.09.007.145s.006.112.013.17a1.162,1.162,0,0,0,.029.165.379.379,0,0,0,.06.132h-.569a1,1,0,0,1-.058-.293c-.007-.114-.017-.222-.032-.326a.511.511,0,0,0-.124-.3.422.422,0,0,0-.308-.094H90.9V56.2h-.568V53.618Zm-.2,1.17a.432.432,0,0,0,.293-.087.362.362,0,0,0,.1-.283.343.343,0,0,0-.1-.273.434.434,0,0,0-.293-.086H90.9v.728Z" transform="translate(-59.428 -35.274)" fill="#b1b1b1"/>
      <rect id="Rectangle_3151" data-name="Rectangle 3151" width="0.568" height="2.586" transform="translate(34.897 18.345)" fill="#b1b1b1"/>
      <path id="Path_1118" data-name="Path 1118" d="M108.128,54.1v-.478h2.119V54.1h-.775V56.2H108.9V54.1Z" transform="translate(-71.134 -35.274)" fill="#b1b1b1"/>
      <path id="Path_1119" data-name="Path 1119" d="M118.58,53.618l.968,2.586h-.59l-.2-.576h-.967l-.2.576h-.572L118,53.618Zm.033,1.586-.326-.949h-.008l-.337.949Z" transform="translate(-76.983 -35.274)" fill="#b1b1b1"/>
      <path id="Path_1120" data-name="Path 1120" d="M129.881,53.619a1.6,1.6,0,0,1,.337.033.711.711,0,0,1,.26.106.5.5,0,0,1,.169.2.7.7,0,0,1,.06.3.565.565,0,0,1-.089.326.644.644,0,0,1-.262.214.623.623,0,0,1,.357.241.793.793,0,0,1,.042.753.669.669,0,0,1-.2.234.909.909,0,0,1-.294.134,1.315,1.315,0,0,1-.339.044h-1.252V53.619Zm-.073,1.047a.412.412,0,0,0,.25-.073.274.274,0,0,0,.1-.235.3.3,0,0,0-.033-.149.247.247,0,0,0-.087-.09.375.375,0,0,0-.126-.045.81.81,0,0,0-.146-.013h-.532v.6Zm.033,1.1a.759.759,0,0,0,.159-.016.392.392,0,0,0,.134-.054.278.278,0,0,0,.093-.1.367.367,0,0,0,.034-.167.333.333,0,0,0-.112-.284.479.479,0,0,0-.3-.085h-.62v.71Z" transform="translate(-84.644 -35.274)" fill="#b1b1b1"/>
      <path id="Path_1121" data-name="Path 1121" d="M140.283,53.619v2.108h1.26V56.2h-1.829V53.619Z" transform="translate(-91.913 -35.274)" fill="#b1b1b1"/>
      <path id="Path_1122" data-name="Path 1122" d="M151.525,53.619V54.1H150.16v.554h1.253v.441H150.16v.634h1.394V56.2h-1.962V53.619Z" transform="translate(-98.411 -35.274)" fill="#b1b1b1"/>
    </g>
  </g>
</svg>
