<svg xmlns="http://www.w3.org/2000/svg" width="77.024" height="36.417" viewBox="0 0 77.024 36.417">
  <path id="Subtraction_52" data-name="Subtraction 52" d="M59.88,36.417a2.964,2.964,0,0,1-2.957-3.1,2.92,2.92,0,0,1,2.945-3.09,2.444,2.444,0,0,1,2.011.916v-3.97h1.488v9.1H61.879v-.788A2.481,2.481,0,0,1,59.88,36.417Zm.229-4.837a1.683,1.683,0,0,0-1.68,1.72,1.711,1.711,0,1,0,1.68-1.72ZM44.675,36.417c-1.53,0-2.407-1-2.407-2.737v-3.3h1.494v3.237a1.277,1.277,0,0,0,1.246,1.443,1.435,1.435,0,0,0,1.533-1.525V30.375h1.5V36.27h-1.5V35.34A2.089,2.089,0,0,1,44.675,36.417Zm6.63-.147H49.813V30.375h1.492v.935a2.081,2.081,0,0,1,1.868-1.084c1.53,0,2.407,1,2.407,2.737v3.3l-1.494,0V33.058a1.293,1.293,0,0,0-1.246-1.449,1.44,1.44,0,0,0-1.535,1.53V36.27Zm-13.572,0h-1.57v-8.7h5.379v1.375H37.733V31.31h3.014v1.375H37.733V36.27ZM24.316,35.164a7.327,7.327,0,0,1-4.389-1.457,12.4,12.4,0,0,0,3.817-1.8,15.013,15.013,0,0,0,5.235-6.895,19.666,19.666,0,0,0,1.291-7.017,12.777,12.777,0,0,0-1.244-5.631,14.126,14.126,0,0,1,3.346,7.9,17.6,17.6,0,0,1-1.16,9.756c-1.35,2.777-3.221,4.509-5.408,5A7.352,7.352,0,0,1,24.316,35.164Zm-2.628-3.43A8.753,8.753,0,0,1,17.127,30.3a17.074,17.074,0,0,0,3.4-1.427c.062-.038.13-.076.2-.114l.018-.011a3.352,3.352,0,0,0,.466-.3,16.467,16.467,0,0,0,6.135-6.895,15.534,15.534,0,0,0,1.5-8.2,11.749,11.749,0,0,1,.857,4.71,17.57,17.57,0,0,1-1.246,6.813,7.487,7.487,0,0,1-.462,1.035l-.008.016a15.029,15.029,0,0,1-1.97,3.147,12.706,12.706,0,0,1-2.53,2.4A6.427,6.427,0,0,1,21.688,31.734ZM16.252,29.15a16.808,16.808,0,0,1-6.214-1.31,18.436,18.436,0,0,1-8.063-5.878C.2,19.469-.393,17.015.254,14.863a7.27,7.27,0,0,1,4.122-4.329,12.4,12.4,0,0,0-.305,4.158,14.633,14.633,0,0,0,3.477,7.859,19.691,19.691,0,0,0,5.533,4.579A13.709,13.709,0,0,0,18.654,28.9,11.1,11.1,0,0,1,16.252,29.15Zm1.71-.87a13.671,13.671,0,0,1-4.576-1.6,18.749,18.749,0,0,1-5.4-4.46c-.123-.141-.241-.3-.358-.446l-.01-.014c-.122-.16-.241-.321-.368-.462a16.46,16.46,0,0,1-1.8-3.237,13.123,13.123,0,0,1-.863-3.362A7.438,7.438,0,0,1,8.842,9.871a14.18,14.18,0,0,0-.387,3.576v.84a16.337,16.337,0,0,0,3,8.61,15.841,15.841,0,0,0,6.507,5.378Zm56.614-5.443a2.222,2.222,0,0,1-2.422-1.973h1.4a.715.715,0,0,0,.221.511,1.04,1.04,0,0,0,.768.277c.574,0,.976-.277.976-.671,0-.3-.211-.473-.706-.584l-.8-.2c-1.14-.291-1.692-.881-1.692-1.8a2.043,2.043,0,0,1,2.239-1.753,2.559,2.559,0,0,1,1.788.636,1.6,1.6,0,0,1,.473,1.207H75.4a.6.6,0,0,0-.184-.429.878.878,0,0,0-.617-.228c-.459,0-.782.258-.782.628,0,.266.236.467.645.557l.96.258c1.4.348,1.606,1.226,1.606,1.715C77.024,22.2,75.791,22.836,74.576,22.836Zm-11.721,0a3.1,3.1,0,1,1,3.207-3.112A3.085,3.085,0,0,1,62.856,22.836Zm0-4.832a1.734,1.734,0,1,0,1.7,1.728A1.7,1.7,0,0,0,62.856,18Zm-14.9,4.832a3.1,3.1,0,1,1,3.208-3.112A3.081,3.081,0,0,1,47.953,22.836ZM47.96,18a1.734,1.734,0,1,0,1.7,1.728A1.7,1.7,0,0,0,47.96,18Zm6.1,4.677h0l-1.492,0V16.784h1.494v.938a2.11,2.11,0,0,1,1.873-1.084c1.53,0,2.407,1,2.407,2.737v3.3H56.846v-3.2a1.3,1.3,0,0,0-1.253-1.451,1.452,1.452,0,0,0-1.534,1.527v3.131Zm14.915,0H67.466V16.784h1.5v1.269a1.791,1.791,0,0,1,1.721-1.416,2.238,2.238,0,0,1,.981.2l-.3,1.391a1.9,1.9,0,0,0-.877-.217c-.963,0-1.515.951-1.515,2.614v2.052Zm-29.333,0H36.163V13.988H39.64c2.4,0,4.017,1.753,4.017,4.362C43.657,20.94,42.044,22.679,39.64,22.679Zm-1.907-7.316V21.3H39.64c1.479,0,2.434-1.158,2.434-2.954,0-1.813-.956-2.987-2.434-2.987Zm-6.708-2.31h0a16.24,16.24,0,0,0-2.954-2.142c-.165-.1-.355-.193-.558-.291l-.076-.041-.1-.046A17.035,17.035,0,0,0,19.7,8.7c-.512,0-1.017.022-1.5.068a16.117,16.117,0,0,0-8.021,2.818,13.311,13.311,0,0,1,3.734-3.109,19.615,19.615,0,0,1,6.647-2.359c.09-.008.179-.019.27-.03l.1-.016h.017A5.593,5.593,0,0,1,21.758,6a13.952,13.952,0,0,1,1.476-.076,17.877,17.877,0,0,1,2.3.158,13.729,13.729,0,0,1,3.39.967,7.475,7.475,0,0,1,2.1,6.006ZM9.343,11.906l0,0a14.732,14.732,0,0,1,5.231-6.8A19.063,19.063,0,0,1,23.8,1.2c.4-.033.788-.049,1.168-.049A8.1,8.1,0,0,1,30.956,3.3a7.293,7.293,0,0,1,1.723,5.636,11.972,11.972,0,0,0-3.52-2.31,14.114,14.114,0,0,0-5.831-1.2,18.117,18.117,0,0,0-2.834.228,19.613,19.613,0,0,0-6.824,2.394A13.216,13.216,0,0,0,9.343,11.906Zm43.92-2.661a3.027,3.027,0,0,1-3.158-3.1,3.021,3.021,0,0,1,3.158-3.09A2.952,2.952,0,0,1,56.325,6.1c0,.149-.011.326-.024.527l0,.035H51.638a1.581,1.581,0,0,0,1.714,1.266,2,2,0,0,0,1.619-.758l1.01.745A3.2,3.2,0,0,1,53.263,9.245Zm.014-4.892a1.539,1.539,0,0,0-1.638,1.288h3.21A1.457,1.457,0,0,0,53.277,4.354ZM44.5,9.1h0L43,9.1V0h1.5V4.1a2.111,2.111,0,0,1,1.866-1.049c1.53,0,2.407,1,2.407,2.737V9.1H47.275v-3.2a1.281,1.281,0,0,0-1.246-1.451A1.442,1.442,0,0,0,44.5,5.982V9.1Zm-5.1,0H37.822V1.78H35.285V.4H41.93V1.78H39.394V9.1Z" fill="#7c858f"/>
</svg>
