<svg xmlns="http://www.w3.org/2000/svg" xmlns:xlink="http://www.w3.org/1999/xlink" width="123.993" height="22.219" viewBox="0 0 123.993 22.219">
  <defs>
    <clipPath id="clip-path">
      <rect id="Rectangle_1235" data-name="Rectangle 1235" width="123.993" height="22.219" fill="#7c858f"/>
    </clipPath>
  </defs>
  <g id="Group_3110" data-name="Group 3110" style="mix-blend-mode: normal;isolation: isolate">
    <g id="Group_271" data-name="Group 271" transform="translate(0 0)" clip-path="url(#clip-path)">
      <path id="Path_407" data-name="Path 407" d="M366.29,166.483a3.713,3.713,0,1,0-7.15,0Z" transform="translate(-320.523 -153.695)" fill="#7c858f"/>
      <path id="Path_408" data-name="Path 408" d="M522,164.776H506.059a.25.25,0,0,1-.251-.25V155.6a.251.251,0,0,1,.251-.251h6.51a.25.25,0,0,0,.251-.25v-2.854a.25.25,0,0,0-.251-.251h-9.876a.251.251,0,0,0-.25.251v12.2a.251.251,0,0,1-.25.25h-8.928a.251.251,0,0,1-.251-.25V142.816a.251.251,0,0,1,.251-.25H522a.25.25,0,0,1,.25.25v21.71a.25.25,0,0,1-.25.25" transform="translate(-398.255 -142.558)" fill="#7c858f"/>
      <path id="Path_409" data-name="Path 409" d="M446.347,164.765H417.591a.238.238,0,0,1-.238-.238V142.786a.239.239,0,0,1,.238-.239h8.952a.239.239,0,0,1,.238.239V155.1a.237.237,0,0,0,.238.239h9.9a.238.238,0,0,0,.238-.239v-2.882a.238.238,0,0,0-.238-.238l-6.543,0a.238.238,0,0,1-.239-.238l0-8.952a.238.238,0,0,1,.238-.238l15.973,0a.238.238,0,0,1,.238.238v21.74a.238.238,0,0,1-.238.238" transform="translate(-354.368 -142.547)" fill="#7c858f"/>
      <path id="Path_410" data-name="Path 410" d="M296.311,164.769H267.6a.224.224,0,0,1-.225-.224v-8.979a.225.225,0,0,1,.225-.224h3.125a.224.224,0,0,0,.224-.224v-2.912a.224.224,0,0,0-.224-.224h-3.117a.224.224,0,0,1-.224-.224v-8.979a.225.225,0,0,1,.224-.224h12.545a.224.224,0,0,1,.224.224v12.34a.225.225,0,0,0,.225.224h6.277a.224.224,0,0,0,.225-.224v-2.912a.224.224,0,0,0-.225-.224h-2.915a.223.223,0,0,1-.224-.224v-8.979a.224.224,0,0,1,.224-.224h12.343a.224.224,0,0,1,.224.224v21.767a.223.223,0,0,1-.224.224" transform="translate(-267.379 -142.551)" fill="#7c858f"/>
      <path id="Path_411" data-name="Path 411" d="M368.686,155.054v-12.2a.292.292,0,0,0-.292-.292H343.305a.292.292,0,0,0-.292.292V151.7a.293.293,0,0,0,.292.293h4.25a.291.291,0,0,0,.265-.175,6.2,6.2,0,0,1,1.5-2.051,6.116,6.116,0,0,1,6.075-1.273l.019.005h0a6.116,6.116,0,0,1,4.091,6.6.287.287,0,0,1-.285.246l-15.919,0a.288.288,0,0,0-.288.29v8.845a.293.293,0,0,0,.292.293h28.44a.292.292,0,0,0,.292-.293v-8.842a.293.293,0,0,0-.292-.293h-2.767a.293.293,0,0,1-.293-.292" transform="translate(-311.249 -142.556)" fill="#7c858f"/>
    </g>
  </g>
</svg>
