<svg xmlns="http://www.w3.org/2000/svg" width="79.624" height="31.561" viewBox="0 0 79.624 31.561">
  <g id="logo" style="mix-blend-mode: normal;isolation: isolate">
    <path id="Path_295" data-name="Path 295" d="M144.07,31.561A15.56,15.56,0,0,1,128.1,15.868v-.088C128.1,7.105,134.774,0,144.336,0c5.872,0,9.387,1.918,12.277,4.708l-4.359,4.925c-2.4-2.136-4.848-3.443-7.962-3.443-5.248,0-9.03,4.272-9.03,9.5v.087c0,5.23,3.693,9.59,9.03,9.59,3.558,0,5.738-1.393,8.185-3.574l4.359,4.316a16.056,16.056,0,0,1-12.767,5.449" transform="translate(-86.194)" fill="#7c858f" opacity="0.998"/>
    <path id="Path_296" data-name="Path 296" d="M168.091,41.3v1.288h2.942V43.8h-2.942v2.341h-1.357V40.09h4.7V41.3Z" transform="translate(-112.188 -27.237)" fill="#7c858f" opacity="0.998"/>
    <path id="Path_297" data-name="Path 297" d="M186.77,46.231a2.423,2.423,0,0,1-2.669-2.686V40.09h1.356v3.42c0,.985.5,1.495,1.33,1.495s1.331-.493,1.331-1.451V40.09h1.357V43.5a2.459,2.459,0,0,1-2.706,2.73" transform="translate(-123.874 -27.237)" fill="#7c858f" opacity="0.998"/>
    <path id="Path_298" data-name="Path 298" d="M209.077,46.135l-2.989-3.844v3.844h-1.339V40.089H206l2.89,3.723V40.089h1.34v6.046Z" transform="translate(-137.767 -27.236)" fill="#7c858f" opacity="0.998"/>
    <path id="Path_299" data-name="Path 299" d="M228.425,46.135h-2.406V40.09h2.406A3.047,3.047,0,0,1,231.7,43.1v.017a3.061,3.061,0,0,1-3.278,3.022m1.859-3.022a1.754,1.754,0,0,0-1.859-1.822h-1.049v3.644h1.049a1.741,1.741,0,0,0,1.859-1.8Z" transform="translate(-152.079 -27.237)" fill="#7c858f" opacity="0.998"/>
    <path id="Path_300" data-name="Path 300" d="M144.07,31.561A15.56,15.56,0,0,1,128.1,15.868v-.087C128.1,7.105,134.774,0,144.336,0c5.872,0,9.387,1.918,12.277,4.708l-4.359,4.925c-2.4-2.136-4.848-3.443-7.962-3.443-5.248,0-9.03,4.272-9.03,9.5v.088c0,5.23,3.693,9.589,9.03,9.589,3.558,0,5.738-1.393,8.185-3.573l4.359,4.315a16.055,16.055,0,0,1-12.767,5.449" transform="translate(-86.194)" fill="#7c858f" opacity="0.998"/>
    <path id="Path_301" data-name="Path 301" d="M80.773,31.9a12.83,12.83,0,0,1-10.187-4.577L74.9,22.618c1.779,1.919,3.514,3.051,5.694,3.051,2.579,0,4.18-1.525,4.18-5.056V.953H91.8V20.918c0,7.41-4.449,10.985-11.031,10.985" transform="translate(-47.494 -0.647)" fill="#7c858f" opacity="0.998"/>
    <path id="Path_302" data-name="Path 302" d="M80.773,73.566a12.83,12.83,0,0,1-10.187-4.577L74.9,64.282c1.779,1.919,3.514,3.051,5.694,3.051,2.579,0,4.18-1.525,4.18-5.056l7.028.3c0,7.41-4.449,10.985-11.031,10.985" transform="translate(-47.494 -42.311)" fill="#7c858f" opacity="0.998"/>
    <path id="Path_303" data-name="Path 303" d="M16.5,31.563C6.894,31.563,0,24.544,0,15.87v-.087C0,7.109,6.983,0,16.591,0s16.5,7.018,16.5,15.693v.087c0,8.675-6.984,15.78-16.592,15.78m9.43-15.78a9.358,9.358,0,0,0-9.43-9.59,9.212,9.212,0,0,0-9.341,9.5v.087a9.357,9.357,0,0,0,9.43,9.59,9.211,9.211,0,0,0,9.341-9.5Z" transform="translate(0 -0.002)" fill="#7c858f" opacity="0.998"/>
  </g>
</svg>
