<svg width="22" height="22" viewBox="0 0 22 22" fill="none" xmlns="http://www.w3.org/2000/svg">
<path d="M21.1406 15.125C21.6153 15.125 22 14.7403 22 14.2656V5.15625C22 3.26081 20.4579 1.71875 18.5625 1.71875H17.4453V0.859375C17.4453 0.384742 17.0606 0 16.5859 0C16.1113 0 15.7266 0.384742 15.7266 0.859375V1.71875H11.8164V0.859375C11.8164 0.384742 11.4317 0 10.957 0C10.4824 0 10.0977 0.384742 10.0977 0.859375V1.71875H6.23047V0.859375C6.23047 0.384742 5.84573 0 5.37109 0C4.89646 0 4.51172 0.384742 4.51172 0.859375V1.71875H3.4375C1.54206 1.71875 0 3.26081 0 5.15625V18.5625C0 20.4579 1.54206 22 3.4375 22H18.5625C20.4579 22 22 20.4579 22 18.5625C22 18.0879 21.6153 17.7031 21.1406 17.7031C20.666 17.7031 20.2812 18.0879 20.2812 18.5625C20.2812 19.5102 19.5102 20.2812 18.5625 20.2812H3.4375C2.48978 20.2812 1.71875 19.5102 1.71875 18.5625V5.15625C1.71875 4.20853 2.48978 3.4375 3.4375 3.4375H4.51172V4.29688C4.51172 4.77151 4.89646 5.15625 5.37109 5.15625C5.84573 5.15625 6.23047 4.77151 6.23047 4.29688V3.4375H10.0977V4.29688C10.0977 4.77151 10.4824 5.15625 10.957 5.15625C11.4317 5.15625 11.8164 4.77151 11.8164 4.29688V3.4375H15.7266V4.29688C15.7266 4.77151 16.1113 5.15625 16.5859 5.15625C17.0606 5.15625 17.4453 4.77151 17.4453 4.29688V3.4375H18.5625C19.5102 3.4375 20.2812 4.20853 20.2812 5.15625V14.2656C20.2812 14.7403 20.666 15.125 21.1406 15.125Z" fill="#523989"/>
</svg>
