<svg width="22" height="21" viewBox="0 0 22 21" fill="none" xmlns="http://www.w3.org/2000/svg">
<path d="M16.758 9.43359C17.2105 9.43359 17.5773 9.06633 17.5773 8.61328C17.5773 8.16024 17.2105 7.79297 16.758 7.79297C16.3055 7.79297 15.9387 8.16024 15.9387 8.61328C15.9387 9.06633 16.3055 9.43359 16.758 9.43359Z" fill="#523989"/>
<path d="M18.6424 1.64062H17.5773V0.820312C17.5773 0.367254 17.2105 0 16.758 0C16.3055 0 15.9387 0.367254 15.9387 0.820312V1.64062H12.2109V0.820312C12.2109 0.367254 11.8441 0 11.3916 0C10.9391 0 10.5723 0.367254 10.5723 0.820312V1.64062H6.88546V0.820312C6.88546 0.367254 6.51866 0 6.06616 0C5.61367 0 5.24687 0.367254 5.24687 0.820312V1.64062H4.22275C2.4157 1.64062 0.945557 3.11259 0.945557 4.92188V17.7188C0.945557 19.528 2.4157 21 4.22275 21H10.4904C10.9429 21 11.3097 20.6327 11.3097 20.1797C11.3097 19.7266 10.9429 19.3594 10.4904 19.3594H4.22275C3.31922 19.3594 2.58415 18.6234 2.58415 17.7188V4.92188C2.58415 4.01723 3.31922 3.28125 4.22275 3.28125H5.24687V4.10156C5.24687 4.55462 5.61367 4.92188 6.06616 4.92188C6.51866 4.92188 6.88546 4.55462 6.88546 4.10156V3.28125H10.5723V4.10156C10.5723 4.55462 10.9391 4.92188 11.3916 4.92188C11.8441 4.92188 12.2109 4.55462 12.2109 4.10156V3.28125H15.9387V4.10156C15.9387 4.55462 16.3055 4.92188 16.758 4.92188C17.2105 4.92188 17.5773 4.55462 17.5773 4.10156V3.28125H18.6424C19.5459 3.28125 20.281 4.01723 20.281 4.92188V9.59766C20.281 10.0507 20.6478 10.418 21.1003 10.418C21.5528 10.418 21.9196 10.0507 21.9196 9.59766V4.92188C21.9196 3.11259 20.4494 1.64062 18.6424 1.64062Z" fill="#523989"/>
<path d="M16.9629 11.0742C14.2297 11.0742 12.0061 13.3005 12.0061 16.0371C12.0061 18.7737 14.2297 21 16.9629 21C19.696 21 21.9196 18.7737 21.9196 16.0371C21.9196 13.3005 19.696 11.0742 16.9629 11.0742ZM16.9629 19.3594C15.1332 19.3594 13.6447 17.869 13.6447 16.0371C13.6447 14.2052 15.1332 12.7148 16.9629 12.7148C18.7925 12.7148 20.281 14.2052 20.281 16.0371C20.281 17.869 18.7925 19.3594 16.9629 19.3594Z" fill="#523989"/>
<path d="M18.1508 15.2168H17.7821V14.3555C17.7821 13.9024 17.4153 13.5352 16.9629 13.5352C16.5104 13.5352 16.1436 13.9024 16.1436 14.3555V16.0371C16.1436 16.4902 16.5104 16.8574 16.9629 16.8574H18.1508C18.6033 16.8574 18.9701 16.4902 18.9701 16.0371C18.9701 15.5841 18.6033 15.2168 18.1508 15.2168Z" fill="#523989"/>
<path d="M13.1941 9.43359C13.6465 9.43359 14.0134 9.06633 14.0134 8.61328C14.0134 8.16024 13.6465 7.79297 13.1941 7.79297C12.7416 7.79297 12.3748 8.16024 12.3748 8.61328C12.3748 9.06633 12.7416 9.43359 13.1941 9.43359Z" fill="#523989"/>
<path d="M9.63009 13.002C10.0826 13.002 10.4494 12.6347 10.4494 12.1816C10.4494 11.7286 10.0826 11.3613 9.63009 11.3613C9.1776 11.3613 8.81079 11.7286 8.81079 12.1816C8.81079 12.6347 9.1776 13.002 9.63009 13.002Z" fill="#523989"/>
<path d="M6.06612 9.43359C6.51861 9.43359 6.88542 9.06633 6.88542 8.61328C6.88542 8.16024 6.51861 7.79297 6.06612 7.79297C5.61364 7.79297 5.24683 8.16024 5.24683 8.61328C5.24683 9.06633 5.61364 9.43359 6.06612 9.43359Z" fill="#523989"/>
<path d="M6.06612 13.002C6.51861 13.002 6.88542 12.6347 6.88542 12.1816C6.88542 11.7286 6.51861 11.3613 6.06612 11.3613C5.61364 11.3613 5.24683 11.7286 5.24683 12.1816C5.24683 12.6347 5.61364 13.002 6.06612 13.002Z" fill="#523989"/>
<path d="M6.06612 16.5703C6.51861 16.5703 6.88542 16.203 6.88542 15.75C6.88542 15.297 6.51861 14.9297 6.06612 14.9297C5.61364 14.9297 5.24683 15.297 5.24683 15.75C5.24683 16.203 5.61364 16.5703 6.06612 16.5703Z" fill="#523989"/>
<path d="M9.63009 16.5703C10.0826 16.5703 10.4494 16.203 10.4494 15.75C10.4494 15.297 10.0826 14.9297 9.63009 14.9297C9.1776 14.9297 8.81079 15.297 8.81079 15.75C8.81079 16.203 9.1776 16.5703 9.63009 16.5703Z" fill="#523989"/>
<path d="M9.63009 9.43359C10.0826 9.43359 10.4494 9.06633 10.4494 8.61328C10.4494 8.16024 10.0826 7.79297 9.63009 7.79297C9.1776 7.79297 8.81079 8.16024 8.81079 8.61328C8.81079 9.06633 9.1776 9.43359 9.63009 9.43359Z" fill="#523989"/>
</svg>
