<svg width="109" height="109" viewBox="0 0 109 109" fill="none" xmlns="http://www.w3.org/2000/svg">
<g clip-path="url(#clip0)">
<path d="M39.7132 60.1348C39.7132 58.7693 38.6057 57.6631 37.2392 57.6631H28.6056C27.2406 57.6631 26.1329 58.7693 26.1329 60.1348V68.7672C26.1329 70.1344 27.2406 71.241 28.6056 71.241H37.2392C38.6057 71.241 39.7132 70.1344 39.7132 68.7672V60.1348Z" fill="#7B5BC4" fill-opacity="0.62"/>
<path d="M61.2896 60.1348C61.2896 58.7693 60.1819 57.6631 58.818 57.6631H50.1833C48.8184 57.6631 47.7106 58.7693 47.7106 60.1348V68.7672C47.7106 70.1344 48.8184 71.241 50.1833 71.241H58.818C60.1819 71.241 61.2896 70.1344 61.2896 68.7672V60.1348Z" fill="#7B5BC4" fill-opacity="0.62"/>
<path d="M82.8671 60.1348C82.8671 58.7693 81.7594 57.6631 80.3944 57.6631H71.7609C70.3943 57.6631 69.2868 58.7693 69.2868 60.1348V68.7672C69.2868 70.1344 70.3943 71.241 71.7609 71.241H80.3944C81.7594 71.241 82.8671 70.1344 82.8671 68.7672V60.1348Z" fill="#7B5BC4" fill-opacity="0.62"/>
<path d="M39.7132 81.7134C39.7132 80.3457 38.6057 79.2404 37.2392 79.2404H28.6056C27.2406 79.2404 26.1329 80.3457 26.1329 81.7134V90.3442C26.1329 91.7106 27.2406 92.817 28.6056 92.817H37.2392C38.6057 92.817 39.7132 91.7103 39.7132 90.3442V81.7134Z" fill="#7B5BC4" fill-opacity="0.62"/>
<path d="M61.2896 81.7134C61.2896 80.3457 60.1819 79.2404 58.818 79.2404H50.1833C48.8184 79.2404 47.7106 80.3457 47.7106 81.7134V90.3442C47.7106 91.7106 48.8184 92.817 50.1833 92.817H58.818C60.1819 92.817 61.2896 91.7103 61.2896 90.3442V81.7134Z" fill="#7B5BC4" fill-opacity="0.62"/>
<path d="M82.8671 81.7134C82.8671 80.3457 81.7594 79.2404 80.3955 79.2404H71.7609C70.3943 79.2404 69.2868 80.3457 69.2868 81.7134V90.3442C69.2868 91.7106 70.3943 92.817 71.7609 92.817H80.3955C81.7594 92.817 82.8671 91.7103 82.8671 90.3442V81.7134Z" fill="#7B5BC4" fill-opacity="0.62"/>
<path d="M98.3048 12.1368V25.3221C98.3048 31.2817 93.4701 36.0843 87.5114 36.0843H80.7026C74.7434 36.0843 69.8446 31.2817 69.8446 25.3221V12.0894H39.1554V25.3221C39.1554 31.2817 34.2569 36.0843 28.2986 36.0843H21.4884C15.5299 36.0843 10.6954 31.2817 10.6954 25.3221V12.1368C5.48761 12.2937 1.20823 16.603 1.20823 21.8997V99.1721C1.20823 104.568 5.58206 109 10.9783 109H98.0217C103.41 109 107.792 104.559 107.792 99.1721V21.8997C107.792 16.603 103.513 12.2937 98.3048 12.1368ZM95.1423 94.3602C95.1423 96.6922 93.2515 98.5842 90.9186 98.5842H17.8954C15.5625 98.5842 13.6717 96.6922 13.6717 94.3602V54.4462C13.6717 52.1132 15.5623 50.2213 17.8954 50.2213H90.9184C93.2513 50.2213 95.1421 52.1132 95.1421 54.4462L95.1423 94.3602Z" fill="#7B5BC4" fill-opacity="0.62"/>
<path d="M21.4645 29.0156H28.1994C30.2437 29.0156 31.9011 27.3605 31.9011 25.3163V3.7006C31.9011 1.65615 30.2437 0 28.1994 0H21.4645C19.4201 0 17.7628 1.65615 17.7628 3.7006V25.3163C17.7628 27.3605 19.4201 29.0156 21.4645 29.0156Z" fill="#7B5BC4" fill-opacity="0.62"/>
<path d="M80.6159 29.0156H87.3508C89.3937 29.0156 91.0512 27.3605 91.0512 25.3163V3.7006C91.0514 1.65615 89.3939 0 87.3508 0H80.6159C78.5719 0 76.9144 1.65615 76.9144 3.7006V25.3163C76.9144 27.3605 78.5719 29.0156 80.6159 29.0156Z" fill="#7B5BC4" fill-opacity="0.62"/>
</g>
<defs>
<clipPath id="clip0">
<rect width="109" height="109" fill="white"/>
</clipPath>
</defs>
</svg>
