<svg xmlns="http://www.w3.org/2000/svg" width="14" height="16" viewBox="0 0 14 16"><defs><style>.a,.b{fill:#7b5bc4;}.b{opacity:0.703;}</style></defs><g transform="translate(0.061)"><path class="a" d="M4.5,14C2.019,14,0,13.546,0,12.988V1.013C0,.454,2.019,0,4.5,0S9,.454,9,1.013V12.988C9,13.546,6.981,14,4.5,14ZM2.97,1.077a.09.09,0,1,0,0,.179H6.39a.09.09,0,1,0,0-.179Z" transform="translate(4.939 2)"/><path class="b" d="M4,12c-2.205,0-4-.389-4-.867V.868C0,.389,1.794,0,4,0S8,.389,8,.868V1.5a11.318,11.318,0,0,0-2.67.4c-.693.212-1.075.483-1.075.762V12C4.166,12,4.08,12,4,12ZM2.805.658a.082.082,0,0,0,0,.164H5.364A.082.082,0,0,0,5.447.74.081.081,0,0,0,5.364.658Z" transform="translate(-0.061)"/></g></svg>