<svg width="26" height="23" viewBox="0 0 26 23" fill="none" xmlns="http://www.w3.org/2000/svg">
<path d="M0.812563 23H19.5015C19.717 23 19.9237 22.9134 20.0761 22.7593C20.2285 22.6052 20.3141 22.3961 20.3141 22.1782V19.0675L20.8666 19.2566C20.9499 19.2875 21.038 19.3028 21.1266 19.3018C21.2941 19.3014 21.4574 19.2487 21.5941 19.1509C21.7308 19.053 21.8343 18.9149 21.8904 18.7552L25.9533 7.24964C25.989 7.14782 26.0045 7.03989 25.9989 6.93201C25.9933 6.82413 25.9668 6.71843 25.9208 6.62094C25.8257 6.42778 25.6593 6.28019 25.4576 6.21002L7.98749 0.0462995C7.78593 -0.0251877 7.56464 -0.0135283 7.37151 0.0787545C7.17838 0.171037 7.02894 0.336521 6.95554 0.539397L3.84342 9.0289H0.812563C0.597058 9.0289 0.390379 9.11548 0.237994 9.2696C0.0856091 9.42373 0 9.63276 0 9.85073L0 22.1782C0 22.3961 0.0856091 22.6052 0.237994 22.7593C0.390379 22.9134 0.597058 23 0.812563 23ZM20.631 17.4403L20.3141 17.3335V10.2616L22.8533 11.1574L20.631 17.4403ZM8.20282 1.85432L24.1494 7.47564L23.3978 9.60007L7.43089 3.96643L8.20282 1.85432ZM6.86616 5.50736L16.8444 9.0289H5.57824L6.86616 5.50736ZM1.62513 10.6726H18.6889V21.3563H1.62513V10.6726ZM7.71935 13.549C7.71935 13.7669 7.63374 13.976 7.48135 14.1301C7.32897 14.2842 7.12229 14.3708 6.90679 14.3708H4.4691C4.25359 14.3708 4.04691 14.2842 3.89453 14.1301C3.74214 13.976 3.65653 13.7669 3.65653 13.549C3.65653 13.331 3.74214 13.122 3.89453 12.9678C4.04691 12.8137 4.25359 12.7271 4.4691 12.7271H6.90679C7.12229 12.7271 7.32897 12.8137 7.48135 12.9678C7.63374 13.122 7.71935 13.331 7.71935 13.549Z" fill="black"/>
</svg>
