<svg width="30" height="20" viewBox="0 0 30 20" fill="none" xmlns="http://www.w3.org/2000/svg">
<g clip-path="url(#clip0)">
<path d="M20.825 4.97559H2.18375C1.6069 4.98304 1.05577 5.21551 0.647841 5.62344C0.239912 6.03136 0.00744834 6.5825 0 7.15935V17.7844C0.00314153 18.3656 0.233213 18.9226 0.641156 19.3366C1.0491 19.7506 1.60264 19.9889 2.18375 20.0006H20.825C21.4061 19.9889 21.9596 19.7506 22.3676 19.3366C22.7755 18.9226 23.0056 18.3656 23.0087 17.7844V7.15935C23.0016 6.5824 22.7692 6.03109 22.3612 5.62309C21.9532 5.2151 21.402 4.98271 20.825 4.97559ZM11.825 14.0044C11.9719 14.0044 12.1127 14.0626 12.2166 14.1665C12.3204 14.2704 12.3787 14.4112 12.3787 14.5581C12.3787 14.705 12.3204 14.8457 12.2166 14.9496C12.1127 15.0535 11.9719 15.1119 11.825 15.1119H3.09625C2.94939 15.1119 2.80854 15.0535 2.70469 14.9496C2.60084 14.8457 2.5425 14.705 2.5425 14.5581C2.5425 14.4112 2.60084 14.2704 2.70469 14.1665C2.80854 14.0626 2.94939 14.0044 3.09625 14.0044H11.825ZM4.95 11.6893V10.7119C4.95 10.5648 5.00841 10.4238 5.11238 10.3198C5.21634 10.2159 5.35735 10.1575 5.50438 10.1575C5.6514 10.1575 5.79241 10.2159 5.89638 10.3198C6.00034 10.4238 6.05875 10.5648 6.05875 10.7119V11.6893C6.05875 11.8364 6.00034 11.9774 5.89638 12.0813C5.79241 12.1853 5.6514 12.2437 5.50438 12.2437C5.35735 12.2437 5.21634 12.1853 5.11238 12.0813C5.00841 11.9774 4.95 11.8364 4.95 11.6893ZM7.39375 11.6893V10.7119C7.39375 10.565 7.45209 10.4241 7.55594 10.3203C7.65979 10.2164 7.80064 10.1581 7.9475 10.1581C8.09436 10.1581 8.23521 10.2164 8.33906 10.3203C8.44291 10.4241 8.50125 10.565 8.50125 10.7119V11.6893C8.50125 11.8362 8.44291 11.9771 8.33906 12.0809C8.23521 12.1848 8.09436 12.2431 7.9475 12.2431C7.80064 12.2431 7.65979 12.1848 7.55594 12.0809C7.45209 11.9771 7.39375 11.8362 7.39375 11.6893ZM9.8375 11.6893V10.7119C9.8375 10.565 9.89584 10.4241 9.99969 10.3203C10.1035 10.2164 10.2444 10.1581 10.3912 10.1581C10.5381 10.1581 10.679 10.2164 10.7828 10.3203C10.8867 10.4241 10.945 10.565 10.945 10.7119V11.6893C10.945 11.8362 10.8867 11.9771 10.7828 12.0809C10.679 12.1848 10.5381 12.2431 10.3912 12.2431C10.2444 12.2431 10.1035 12.1848 9.99969 12.0809C9.89584 11.9771 9.8375 11.8362 9.8375 11.6893ZM12.2825 11.6893V10.7119C12.2825 10.5648 12.3409 10.4238 12.4449 10.3198C12.5489 10.2159 12.6899 10.1575 12.8369 10.1575C12.9839 10.1575 13.1249 10.2159 13.2289 10.3198C13.3329 10.4238 13.3913 10.5648 13.3913 10.7119V11.6893C13.3913 11.8364 13.3329 11.9774 13.2289 12.0813C13.1249 12.1853 12.9839 12.2437 12.8369 12.2437C12.6899 12.2437 12.5489 12.1853 12.4449 12.0813C12.3409 11.9774 12.2825 11.8364 12.2825 11.6893ZM8.8275 16.8394C8.8275 16.9863 8.76916 17.1271 8.66531 17.2309C8.56146 17.3348 8.42061 17.3931 8.27375 17.3931H3.09625C2.94939 17.3931 2.80854 17.3348 2.70469 17.2309C2.60084 17.1271 2.5425 16.9863 2.5425 16.8394C2.5425 16.6925 2.60084 16.5516 2.70469 16.4478C2.80854 16.344 2.94939 16.2856 3.09625 16.2856H8.27875C8.42561 16.2856 8.56646 16.344 8.67031 16.4478C8.77416 16.5516 8.8325 16.6925 8.8325 16.8394H8.8275ZM3.6125 11.6893C3.6125 11.8364 3.55409 11.9774 3.45012 12.0813C3.34616 12.1853 3.20515 12.2437 3.05813 12.2437C2.9111 12.2437 2.77009 12.1853 2.66612 12.0813C2.56216 11.9774 2.50375 11.8364 2.50375 11.6893V10.7119C2.50375 10.5648 2.56216 10.4238 2.66612 10.3198C2.77009 10.2159 2.9111 10.1575 3.05813 10.1575C3.20515 10.1575 3.34616 10.2159 3.45012 10.3198C3.55409 10.4238 3.6125 10.5648 3.6125 10.7119V11.6893ZM17.8287 14.4531C18.0709 14.2302 18.3726 14.0828 18.6971 14.0286C19.0216 13.9745 19.3549 14.0161 19.6563 14.1482C19.9575 14.2805 20.2138 14.4975 20.3938 14.773C20.5738 15.0484 20.6695 15.3704 20.6695 15.6994C20.6695 16.0284 20.5738 16.3502 20.3938 16.6257C20.2138 16.9011 19.9575 17.1182 19.6563 17.2504C19.3549 17.3826 19.0216 17.4241 18.6971 17.37C18.3726 17.3159 18.0709 17.1684 17.8287 16.9456C17.5165 17.2336 17.1072 17.3934 16.6825 17.3931C16.4601 17.3931 16.2399 17.3493 16.0344 17.2641C15.8289 17.179 15.6421 17.0543 15.4849 16.897C15.3275 16.7398 15.2027 16.553 15.1176 16.3475C15.0325 16.142 14.9888 15.9217 14.9888 15.6994C14.9888 15.4769 15.0325 15.2566 15.1176 15.0511C15.2027 14.8456 15.3275 14.659 15.4849 14.5016C15.6421 14.3444 15.8289 14.2196 16.0344 14.1345C16.2399 14.0494 16.4601 14.0056 16.6825 14.0056C17.1072 14.0051 17.5166 14.165 17.8287 14.4531ZM17.1713 11.6893V10.7119C17.1713 10.565 17.2296 10.4241 17.3335 10.3203C17.4373 10.2164 17.5781 10.1581 17.725 10.1581C17.8719 10.1581 18.0128 10.2164 18.1165 10.3203C18.2204 10.4241 18.2788 10.565 18.2788 10.7119V11.6893C18.2788 11.8362 18.2204 11.9771 18.1165 12.0809C18.0128 12.1848 17.8719 12.2431 17.725 12.2431C17.5781 12.2431 17.4373 12.1848 17.3335 12.0809C17.2296 11.9771 17.1713 11.8362 17.1713 11.6893ZM15.8362 11.6893C15.8362 11.8364 15.7779 11.9774 15.6739 12.0813C15.5699 12.1853 15.4289 12.2437 15.2819 12.2437C15.1349 12.2437 14.9939 12.1853 14.8899 12.0813C14.7859 11.9774 14.7275 11.8364 14.7275 11.6893V10.7119C14.7275 10.5648 14.7859 10.4238 14.8899 10.3198C14.9939 10.2159 15.1349 10.1575 15.2819 10.1575C15.4289 10.1575 15.5699 10.2159 15.6739 10.3198C15.7779 10.4238 15.8362 10.5648 15.8362 10.7119V11.6893ZM20.7575 11.6893C20.7575 11.8364 20.6991 11.9774 20.5951 12.0813C20.4911 12.1853 20.3501 12.2437 20.2031 12.2437C20.0561 12.2437 19.9151 12.1853 19.8111 12.0813C19.7071 11.9774 19.6487 11.8364 19.6487 11.6893V10.7119C19.6487 10.5648 19.7071 10.4238 19.8111 10.3198C19.9151 10.2159 20.0561 10.1575 20.2031 10.1575C20.3501 10.1575 20.4911 10.2159 20.5951 10.3198C20.6991 10.4238 20.7575 10.5648 20.7575 10.7119V11.6893Z" fill="#7B5BC4"/>
<path d="M5.70361 0V3.80875H20.7836H20.8111C21.6738 3.74484 22.5289 4.00814 23.2061 4.54625C23.5461 4.8977 23.8074 5.31765 23.9723 5.77807C24.1373 6.2385 24.202 6.7288 24.1624 7.21625C24.1786 13.9662 24.1811 14.5537 24.1811 14.5537H29.6561C29.6561 3.35 29.6561 0 29.6561 0H5.70361Z" fill="#7B5BC4"/>
</g>
<defs>
<clipPath id="clip0">
<rect width="30" height="20" fill="white"/>
</clipPath>
</defs>
</svg>
