<svg xmlns="http://www.w3.org/2000/svg" width="73.426" height="41.302" viewBox="0 0 73.426 41.302">
  <path id="Icon_metro-dollar" data-name="Icon metro-dollar" d="M2.571,49.978V8.676H76v41.3H2.571ZM7.16,13.123V45.389H71.408V13.123H7.16Zm43.6,16.2c0-7.6-5.135-13.767-11.473-13.767H69.113V43.095H39.284c6.338,0,11.473-6.166,11.473-13.767Zm9.178,4.589c1.9,0,3.442-2.056,3.442-4.589s-1.542-4.589-3.442-4.589-3.442,2.056-3.442,4.589S58.035,33.916,59.935,33.916ZM44.144,23.54a.585.585,0,0,1-.142.273.352.352,0,0,1-.25.085,1.2,1.2,0,0,1-.5-.2c-.229-.135-.512-.278-.844-.434a8.461,8.461,0,0,0-1.161-.429,5.154,5.154,0,0,0-1.448-.19,3.434,3.434,0,0,0-1.076.149,2.222,2.222,0,0,0-.766.413,1.651,1.651,0,0,0-.459.636,2.094,2.094,0,0,0-.149.785,1.733,1.733,0,0,0,.337,1.069,3.232,3.232,0,0,0,.9.8,9.31,9.31,0,0,0,1.285.659c.475.207.964.424,1.462.652a14.708,14.708,0,0,1,1.462.782,5.818,5.818,0,0,1,1.278,1.046,4.953,4.953,0,0,1,.9,1.432,5.021,5.021,0,0,1,.342,1.944,5.736,5.736,0,0,1-.542,2.565,5.31,5.31,0,0,1-1.48,1.84,6.407,6.407,0,0,1-2.178,1.111c-.106.032-.22.046-.328.071V41.11H38.536V38.9c-.03,0-.055,0-.083,0a9.673,9.673,0,0,1-1.785-.154,10.651,10.651,0,0,1-1.455-.376,6.38,6.38,0,0,1-1.053-.461,2.962,2.962,0,0,1-.608-.427,1.077,1.077,0,0,1-.266-.537,4.9,4.9,0,0,1-.08-1.012c0-.3.009-.544.03-.746a2.223,2.223,0,0,1,.094-.489.522.522,0,0,1,.172-.266.421.421,0,0,1,.25-.078,1.193,1.193,0,0,1,.567.236,9.793,9.793,0,0,0,.938.523,8.582,8.582,0,0,0,1.37.525,6.543,6.543,0,0,0,1.843.236,4.237,4.237,0,0,0,1.232-.165,2.737,2.737,0,0,0,.925-.466,2.011,2.011,0,0,0,.581-.746,2.366,2.366,0,0,0,.2-.994,1.755,1.755,0,0,0-.344-1.083,3.444,3.444,0,0,0-.9-.8,9.358,9.358,0,0,0-1.253-.659q-.7-.31-1.448-.652a12.983,12.983,0,0,1-1.448-.782,5.832,5.832,0,0,1-1.253-1.044,4.918,4.918,0,0,1-.895-1.441,5.193,5.193,0,0,1-.344-1.992,5.278,5.278,0,0,1,.493-2.343,4.8,4.8,0,0,1,1.333-1.675,5.715,5.715,0,0,1,1.978-1,8.041,8.041,0,0,1,1.207-.25V17.418h2.256v2.373c.089.011.179.007.268.021a8.939,8.939,0,0,1,1.232.271,6.584,6.584,0,0,1,1.019.383,2.353,2.353,0,0,1,.587.356,1.086,1.086,0,0,1,.2.241,1.3,1.3,0,0,1,.085.266,2.561,2.561,0,0,1,.048.418c.009.165.014.374.014.622,0,.278-.007.514-.021.707a3.206,3.206,0,0,1-.078.466ZM27.811,29.327c0,7.6,5.135,13.767,11.473,13.767H9.454V15.56H39.284c-6.338,0-11.473,6.166-11.473,13.767Zm-9.178-4.589c-1.9,0-3.442,2.056-3.442,4.589s1.54,4.589,3.442,4.589,3.442-2.056,3.442-4.589S20.533,24.738,18.633,24.738Z" transform="translate(-2.571 -8.676)" fill="#7a5bc3"/>
</svg>
