<svg width="46" height="31" viewBox="0 0 46 31" fill="none" xmlns="http://www.w3.org/2000/svg">
<path d="M45.0416 11.5H0.958362C0.383363 11.5 0 11.8834 0 12.4584V25.875C0 28.5583 2.10836 30.6666 4.79163 30.6666H41.2082C43.8916 30.6666 45.9998 28.5582 45.9998 25.875V12.4584C45.9999 11.8834 45.6166 11.5 45.0416 11.5ZM6.70835 19.1667H14.375C14.95 19.1667 15.3333 19.5501 15.3333 20.1251C15.3333 20.7001 14.95 21.0834 14.375 21.0834H6.70835C6.13335 21.0833 5.74999 20.7 5.74999 20.125C5.74999 19.55 6.13335 19.1667 6.70835 19.1667ZM20.125 24.9167H6.70835C6.13335 24.9167 5.74999 24.5333 5.74999 23.9583C5.74999 23.3833 6.13335 23 6.70835 23H20.125C20.7 23 21.0833 23.3833 21.0833 23.9583C21.0833 24.5333 20.7 24.9167 20.125 24.9167ZM36.4166 24.9167C35.6499 24.9167 35.0749 24.7251 34.4999 24.3417C33.9249 24.7251 33.3499 24.9167 32.5833 24.9167C30.4749 24.9167 28.75 23.1917 28.75 21.0833C28.75 18.975 30.4749 17.25 32.5833 17.25C33.3499 17.25 33.9249 17.4416 34.4999 17.825C35.0749 17.4416 35.6499 17.25 36.4166 17.25C38.5249 17.25 40.2499 18.975 40.2499 21.0833C40.2499 23.1917 38.5249 24.9167 36.4166 24.9167Z" fill="#6E56A4"/>
<path d="M41.2083 0H4.79163C2.10836 0 0 2.10836 0 4.79172V6.70835C0 7.28335 0.383363 7.66671 0.958361 7.66671H45.0416C45.6166 7.66671 46 7.28335 46 6.70835V4.79172C45.9999 2.10836 43.8916 0 41.2083 0Z" fill="#6E56A4"/>
</svg>
