<svg xmlns="http://www.w3.org/2000/svg" xmlns:xlink="http://www.w3.org/1999/xlink" width="34.554" height="24.5" viewBox="0 0 34.554 24.5">
  <defs>
    <clipPath id="clip-path">
      <rect id="Rectangle_3497" data-name="Rectangle 3497" width="34.554" height="24.5" fill="#6d56a4"/>
    </clipPath>
  </defs>
  <g id="Group_1037" data-name="Group 1037" transform="translate(0 0)">
    <g id="Group_1036" data-name="Group 1036" transform="translate(0 0)" clip-path="url(#clip-path)">
      <path id="Path_1519" data-name="Path 1519" d="M7.739,24.5a2.208,2.208,0,0,1-2.2-2.047H29.582a2.927,2.927,0,0,0,2.925-2.922V5.536a2.208,2.208,0,0,1,2.047,2.2V22.3a2.207,2.207,0,0,1-2.207,2.2ZM4.973,21.735a2.21,2.21,0,0,1-2.2-2.049H26.816a2.927,2.927,0,0,0,2.925-2.922V2.772a2.207,2.207,0,0,1,2.047,2.2V19.53a2.208,2.208,0,0,1-2.207,2.2ZM2.207,18.969A2.209,2.209,0,0,1,0,16.764V2.2A2.209,2.209,0,0,1,2.207,0H26.816a2.208,2.208,0,0,1,2.207,2.2V16.764a2.208,2.208,0,0,1-2.207,2.2ZM21.28,13.911a1.825,1.825,0,0,0,.629.389,2.155,2.155,0,0,0,.731.121,2.254,2.254,0,0,0,.6-.08,1.469,1.469,0,0,0,.5-.246,1.207,1.207,0,0,0,.34-.417,1.314,1.314,0,0,0,.125-.589,1.037,1.037,0,0,0-.136-.566,1.089,1.089,0,0,0-.347-.337,1.863,1.863,0,0,0-.448-.194c-.166-.048-.313-.093-.449-.138a1.283,1.283,0,0,1-.345-.166.356.356,0,0,1-.08-.473.424.424,0,0,1,.149-.129.8.8,0,0,1,.194-.072.966.966,0,0,1,.2-.022,1.036,1.036,0,0,1,.351.066.641.641,0,0,1,.295.2l.61-.668a1.537,1.537,0,0,0-.577-.326,2.3,2.3,0,0,0-.662-.1,2.062,2.062,0,0,0-.577.083,1.489,1.489,0,0,0-.494.248,1.241,1.241,0,0,0-.342.411,1.221,1.221,0,0,0-.129.571.956.956,0,0,0,.14.542,1.114,1.114,0,0,0,.351.331,2.059,2.059,0,0,0,.456.2c.154.046.309.1.457.147a1.262,1.262,0,0,1,.351.181.342.342,0,0,1,.14.288.331.331,0,0,1-.055.188.416.416,0,0,1-.143.132.717.717,0,0,1-.2.077.965.965,0,0,1-.22.025,1,1,0,0,1-.431-.1.914.914,0,0,1-.345-.283ZM6.5,10.32a2.036,2.036,0,0,0-.692.425,1.95,1.95,0,0,0-.453.671,2.451,2.451,0,0,0,0,1.758,1.924,1.924,0,0,0,.453.671,1.994,1.994,0,0,0,.692.425,2.5,2.5,0,0,0,.873.149,2.017,2.017,0,0,0,.811-.171,1.551,1.551,0,0,0,.651-.53l-.742-.553a.961.961,0,0,1-.348.319,1.011,1.011,0,0,1-.486.115,1.051,1.051,0,0,1-.448-.1,1.078,1.078,0,0,1-.363-.271,1.3,1.3,0,0,1-.243-.411,1.577,1.577,0,0,1,0-1.041,1.3,1.3,0,0,1,.246-.415,1.111,1.111,0,0,1,.836-.368,1.091,1.091,0,0,1,.443.086.9.9,0,0,1,.323.246l.685-.56a1.4,1.4,0,0,0-.3-.279,1.636,1.636,0,0,0-.347-.182,1.926,1.926,0,0,0-.365-.1,2.335,2.335,0,0,0-.356-.031,2.5,2.5,0,0,0-.874.149m10.752,4H18.7a2.846,2.846,0,0,0,.862-.132,2.232,2.232,0,0,0,.726-.386,1.857,1.857,0,0,0,.5-.627,1.945,1.945,0,0,0,.187-.866,2.134,2.134,0,0,0-.192-.942,1.734,1.734,0,0,0-.516-.631,2.156,2.156,0,0,0-.762-.351,3.855,3.855,0,0,0-.923-.108H17.248ZM14.439,12.7h.441l.845,1.617h1.068L15.763,12.61a1,1,0,0,0,.651-.38,1.2,1.2,0,0,0,.223-.728,1.285,1.285,0,0,0-.122-.591,1,1,0,0,0-.333-.376,1.385,1.385,0,0,0-.484-.2,2.827,2.827,0,0,0-.585-.06H13.548v4.044h.891Zm-4.22.759h1.57l.348.857h1l-1.758-4.044h-.737L8.9,14.318h.982ZM3.431,4.888a2.03,2.03,0,0,0-.69.425,1.931,1.931,0,0,0-.453.671,2.454,2.454,0,0,0,0,1.76,1.931,1.931,0,0,0,.453.671,2.03,2.03,0,0,0,.69.425,2.51,2.51,0,0,0,.874.147,2.016,2.016,0,0,0,.811-.17,1.573,1.573,0,0,0,.651-.532l-.742-.554a.963.963,0,0,1-.348.32.994.994,0,0,1-.486.114,1.031,1.031,0,0,1-.449-.1A1.105,1.105,0,0,1,3.381,7.8a1.31,1.31,0,0,1-.243-.411,1.581,1.581,0,0,1,0-1.043,1.3,1.3,0,0,1,.246-.414,1.111,1.111,0,0,1,.836-.368,1.091,1.091,0,0,1,.443.086c.06.024.122.045.184.063a1.1,1.1,0,0,1,.417.182l.407-.56a1.371,1.371,0,0,0-.3-.279,1.662,1.662,0,0,0-.345-.184,1.923,1.923,0,0,0-.365-.1,2.174,2.174,0,0,0-.358-.031A2.512,2.512,0,0,0,3.431,4.888ZM23.24,4.843,24.759,7.16V8.886h.891V7.161l1.518-2.318H26.111L25.2,6.356l-.856-1.513H23.24Zm-3.4.787h1.154V8.886h.891V5.63h1.154V4.843h-3.2Zm-1.33,3.254H19.4V4.843h-.891Zm-2.8-1.615h.439l.846,1.617h1.067L17.033,7.178a1.009,1.009,0,0,0,.651-.38,1.2,1.2,0,0,0,.223-.728,1.268,1.268,0,0,0-.123-.591.983.983,0,0,0-.331-.376,1.385,1.385,0,0,0-.484-.2,2.746,2.746,0,0,0-.587-.059H14.818V8.886h.891Zm-4.22.759h1.57l.348.857h1L12.654,4.843h-.737L10.17,8.886h.982ZM7.143,7.137H8.875V8.886h.891V4.843H8.873V6.35H7.143V4.843h-.89V8.886h.89Zm11,6.357V11.1h.526a2.018,2.018,0,0,1,.533.072,1.341,1.341,0,0,1,.443.215,1.036,1.036,0,0,1,.3.362,1.16,1.16,0,0,1,.112.518,1.369,1.369,0,0,1-.112.58,1,1,0,0,1-.306.382,1.208,1.208,0,0,1-.459.209,2.465,2.465,0,0,1-.574.063Zm-6.653-.787H10.5l.491-1.256Zm2.953-.759v-.919h.582a1.79,1.79,0,0,1,.246.017.66.66,0,0,1,.223.066.413.413,0,0,1,.16.139.435.435,0,0,1,.063.246.415.415,0,0,1-.072.257.426.426,0,0,1-.18.135.806.806,0,0,1-.243.051c-.087.007-.173.01-.255.01ZM12.756,7.275h-.988l.491-1.256Zm2.953-.759V5.6h.582a1.79,1.79,0,0,1,.246.017.73.73,0,0,1,.223.066.423.423,0,0,1-.028.776.808.808,0,0,1-.244.052q-.141.008-.253.008Z" transform="translate(0 0.001)" fill="#6d56a4"/>
    </g>
  </g>
</svg>
