<svg width="70" height="51" viewBox="0 0 70 51" fill="none" xmlns="http://www.w3.org/2000/svg">
<g clip-path="url(#clip0)">
<path d="M67.1231 5.23996C67.3429 4.82434 67.4783 4.36935 67.5215 3.90118C67.5647 3.43302 67.5149 2.96093 67.3749 2.51209C67.235 2.06326 67.0076 1.64655 66.7059 1.28594C66.4042 0.925342 66.0341 0.627975 65.6171 0.410963C64.7704 -0.0294814 63.7847 -0.120355 62.8718 0.157856C61.9588 0.436066 61.1913 1.06118 60.7341 1.89896L59.0471 5.06396L65.4391 8.39896L67.1231 5.23996Z" fill="#B6A9D3"/>
<path d="M49.301 28.3678L49.868 30.1818L52.44 29.7818L53.156 31.4098L64.937 9.32577L58.545 5.98877L46.677 28.2298L49.301 28.3678Z" fill="#B6A9D3"/>
<path d="M68.673 13.0659H64.025L54.158 31.5479H66.293V32.9479H52.931L45.431 38.1479L45.599 32.9479H3.7V31.5479H45.645L45.731 28.8699L45.883 28.0039L48.366 23.3529H16.926V17.7729H51.344L53.857 13.0649H1.322C0.973386 13.0641 0.638631 13.2014 0.390908 13.4467C0.143185 13.692 0.0026421 14.0253 0 14.3739L0 48.8969C0.00290569 49.2453 0.143597 49.5783 0.39132 49.8232C0.639043 50.0681 0.97365 50.205 1.322 50.2039H68.673C69.0213 50.205 69.356 50.0681 69.6037 49.8232C69.8514 49.5783 69.9921 49.2453 69.995 48.8969V14.3739C69.9921 14.0255 69.8514 13.6924 69.6037 13.4473C69.356 13.2022 69.0214 13.0651 68.673 13.0659V13.0659ZM66.116 47.9379H38.964V46.5379H66.116V47.9379ZM45.545 43.4159C46.0656 42.6308 46.8142 42.0239 47.69 41.6769C48.106 41.5049 48.427 42.1259 48.114 42.4059C47.498 42.9653 46.8613 43.4986 46.204 44.0059C46.0324 44.2573 45.9234 44.546 45.886 44.8479C45.898 45.3119 46.77 45.0599 46.97 45.0039C48.1066 44.6865 49.1226 44.0371 49.888 43.139C49.9572 43.0732 50.0459 43.0315 50.1407 43.0203C50.2355 43.009 50.3315 43.0286 50.4142 43.0763C50.497 43.124 50.5621 43.1971 50.5999 43.2848C50.6377 43.3725 50.6462 43.4701 50.624 43.5629C50.571 43.7199 50.518 43.8809 50.464 44.0349C50.5736 43.9612 50.6591 43.8569 50.71 43.7349C50.7552 43.662 50.8205 43.6037 50.8981 43.5669C50.9756 43.5302 51.0621 43.5166 51.1472 43.5278C51.2323 43.5389 51.3124 43.5744 51.3778 43.63C51.4432 43.6855 51.4912 43.7588 51.516 43.8409C51.5448 44.0335 51.619 44.2164 51.7324 44.3745C51.8459 44.5327 51.9954 44.6617 52.1685 44.7507C52.3416 44.8397 52.5334 44.8862 52.7281 44.8864C52.9228 44.8866 53.1147 44.8405 53.288 44.7519C53.4709 44.5921 53.7044 44.5021 53.9473 44.4979C54.1902 44.4937 54.4267 44.5755 54.615 44.7289C55.545 45.4289 56.301 44.4589 57.103 44.0719C57.5998 43.7915 58.1811 43.6999 58.74 43.8139C59.296 43.9319 59.058 44.7689 58.506 44.6539C57.5 44.4419 56.539 45.6089 55.578 45.8419C54.758 46.0419 54.24 45.3669 53.456 45.6419C52.9979 45.7965 52.5014 45.7939 52.045 45.6345C51.5885 45.4751 51.1983 45.168 50.936 44.7619C50.5708 44.9839 50.1329 45.0532 49.717 44.9549C49.6614 44.9423 49.6092 44.9179 49.5639 44.8834C49.5185 44.8489 49.4811 44.8051 49.454 44.7549C49.0012 45.1032 48.5012 45.3853 47.969 45.5929C47.169 45.9029 46.014 46.3359 45.274 45.6989C45.1665 45.5977 45.0846 45.4724 45.0349 45.3333C44.9852 45.1942 44.9691 45.0454 44.988 44.8989C44.4667 45.2663 43.9363 45.6199 43.397 45.9599C43.3132 46.0059 43.2167 46.0234 43.122 46.0098C43.0274 45.9963 42.9397 45.9524 42.8721 45.8848C42.8045 45.8172 42.7606 45.7295 42.7471 45.6349C42.7336 45.5403 42.7511 45.4438 42.797 45.3599C43.5842 43.7599 44.2417 42.0992 44.763 40.3939C44.939 39.8639 45.791 40.0939 45.612 40.6249C45.193 41.8889 44.763 43.1459 44.233 44.3659C44.6777 44.0599 45.115 43.7433 45.545 43.4159ZM66.116 39.5789H3.526V38.1789H66.116V39.5789Z" fill="#B6A9D3"/>
</g>
<defs>
<clipPath id="clip0">
<rect width="69.995" height="50.204" fill="white"/>
</clipPath>
</defs>
</svg>
