<svg xmlns="http://www.w3.org/2000/svg" width="69.995" height="50.204" viewBox="0 0 69.995 50.204">
  <g id="Layer_2" data-name="Layer 2" transform="translate(0 -0.001)">
    <g id="Layer_5" data-name="Layer 5" transform="translate(0 0.001)">
      <rect id="Rectangle_58" data-name="Rectangle 58" width="27.152" height="1.395" transform="translate(38.964 46.543)" fill="none"/>
      <path id="Path_43" data-name="Path 43" d="M404.874,378.18a32.941,32.941,0,0,1-1.966,4.966.442.442,0,0,0,.6.6q.815-.506,1.591-1.061a.935.935,0,0,0,.286.8c.743.628,1.892.2,2.695-.106a6.033,6.033,0,0,0,1.485-.838.4.4,0,0,0,.263.2,1.627,1.627,0,0,0,1.219-.193,2.173,2.173,0,0,0,2.52.88c.787-.274,1.3.4,2.122.2.961-.237,1.922-1.4,2.928-1.188.555.118.79-.723.234-.84a2.368,2.368,0,0,0-1.637.258c-.8.387-1.557,1.36-2.488.657a1.029,1.029,0,0,0-1.327.023,1.228,1.228,0,0,1-1.772-.911.448.448,0,0,0-.806-.106.674.674,0,0,1-.246.3c.053-.158.106-.318.16-.472a.443.443,0,0,0-.736-.424,5.93,5.93,0,0,1-2.918,1.865c-.2.056-1.073.308-1.084-.156a1.813,1.813,0,0,1,.318-.842q.984-.766,1.91-1.6c.309-.28-.013-.9-.424-.729a4.612,4.612,0,0,0-2.145,1.739q-.643.494-1.313.955c.53-1.22.955-2.477,1.379-3.741C405.9,377.875,405.05,377.648,404.874,378.18Z" transform="translate(-360.116 -337.785)" fill="none"/>
      <rect id="Rectangle_59" data-name="Rectangle 59" width="62.59" height="1.395" transform="translate(3.526 38.174)" fill="none"/>
      <path id="Path_44" data-name="Path 44" d="M564.606,5.241A3.565,3.565,0,0,0,563.1.412,3.646,3.646,0,0,0,558.217,1.9L556.53,5.065,562.922,8.4Z" transform="translate(-497.483 -0.001)" fill="#7a5bc3"/>
      <path id="Path_45" data-name="Path 45" d="M442.564,78.829l.567,1.814,2.572-.4.716,1.628L458.2,59.787l-6.392-3.337L439.94,78.691Z" transform="translate(-393.263 -50.461)" fill="#7a5bc3"/>
      <path id="Path_46" data-name="Path 46" d="M68.673,123.15H64.025l-9.867,18.482H66.293v1.4H52.931l-7.5,5.2.168-5.2H3.7v-1.4H45.645l.086-2.678.152-.866,2.483-4.651H16.926v-5.58H51.344l2.513-4.708H1.322A1.319,1.319,0,0,0,0,124.458v34.523a1.318,1.318,0,0,0,1.322,1.307H68.673a1.318,1.318,0,0,0,1.322-1.307V124.458A1.319,1.319,0,0,0,68.673,123.15Zm-2.557,34.872H38.964v-1.4H66.116ZM45.545,153.5a4.612,4.612,0,0,1,2.145-1.739c.416-.172.737.449.424.729q-.924.839-1.91,1.6a1.91,1.91,0,0,0-.318.842c.012.464.884.212,1.084.156a5.93,5.93,0,0,0,2.918-1.865.443.443,0,0,1,.736.424c-.053.157-.106.318-.16.472a.675.675,0,0,0,.246-.3.446.446,0,0,1,.806.106,1.227,1.227,0,0,0,1.772.911,1.029,1.029,0,0,1,1.327-.023c.93.7,1.686-.27,2.488-.657a2.367,2.367,0,0,1,1.637-.258c.556.118.318.955-.234.84-1.006-.212-1.967.955-2.928,1.188-.82.2-1.338-.475-2.122-.2a2.173,2.173,0,0,1-2.52-.88,1.627,1.627,0,0,1-1.219.193.4.4,0,0,1-.263-.2,6.035,6.035,0,0,1-1.485.838c-.8.31-1.955.743-2.695.106a.935.935,0,0,1-.286-.8q-.782.551-1.591,1.061a.442.442,0,0,1-.6-.6,33.3,33.3,0,0,0,1.966-4.966c.176-.53,1.028-.3.849.231-.419,1.264-.849,2.521-1.379,3.741Q44.9,153.991,45.545,153.5Zm20.571-3.837H3.526v-1.4h62.59Z" transform="translate(0 -110.084)" fill="#7a5bc3"/>
    </g>
  </g>
</svg>
