<svg xmlns="http://www.w3.org/2000/svg" width="45.001" height="52" viewBox="0 0 45.001 52">
  <g id="Group_30" data-name="Group 30" transform="translate(0.34)">
    <path id="Subtraction_4" data-name="Subtraction 4" d="M14.5,45C6.5,45,0,43.541,0,41.747V3.253C0,1.46,6.5,0,14.5,0S29,1.46,29,3.253V41.747C29,43.541,22.5,45,14.5,45ZM9.569,3.461a.288.288,0,1,0,0,.577H20.592a.288.288,0,0,0,0-.577Z" transform="translate(15.66 7)" fill="#7b5bc4"/>
    <path id="Subtraction_6" data-name="Subtraction 6" d="M13,40C5.832,40,0,38.7,0,37.109V2.892C0,1.3,5.832,0,13,0S26,1.3,26,2.892v2.1a35.926,35.926,0,0,0-8.677,1.324c-2.253.708-3.494,1.611-3.494,2.542V39.994C13.528,40,13.256,40,13,40ZM9.125,2.191a.274.274,0,1,0,0,.548h8.3a.274.274,0,1,0,0-.548Z" transform="translate(-0.34)" fill="#7b5bc4" opacity="0.703"/>
  </g>
</svg>
