<svg xmlns="http://www.w3.org/2000/svg" width="90.287" height="66.21" viewBox="0 0 90.287 66.21">
  <path id="cloud-upload" d="M124.191,162.61a1.465,1.465,0,0,0-.423-1.082l-16.553-16.553a1.594,1.594,0,0,0-2.163,0L88.547,161.481a1.767,1.767,0,0,0-.47,1.129,1.449,1.449,0,0,0,1.5,1.5h10.533v16.553a1.526,1.526,0,0,0,1.5,1.5h9.029a1.526,1.526,0,0,0,1.5-1.5V164.115h10.533a1.526,1.526,0,0,0,1.5-1.5Zm30.1,13.543A18.062,18.062,0,0,1,136.23,194.21H85.067A21.113,21.113,0,0,1,64,173.143,21.032,21.032,0,0,1,76.132,154.1q-.094-1.411-.094-2.022A24.083,24.083,0,0,1,100.115,128a24.1,24.1,0,0,1,22.29,14.954,12,12,0,0,1,17.916,15.612,17.8,17.8,0,0,1,10.04,6.372A17.474,17.474,0,0,1,154.287,176.153Z" transform="translate(-64 -128)" fill="#737275"/>
</svg>
