<svg width="18" height="18" viewBox="0 0 18 18" fill="none" xmlns="http://www.w3.org/2000/svg">
<g clip-path="url(#clip0)">
<path d="M9 10.125C10.0014 10.125 10.9803 9.82806 11.813 9.27169C12.6456 8.71531 13.2945 7.92452 13.6777 6.99932C14.0609 6.07412 14.1611 5.05607 13.9656 4.07392C13.7702 3.09176 13.2879 2.18962 12.5797 1.48159C11.8716 0.773557 10.9693 0.291432 9.98713 0.0961879C9.00494 -0.0990561 7.98691 0.00135091 7.06178 0.384711C6.13666 0.768071 5.34599 1.41716 4.78978 2.2499C4.23357 3.08264 3.9368 4.06162 3.937 5.06303C3.93753 6.40556 4.47115 7.69295 5.42056 8.64217C6.36998 9.59139 7.65746 10.1248 9 10.125ZM13.5 11.25H11.563C10.7594 11.6206 9.88496 11.8126 9 11.8126C8.11504 11.8126 7.24061 11.6206 6.437 11.25H4.5C3.30653 11.25 2.16193 11.7241 1.31802 12.568C0.474106 13.412 0 14.5566 0 15.75L0 16.313C0.000264933 16.7604 0.178087 17.1893 0.494403 17.5056C0.81072 17.8219 1.23966 17.9998 1.687 18H16.313C16.7603 17.9998 17.1893 17.8219 17.5056 17.5056C17.8219 17.1893 17.9997 16.7604 18 16.313V15.75C18 14.5566 17.5259 13.412 16.682 12.568C15.8381 11.7241 14.6935 11.25 13.5 11.25Z" fill="#7B5BC4"/>
</g>
<defs>
<clipPath id="clip0">
<rect width="18" height="18" fill="white"/>
</clipPath>
</defs>
</svg>
