<svg width="30" height="26" viewBox="0 0 30 26" fill="none" xmlns="http://www.w3.org/2000/svg">
<path d="M10.792 15.0625C10.6244 15.0625 10.4652 15.1272 10.3457 15.2466C10.2279 15.3628 10.1615 15.5237 10.1615 15.693L10.1748 19.9242H1.70243V1.72506H14.1704V3.9817C14.4209 3.81245 14.7246 3.7129 15.0498 3.7129H15.9574V0.868869C15.9574 0.556923 15.7035 0.301392 15.3899 0.301392H0.567478C0.255531 0.301392 0 0.555263 0 0.868869V20.8567C0 21.1703 0.253872 21.4258 0.567478 21.4258H11.625C11.786 21.4258 11.9403 21.3561 12.0481 21.2367L13.4635 19.6504V15.0641L10.792 15.0625Z" fill="#3F3F3F"/>
<path d="M9.09295 13.2356L12.7567 10.2041C12.7567 10.2041 13.047 9.9552 12.7865 9.6947C12.4281 9.33629 9.00501 6.75775 9.00501 6.75775C9.00501 6.75775 8.55037 6.29979 8.55037 6.90709C8.55037 7.51605 8.55037 8.48507 8.55037 8.48507C8.55037 8.48507 8.28654 8.48507 7.88167 8.48507C6.6372 8.48507 4.21132 8.48507 3.28377 8.48507C3.28377 8.48507 3.06641 8.47844 3.06641 8.76052C3.06641 9.04094 3.06641 10.7699 3.06641 11.1632C3.06641 11.5564 3.32692 11.49 3.32692 11.49C4.28101 11.49 6.62559 11.49 7.91486 11.49C8.36618 11.49 8.65822 11.49 8.65822 11.49C8.65822 11.49 8.65822 12.6997 8.65822 13.1975C8.65656 13.6952 9.09295 13.2356 9.09295 13.2356Z" fill="#3F3F3F"/>
<path d="M29.4325 4.5741H14.6067C14.2948 4.5741 14.0409 4.82797 14.0409 5.14157V25.1294C14.0409 25.4414 14.2948 25.6969 14.6067 25.6969H25.6642C25.8268 25.6969 25.9795 25.6272 26.0874 25.5077L29.8556 21.2898C29.9502 21.1853 30 21.0509 30 20.9131V5.14323C30 4.82963 29.7444 4.5741 29.4325 4.5741ZM28.2129 19.3368L24.8329 19.3352C24.8313 19.3352 24.8313 19.3352 24.8313 19.3352C24.6637 19.3352 24.506 19.4015 24.3866 19.5177C24.2671 19.6338 24.2024 19.7964 24.2041 19.964L24.2157 24.1952H15.7466V5.99611H28.2146L28.2129 19.3368Z" fill="#3F3F3F"/>
<path d="M20.9967 18.3894C20.9967 18.3894 21.4513 18.8457 21.4513 18.24C21.4513 17.6311 21.4513 16.662 21.4513 16.662C21.4513 16.662 21.7135 16.662 22.1184 16.662C23.3645 16.662 25.7887 16.662 26.7163 16.662C26.7163 16.662 26.9353 16.6703 26.9353 16.3883C26.9353 16.1062 26.9353 14.3789 26.9353 13.9839C26.9353 13.5907 26.6764 13.6587 26.6764 13.6587C25.7223 13.6587 23.3761 13.6587 22.0868 13.6587C21.6372 13.6587 21.3435 13.6587 21.3435 13.6587C21.3435 13.6587 21.3435 12.4508 21.3435 11.9513C21.3435 11.4519 20.9087 11.9132 20.9087 11.9132L17.2434 14.943C17.2434 14.943 16.953 15.1919 17.2135 15.4541C17.5719 15.8092 20.9967 18.3894 20.9967 18.3894Z" fill="#3F3F3F"/>
</svg>
