<svg xmlns="http://www.w3.org/2000/svg" width="112.248" height="112.249" viewBox="0 0 112.248 112.249">
  <g id="Layer_2" data-name="Layer 2" transform="translate(-0.042 -0.069)">
    <g id="Layer_1" data-name="Layer 1">
      <path id="Path_1" data-name="Path 1" d="M103.52,47.49h0a4.89,4.89,0,0,0-1.43,4,48.272,48.272,0,0,1,.26,5A46.16,46.16,0,1,1,93.41,29.2L54.47,68,42.7,56.13h0l-3.53-3.54a5,5,0,0,0-7.12,0h0a5,5,0,0,0,0,7.12l15.3,15.37,7.1,7.13h0l7.13-7.1,37-36.85,7.58-7.55h0A55.119,55.119,0,0,0,100.67,22a56.12,56.12,0,1,0,11.62,34.17c0-1.88-.1-3.73-.28-5.56a5,5,0,0,0-8.49-3.12Z" fill="#fff"/>
    </g>
  </g>
</svg>
