<svg xmlns="http://www.w3.org/2000/svg" width="57.823" height="41.302" viewBox="0 0 57.823 41.302">
  <g id="Icon_ionic-ios-card" data-name="Icon ionic-ios-card" transform="translate(-2.25 -6.75)">
    <path id="Path_39" data-name="Path 39" d="M60.073,10.88a4.142,4.142,0,0,0-4.13-4.13H6.38a4.142,4.142,0,0,0-4.13,4.13v6.2H60.073Z" transform="translate(0 0)" fill="#7a5bc3"/>
    <path id="Path_40" data-name="Path 40" d="M2.25,36.4a4.142,4.142,0,0,0,4.13,4.13H55.943a4.142,4.142,0,0,0,4.13-4.13V15.75H2.25Zm18.328-6.2H41.745a1.812,1.812,0,0,1,1.807,1.807h0a1.812,1.812,0,0,1-1.807,1.807H20.578a1.812,1.812,0,0,1-1.807-1.807h0A1.812,1.812,0,0,1,20.578,30.206Zm-9.293,0h1.549a1.812,1.812,0,0,1,1.807,1.807h0a1.812,1.812,0,0,1-1.807,1.807H11.285a1.812,1.812,0,0,1-1.807-1.807h0A1.812,1.812,0,0,1,11.285,30.206Z" transform="translate(0 7.521)" fill="#7a5bc3"/>
  </g>
</svg>
