<svg width="50" height="34" viewBox="0 0 50 34" fill="none" xmlns="http://www.w3.org/2000/svg">
<path d="M44.0233 0.0870056H5.9768C2.68106 0.0870056 0 2.76807 0 6.06392V27.5575C0 30.8532 2.68106 33.5344 5.9768 33.5344H44.0232C47.3187 33.5344 50 30.8532 50 27.5575V6.06392C50.0001 2.76807 47.3188 0.0870056 44.0233 0.0870056ZM46.6929 27.5574C46.6929 29.0296 45.4953 30.2272 44.0233 30.2272H5.9768C4.50476 30.2272 3.30694 29.0296 3.30694 27.5574V13.1537H46.6928L46.6929 27.5574ZM46.6929 8.43562L3.30705 8.43878V6.06381C3.30705 4.59166 4.50487 3.39395 5.97691 3.39395H44.0233C45.4953 3.39395 46.6929 4.59166 46.6929 6.06381V8.43562Z" fill="#B6A9D3"/>
<path d="M7.41132 27.1601H16.4646C16.7887 27.1601 17.0517 26.8973 17.0517 26.5731V24.7869C17.0517 24.4627 16.7887 24.1999 16.4646 24.1999H7.41132C7.08717 24.1999 6.82416 24.4627 6.82416 24.7869V26.5731C6.82405 26.8973 7.08706 27.1601 7.41132 27.1601Z" fill="#B6A9D3"/>
<path d="M33.977 18.8982C34.9177 18.8982 35.7849 19.2133 36.4794 19.7431C37.1739 19.2135 38.0407 18.8982 38.9819 18.8982C41.2634 18.8982 43.113 20.7478 43.113 23.0293C43.113 25.3108 41.2633 27.1602 38.9819 27.1602C38.041 27.1602 37.1739 26.8452 36.4794 26.3152C35.7849 26.8451 34.918 27.1602 33.977 27.1602C31.6953 27.1602 29.8458 25.3108 29.8458 23.0293C29.8458 20.7478 31.6955 18.8982 33.977 18.8982Z" fill="#B6A9D3"/>
</svg>
