<svg width="28" height="27" viewBox="0 0 28 27" fill="none" xmlns="http://www.w3.org/2000/svg">
<path d="M23.5432 0H3.48397C1.56288 0 0 1.62299 0 3.61797V22.6945C0 24.6895 1.56288 26.3125 3.48397 26.3125H21.115C22.1575 26.3125 23.1377 25.8909 23.8749 25.1253L25.8839 23.039C26.6212 22.2735 27.0272 21.2556 27.0272 20.1729V3.61797C27.0272 1.62299 25.4643 0 23.5432 0ZM3.48397 1.75417H23.5432C24.5328 1.75417 25.338 2.59025 25.338 3.61797V6.13958H1.6892V3.61797C1.6892 2.59025 2.49431 1.75417 3.48397 1.75417ZM1.6892 22.6945V7.89375H25.338V19.2958H22.6986C21.3597 19.2958 20.2704 20.4271 20.2704 21.8174V24.5583H3.48397C2.49431 24.5583 1.6892 23.7223 1.6892 22.6945ZM24.6895 21.7986L22.6805 23.885C22.4706 24.1029 22.226 24.2717 21.9596 24.3858V21.8174C21.9596 21.3943 22.2911 21.05 22.6986 21.05H25.1718C25.0619 21.3266 24.8994 21.5807 24.6895 21.7986Z" fill="#A7A4AC"/>
<path d="M21.1149 11.4021C21.1149 10.9177 20.7368 10.525 20.2703 10.525H6.75671C6.29023 10.525 5.91211 10.9177 5.91211 11.4021C5.91211 11.8865 6.29023 12.2792 6.75671 12.2792H20.2703C20.7368 12.2792 21.1149 11.8865 21.1149 11.4021Z" fill="#A7A4AC"/>
<path d="M18.5809 14.9104H8.44567C7.97919 14.9104 7.60107 15.3031 7.60107 15.7875C7.60107 16.2718 7.97919 16.6646 8.44567 16.6646H18.5809C19.0473 16.6646 19.4255 16.2718 19.4255 15.7875C19.4255 15.3031 19.0473 14.9104 18.5809 14.9104Z" fill="#A7A4AC"/>
</svg>
