<svg width="30" height="30" viewBox="0 0 30 30" fill="none" xmlns="http://www.w3.org/2000/svg">
<path d="M21.4453 20.5078H8.55469C8.0693 20.5078 7.67578 20.9013 7.67578 21.3867C7.67578 21.8721 8.0693 22.2656 8.55469 22.2656H21.4453C21.9307 22.2656 22.3242 21.8721 22.3242 21.3867C22.3242 20.9013 21.9307 20.5078 21.4453 20.5078Z" fill="#6D56A4"/>
<path d="M21.4453 24.0234H8.55469C8.0693 24.0234 7.67578 24.417 7.67578 24.9023C7.67578 25.3877 8.0693 25.7812 8.55469 25.7812H21.4453C21.9307 25.7812 22.3242 25.3877 22.3242 24.9023C22.3242 24.417 21.9307 24.0234 21.4453 24.0234Z" fill="#6D56A4"/>
<path d="M15.8789 17.8711C15.8789 18.3565 16.2724 18.75 16.7578 18.75H21.4453C21.9307 18.75 22.3242 18.3565 22.3242 17.8711C22.3242 17.3857 21.9307 16.9922 21.4453 16.9922H16.7578C16.2724 16.9922 15.8789 17.3857 15.8789 17.8711Z" fill="#6D56A4"/>
<path d="M24.9609 0H8.3291C8.09596 0 7.87242 0.0926367 7.70766 0.257461L4.41762 3.5475C4.25273 3.71232 4.16016 3.93586 4.16016 4.16895V29.1211C4.16016 29.6065 4.55367 30 5.03906 30H24.9609C25.4463 30 25.8398 29.6065 25.8398 29.1211V0.878906C25.8398 0.393516 25.4463 0 24.9609 0ZM24.082 28.2422H5.91797V4.53305L8.69314 1.75781H24.082V28.2422Z" fill="#6D56A4"/>
<path d="M12.7233 11.3779C12.2386 11.3779 11.8559 12.0157 11.8559 12.4494C11.8559 13.2658 13.1059 14.0566 14.6366 14.1076V14.4265C14.6366 14.6051 14.8407 14.7709 15.1213 14.7709C15.3637 14.7709 15.606 14.6051 15.606 14.4265V14.0566C17.0985 13.8142 18.1189 12.8575 18.1189 11.2758C18.1189 9.55384 16.7668 8.95431 15.606 8.5206V6.65825C16.4351 6.722 16.6775 7.13022 17.0985 7.13022C17.6597 7.13022 17.8893 6.42868 17.8893 6.08427C17.8893 5.20413 16.3969 5.00005 15.606 4.97456V4.65569C15.606 4.4771 15.3637 4.31128 15.1213 4.31128C14.8407 4.31128 14.6366 4.4771 14.6366 4.65569V5.01282C13.2845 5.20419 12.0855 5.98226 12.0855 7.60226C12.0855 9.23497 13.4631 9.78347 14.6366 10.23V12.2964C13.6927 12.1304 13.259 11.3779 12.7233 11.3779ZM15.4785 10.5742C15.9377 10.7911 16.2566 11.0589 16.2566 11.4799C16.2566 11.9391 15.9122 12.1815 15.4785 12.2835V10.5742ZM13.9478 7.41089C13.9478 7.10474 14.1902 6.81136 14.7642 6.69657V8.2145C14.2795 8.01036 13.9478 7.78079 13.9478 7.41089Z" fill="#6D56A4"/>
</svg>
