<svg width="30" height="30" viewBox="0 0 30 30" fill="none" xmlns="http://www.w3.org/2000/svg">
<path d="M15 0C6.729 0 0 6.729 0 15C0 23.271 6.729 30 15 30C23.271 30 30 23.271 30 15C30 6.729 23.271 0 15 0ZM15 27.777C7.956 27.777 2.223 22.046 2.223 15C2.223 7.954 7.956 2.223 15 2.223C22.044 2.223 27.777 7.954 27.777 15C27.777 22.046 22.044 27.777 15 27.777Z" fill="#6D56A4"/>
<path d="M12.803 11.412C12.803 12.117 13.28 12.705 14.231 13.178V9.92395C13.279 10.095 12.803 10.591 12.803 11.412Z" fill="#6D56A4"/>
<path d="M15 3.5C8.66 3.5 3.5 8.659 3.5 15C3.5 21.341 8.66 26.5 15 26.5C21.34 26.5 26.5 21.341 26.5 15C26.5 8.659 21.34 3.5 15 3.5ZM18.839 20.893C18.113 21.587 17.077 22.01 15.729 22.161V24.39H14.23V22.224C12.84 22.216 11.547 21.902 10.349 21.279V18.435C10.746 18.757 11.338 19.056 12.125 19.329C12.912 19.603 13.613 19.76 14.229 19.802V16.065C12.627 15.47 11.534 14.826 10.949 14.13C10.364 13.435 10.071 12.588 10.071 11.589C10.071 10.514 10.451 9.599 11.211 8.843C11.971 8.087 12.977 7.647 14.23 7.524V5.613H15.729V7.481C17.172 7.549 18.25 7.782 18.962 8.179V10.95C18.003 10.368 16.926 10.012 15.729 9.883V13.774C17.227 14.315 18.301 14.932 18.953 15.627C19.602 16.322 19.929 17.162 19.929 18.148C19.928 19.282 19.564 20.198 18.839 20.893Z" fill="#6D56A4"/>
<path d="M15.729 16.646V19.756C16.708 19.607 17.199 19.116 17.199 18.288C17.197 17.62 16.707 17.072 15.729 16.646Z" fill="#6D56A4"/>
</svg>
