<svg width="14" height="27" viewBox="0 0 14 27" fill="none" xmlns="http://www.w3.org/2000/svg">
<path d="M13.756 17.4709C13.7821 18.9059 13.257 20.2963 12.289 21.3559C11.293 22.4516 9.94453 23.1635 8.478 23.3679V25.9479C8.48054 26.0105 8.47007 26.0731 8.44724 26.1315C8.42442 26.1899 8.38974 26.2429 8.3454 26.2873C8.30105 26.3316 8.248 26.3663 8.18959 26.3891C8.13117 26.4119 8.06866 26.4224 8.006 26.4199H6.016C5.8913 26.4183 5.77215 26.3681 5.68397 26.2799C5.59578 26.1917 5.54556 26.0726 5.544 25.9479V23.3679C4.90314 23.2814 4.27306 23.1282 3.664 22.9109C2.73344 22.5994 1.85971 22.1388 1.077 21.5469C0.838816 21.3747 0.609834 21.1901 0.390999 20.9939C0.268333 20.8759 0.182333 20.7875 0.133 20.7289C0.0545642 20.6504 0.0080703 20.5455 0.00252774 20.4347C-0.00301483 20.3238 0.0327889 20.2148 0.103 20.1289L1.622 18.1389C1.66246 18.0867 1.71369 18.0439 1.77219 18.0134C1.83069 17.9829 1.89509 17.9653 1.961 17.9619C2.02653 17.9496 2.09416 17.9555 2.15657 17.979C2.21897 18.0024 2.27377 18.0425 2.315 18.0949L2.344 18.1239C3.3533 19.0452 4.58961 19.6813 5.926 19.9669C6.28443 20.045 6.65017 20.0845 7.017 20.0849C7.76614 20.0988 8.50073 19.8771 9.117 19.4509C9.40937 19.2533 9.64625 18.9842 9.80503 18.6691C9.96381 18.3539 10.0392 18.0034 10.024 17.6509C10.0235 17.3752 9.94704 17.105 9.803 16.8699C9.66891 16.6409 9.50254 16.4324 9.309 16.2509C9.04625 16.0308 8.7566 15.845 8.447 15.6979C8.05367 15.4979 7.72933 15.3406 7.474 15.2259C7.21867 15.1112 6.82567 14.9516 6.295 14.7469C5.91167 14.5896 5.60933 14.4665 5.388 14.3779C5.16667 14.2892 4.86433 14.1589 4.481 13.9869C4.09767 13.8149 3.79067 13.6626 3.56 13.5299C3.32933 13.3972 3.05167 13.2229 2.727 13.0069C2.44429 12.824 2.18004 12.614 1.938 12.3799C1.71183 12.1506 1.49787 11.9096 1.297 11.6579C1.0836 11.3967 0.90789 11.1069 0.775 10.7969C0.643416 10.4798 0.539691 10.1519 0.465 9.81688C0.379999 9.43951 0.338064 9.05371 0.34 8.66688C0.330182 7.33254 0.849817 6.04873 1.785 5.09688C2.79303 4.05274 4.11093 3.36153 5.543 3.12588V0.471884C5.54456 0.347185 5.59478 0.228032 5.68297 0.139849C5.77115 0.0516672 5.8903 0.00143929 6.015 -0.000116383H8.005C8.06766 -0.00265422 8.13017 0.00781812 8.18859 0.0306403C8.247 0.0534625 8.30005 0.0881395 8.3444 0.132485C8.38875 0.176831 8.42342 0.229883 8.44624 0.288297C8.46907 0.346712 8.47954 0.409221 8.477 0.471884V3.06688C9.03009 3.12436 9.5759 3.23794 10.106 3.40588C10.5451 3.53917 10.9739 3.70427 11.389 3.89988C11.7147 4.06002 12.0276 4.2449 12.325 4.45288C12.6197 4.65955 12.8113 4.80222 12.9 4.88088C12.9887 4.95955 13.0623 5.02822 13.121 5.08688C13.1994 5.1552 13.2502 5.24979 13.2638 5.3529C13.2775 5.45601 13.253 5.56054 13.195 5.64688L12.001 7.79688C11.9713 7.86334 11.9241 7.92044 11.8643 7.96203C11.8046 8.00361 11.7346 8.02811 11.662 8.03288C11.5921 8.04771 11.5198 8.04642 11.4504 8.02909C11.3811 8.01176 11.3167 7.97886 11.262 7.93288C11.2327 7.90355 11.1613 7.84455 11.048 7.75588C10.9347 7.66722 10.743 7.53688 10.473 7.36488C10.1967 7.19058 9.90942 7.03426 9.613 6.89688C9.25837 6.73698 8.89026 6.60881 8.513 6.51388C8.1018 6.40286 7.67792 6.34572 7.252 6.34388C6.44246 6.30831 5.64247 6.53027 4.967 6.97788C4.59454 7.22561 4.31683 7.59205 4.17903 8.01762C4.04123 8.44319 4.05144 8.90285 4.208 9.32188C4.30432 9.55645 4.45313 9.76581 4.643 9.93388C4.82735 10.1074 5.02168 10.27 5.225 10.4209C5.48589 10.598 5.76236 10.7509 6.051 10.8779C6.41967 11.0499 6.717 11.1832 6.943 11.2779C7.169 11.3726 7.513 11.5075 7.975 11.6829C8.49567 11.8795 8.89367 12.0342 9.169 12.1469C9.44433 12.2596 9.81767 12.4316 10.289 12.6629C10.6745 12.845 11.0465 13.0545 11.402 13.2899C11.7217 13.5163 12.027 13.7624 12.316 14.0269C12.6248 14.295 12.8885 14.6111 13.097 14.9629C13.2942 15.3199 13.4499 15.6984 13.561 16.0909C13.6915 16.5412 13.7561 17.008 13.753 17.4769L13.756 17.4709Z" fill="#B2B2B2"/>
</svg>
