<svg xmlns="http://www.w3.org/2000/svg" width="50" height="50" viewBox="0 0 50 50">
  <g id="Group_2605" data-name="Group 2605" transform="translate(-625 -248)">
    <rect id="Rectangle_4945" data-name="Rectangle 4945" width="50" height="50" rx="25" transform="translate(625 248)" fill="#eae9ed"/>
    <path id="Icon_metro-dollar2" data-name="Icon metro-dollar2" d="M21.412,16.752a4.671,4.671,0,0,1-1.222,3.235,5.272,5.272,0,0,1-3.174,1.676v2.148a.378.378,0,0,1-.393.393H14.967a.4.4,0,0,1-.393-.393V21.662a7.738,7.738,0,0,1-1.565-.381,7.539,7.539,0,0,1-2.155-1.136,7,7,0,0,1-.571-.46q-.153-.147-.215-.221a.373.373,0,0,1-.025-.5L11.308,17.3a.382.382,0,0,1,.282-.147.3.3,0,0,1,.295.11l.025.025a6.411,6.411,0,0,0,2.983,1.535,4.288,4.288,0,0,0,.908.1,2.977,2.977,0,0,0,1.749-.528,1.72,1.72,0,0,0,.755-1.5,1.245,1.245,0,0,0-.184-.651,2.3,2.3,0,0,0-.411-.516,3.369,3.369,0,0,0-.718-.46q-.491-.252-.81-.393t-.982-.4q-.479-.2-.755-.307t-.755-.325q-.479-.215-.767-.381t-.694-.436a4.323,4.323,0,0,1-.657-.522,7.653,7.653,0,0,1-.534-.6A3,3,0,0,1,10.6,11.2a4.924,4.924,0,0,1-.258-.816,4.261,4.261,0,0,1-.1-.958,4.2,4.2,0,0,1,1.2-2.971,5.618,5.618,0,0,1,3.131-1.645V2.6a.4.4,0,0,1,.393-.393h1.657a.378.378,0,0,1,.393.393V4.757a6.829,6.829,0,0,1,1.357.282,7.866,7.866,0,0,1,1.068.411,5.915,5.915,0,0,1,.78.46q.368.258.479.356t.184.172a.355.355,0,0,1,.061.467L19.951,8.7a.334.334,0,0,1-.282.2.391.391,0,0,1-.331-.086q-.037-.037-.178-.147t-.479-.325a6.335,6.335,0,0,0-.718-.393,5.483,5.483,0,0,0-.915-.319A4.1,4.1,0,0,0,16,7.482a3.191,3.191,0,0,0-1.9.528,1.65,1.65,0,0,0-.632,1.952,1.382,1.382,0,0,0,.362.509,5.41,5.41,0,0,0,.485.405,4.324,4.324,0,0,0,.688.381q.46.215.743.331t.859.338q.651.246.994.387t.933.43a7.417,7.417,0,0,1,.927.522,7.838,7.838,0,0,1,.761.614,3.179,3.179,0,0,1,.651.78,4.449,4.449,0,0,1,.387.939,4.05,4.05,0,0,1,.16,1.154Z" transform="translate(634.315 259.796)" fill="#7b5bc4"/>
  </g>
</svg>
