<svg xmlns="http://www.w3.org/2000/svg" width="13.755" height="26.419" viewBox="0 0 13.755 26.419">
  <path id="Icon_metro-dollar2" data-name="Icon metro-dollar2" d="M23.713,19.674a5.609,5.609,0,0,1-1.467,3.885,6.331,6.331,0,0,1-3.811,2.012v2.58a.454.454,0,0,1-.472.472h-1.99a.478.478,0,0,1-.472-.472v-2.58a9.293,9.293,0,0,1-1.88-.457,9.053,9.053,0,0,1-2.587-1.364,8.4,8.4,0,0,1-.686-.553q-.184-.177-.258-.265a.448.448,0,0,1-.03-.6l1.519-1.99a.459.459,0,0,1,.339-.177.365.365,0,0,1,.354.133l.029.029a7.7,7.7,0,0,0,3.582,1.843,5.149,5.149,0,0,0,1.091.118,3.575,3.575,0,0,0,2.1-.634,2.065,2.065,0,0,0,.907-1.8,1.5,1.5,0,0,0-.221-.781,2.763,2.763,0,0,0-.494-.619,4.046,4.046,0,0,0-.862-.553q-.59-.3-.973-.472t-1.179-.479q-.575-.236-.907-.369t-.907-.391q-.575-.258-.921-.457t-.833-.523a5.191,5.191,0,0,1-.789-.627,9.189,9.189,0,0,1-.641-.722A3.607,3.607,0,0,1,10.732,13a5.913,5.913,0,0,1-.31-.98,5.117,5.117,0,0,1-.125-1.15A5.041,5.041,0,0,1,11.742,7.3,6.746,6.746,0,0,1,15.5,5.329V2.675a.478.478,0,0,1,.472-.472h1.99a.454.454,0,0,1,.472.472V5.27a8.2,8.2,0,0,1,1.629.339,9.446,9.446,0,0,1,1.283.494,7.1,7.1,0,0,1,.936.553q.442.31.575.428t.221.206a.427.427,0,0,1,.074.56L21.958,10a.4.4,0,0,1-.339.236.47.47,0,0,1-.4-.1q-.044-.044-.214-.177t-.575-.391A7.608,7.608,0,0,0,19.57,9.1a6.585,6.585,0,0,0-1.1-.383,4.919,4.919,0,0,0-1.261-.17,3.832,3.832,0,0,0-2.285.634,1.982,1.982,0,0,0-.759,2.344,1.659,1.659,0,0,0,.435.612,6.5,6.5,0,0,0,.582.487,5.193,5.193,0,0,0,.826.457q.553.258.892.4t1.032.405q.781.295,1.194.464t1.12.516a8.906,8.906,0,0,1,1.113.627,9.412,9.412,0,0,1,.914.737,3.817,3.817,0,0,1,.781.936,5.343,5.343,0,0,1,.464,1.128,4.864,4.864,0,0,1,.192,1.386Z" transform="translate(-9.957 -2.203)" fill="#b6a9d3"/>
</svg>
