<svg width="161" height="32" viewBox="0 0 161 32" fill="none" xmlns="http://www.w3.org/2000/svg">
<g clip-path="url(#clip0)">
<path d="M20.1658 9.26092C20.0287 9.19027 19.8733 9.16315 19.7203 9.18317C19.5674 9.20318 19.4241 9.26937 19.3098 9.37292C17.8188 10.287 16.1095 10.7833 14.3608 10.8099C12.5187 10.8266 10.7085 10.3289 9.13382 9.37292C9.06854 9.31393 8.9934 9.2669 8.91182 9.23395L8.87082 9.20795L8.86482 9.21695C8.76879 9.18517 8.66738 9.17296 8.56656 9.18103C8.46574 9.1891 8.36756 9.21729 8.27782 9.26395C5.798 10.6242 3.7245 12.6195 2.26986 15.0452C0.815226 17.4708 0.0317751 20.2397 -0.000184136 23.0679C-0.0763489 24.0733 0.0522308 25.0838 0.377777 26.0381C0.703323 26.9923 1.21907 27.8707 1.89382 28.6199C3.15416 29.7699 4.74913 30.4868 6.44582 30.6659C8.51159 30.9434 10.5962 31.0561 12.6798 31.0029H15.7398C17.8298 31.0566 19.9207 30.9443 21.9928 30.6669C23.6929 30.488 25.2913 29.7704 26.5548 28.6189C27.2293 27.8702 27.7449 26.9923 28.0703 26.0385C28.3957 25.0847 28.5241 24.0748 28.4478 23.0699C28.4155 20.2406 27.6315 17.4708 26.1762 15.0442C24.7209 12.6177 22.6466 10.6218 20.1658 9.26092V9.26092ZM14.9568 25.2289C14.9621 25.3307 14.9466 25.4324 14.9113 25.528C14.8759 25.6236 14.8215 25.7109 14.7514 25.7848C14.6812 25.8587 14.5968 25.9175 14.5031 25.9577C14.4095 25.9979 14.3087 26.0187 14.2068 26.0187C14.1049 26.0187 14.0041 25.9979 13.9105 25.9577C13.8169 25.9175 13.7324 25.8587 13.6623 25.7848C13.5921 25.7109 13.5377 25.6236 13.5024 25.528C13.4671 25.4324 13.4516 25.3307 13.4568 25.2289V24.5889H11.6618C11.5601 24.5942 11.4583 24.5787 11.3627 24.5434C11.2672 24.508 11.1798 24.4536 11.1059 24.3835C11.032 24.3133 10.9732 24.2289 10.933 24.1353C10.8928 24.0416 10.8721 23.9408 10.8721 23.8389C10.8721 23.737 10.8928 23.6362 10.933 23.5426C10.9732 23.449 11.032 23.3645 11.1059 23.2944C11.1798 23.2242 11.2672 23.1698 11.3627 23.1345C11.4583 23.0992 11.5601 23.0837 11.6618 23.0889H15.0778C15.2062 23.0931 15.334 23.0714 15.4538 23.0251C15.5736 22.9789 15.6829 22.909 15.7751 22.8197C15.8674 22.7304 15.9408 22.6234 15.9908 22.5052C16.0409 22.387 16.0668 22.2598 16.0668 22.1314C16.0668 22.003 16.0409 21.8759 15.9908 21.7577C15.9408 21.6395 15.8674 21.5325 15.7751 21.4432C15.6829 21.3539 15.5736 21.284 15.4538 21.2377C15.334 21.1915 15.2062 21.1698 15.0778 21.1739H13.3688C12.7168 21.1739 12.0915 20.9149 11.6304 20.4539C11.1693 19.9928 10.9103 19.3675 10.9103 18.7154C10.9103 18.0634 11.1693 17.4381 11.6304 16.977C12.0915 16.516 12.7168 16.2569 13.3688 16.2569H13.4548V15.5789C13.4496 15.4772 13.4651 15.3754 13.5004 15.2799C13.5357 15.1843 13.5901 15.0969 13.6603 15.023C13.7304 14.9492 13.8149 14.8903 13.9085 14.8501C14.0021 14.8099 14.1029 14.7892 14.2048 14.7892C14.3067 14.7892 14.4075 14.8099 14.5011 14.8501C14.5948 14.8903 14.6792 14.9492 14.7494 15.023C14.8195 15.0969 14.8739 15.1843 14.9093 15.2799C14.9446 15.3754 14.9601 15.4772 14.9548 15.5789V16.2569H16.7828C16.8846 16.2517 16.9863 16.2672 17.0819 16.3025C17.1775 16.3378 17.2648 16.3922 17.3387 16.4624C17.4126 16.5325 17.4714 16.617 17.5116 16.7106C17.5518 16.8042 17.5726 16.905 17.5726 17.0069C17.5726 17.1088 17.5518 17.2096 17.5116 17.3033C17.4714 17.3969 17.4126 17.4813 17.3387 17.5515C17.2648 17.6216 17.1775 17.676 17.0819 17.7114C16.9863 17.7467 16.8846 17.7622 16.7828 17.7569H13.3688C13.115 17.7569 12.8716 17.8578 12.6921 18.0372C12.5126 18.2167 12.4118 18.4601 12.4118 18.7139C12.4118 18.9677 12.5126 19.2112 12.6921 19.3906C12.8716 19.5701 13.115 19.6709 13.3688 19.6709H15.1158C15.4387 19.6735 15.7579 19.7396 16.0552 19.8655C16.3525 19.9915 16.622 20.1747 16.8485 20.4048C17.075 20.6349 17.254 20.9074 17.3751 21.2066C17.4963 21.5059 17.5574 21.8261 17.5548 22.1489C17.5523 22.4718 17.4861 22.791 17.3602 23.0883C17.2343 23.3856 17.0511 23.6552 16.8209 23.8817C16.5908 24.1081 16.3184 24.2871 16.0191 24.4083C15.7199 24.5294 15.3997 24.5905 15.0768 24.5879H14.9568V25.2289Z" fill="#7B5BC4"/>
<path d="M14.3277 10.3981C14.2277 10.3981 14.1277 10.3981 14.0207 10.3931C11.7698 10.2715 9.63978 9.3365 8.02665 7.76208C7.87678 7.61553 7.78814 7.41754 7.77868 7.20814C7.76921 6.99874 7.83962 6.79356 7.97565 6.63409C8.0408 6.55697 8.12111 6.49408 8.2116 6.44933C8.30209 6.40458 8.40081 6.37891 8.50164 6.37394C8.60246 6.36897 8.70322 6.3848 8.79767 6.42043C8.89212 6.45607 8.97823 6.51075 9.05065 6.58108C10.4013 7.90328 12.1856 8.69095 14.0727 8.79807C16.0406 8.83176 17.946 8.10663 19.3937 6.77308C19.4684 6.70515 19.5563 6.65334 19.6519 6.62086C19.7476 6.58837 19.8489 6.57592 19.9495 6.58427C20.0502 6.59261 20.148 6.62158 20.237 6.66938C20.326 6.71718 20.4041 6.78277 20.4667 6.86208C20.5981 7.0255 20.6624 7.23277 20.6466 7.44187C20.6308 7.65097 20.5361 7.84624 20.3816 7.98808C18.7252 9.50308 16.5721 10.3602 14.3277 10.3981Z" fill="#7B5BC4"/>
<path d="M20.0809 0.695017C19.7549 0.397949 19.3629 0.182641 18.9373 0.0668455C18.5116 -0.04895 18.0646 -0.0619159 17.6329 0.0290168C16.4387 0.192575 15.2805 0.555986 14.2069 1.10402C13.1401 0.559016 11.9883 0.19923 10.8009 0.0400168C10.3675 -0.0526554 9.91817 -0.0413437 9.4899 0.0730259C9.06162 0.187395 8.66652 0.401571 8.33694 0.698017C7.97094 1.11002 7.51294 2.03302 8.55394 3.60802C8.81494 4.01402 9.10194 4.50802 9.42894 5.12302C9.46481 5.19021 9.51066 5.25158 9.56494 5.30502C10.3649 6.45202 11.8649 8.11202 13.9839 8.23602C14.0673 8.24068 14.1503 8.24302 14.2329 8.24302C15.3618 8.21848 16.4466 7.79959 17.2989 7.05902C17.9134 6.55421 18.4522 5.96386 18.899 5.30602C18.9428 5.24191 18.9765 5.17141 18.9989 5.09702C19.1279 4.88002 19.2509 4.66002 19.3659 4.45302L19.386 4.41702C19.545 4.13202 19.6949 3.86202 19.8529 3.61702C20.9019 2.02702 20.4459 1.10402 20.0809 0.695017Z" fill="#7B5BC4"/>
</g>
<g clip-path="url(#clip1)">
<path d="M152.166 9.26092C152.029 9.19027 151.873 9.16315 151.72 9.18317C151.567 9.20318 151.424 9.26937 151.31 9.37292C149.819 10.287 148.109 10.7833 146.361 10.8099C144.519 10.8266 142.709 10.3289 141.134 9.37292C141.069 9.31393 140.993 9.2669 140.912 9.23395L140.871 9.20795L140.865 9.21695C140.769 9.18517 140.667 9.17296 140.567 9.18103C140.466 9.1891 140.368 9.21729 140.278 9.26395C137.798 10.6242 135.724 12.6195 134.27 15.0452C132.815 17.4708 132.032 20.2397 132 23.0679C131.924 24.0733 132.052 25.0838 132.378 26.0381C132.703 26.9923 133.219 27.8707 133.894 28.6199C135.154 29.7699 136.749 30.4868 138.446 30.6659C140.512 30.9434 142.596 31.0561 144.68 31.0029H147.74C149.83 31.0566 151.921 30.9443 153.993 30.6669C155.693 30.488 157.291 29.7704 158.555 28.6189C159.229 27.8702 159.745 26.9923 160.07 26.0385C160.396 25.0847 160.524 24.0748 160.448 23.0699C160.416 20.2406 159.632 17.4708 158.176 15.0442C156.721 12.6177 154.647 10.6218 152.166 9.26092V9.26092ZM146.957 25.2289C146.962 25.3307 146.947 25.4324 146.911 25.528C146.876 25.6236 146.822 25.7109 146.751 25.7848C146.681 25.8587 146.597 25.9175 146.503 25.9577C146.41 25.9979 146.309 26.0187 146.207 26.0187C146.105 26.0187 146.004 25.9979 145.91 25.9577C145.817 25.9175 145.732 25.8587 145.662 25.7848C145.592 25.7109 145.538 25.6236 145.502 25.528C145.467 25.4324 145.452 25.3307 145.457 25.2289V24.5889H143.662C143.56 24.5942 143.458 24.5787 143.363 24.5434C143.267 24.508 143.18 24.4536 143.106 24.3835C143.032 24.3133 142.973 24.2289 142.933 24.1353C142.893 24.0416 142.872 23.9408 142.872 23.8389C142.872 23.737 142.893 23.6362 142.933 23.5426C142.973 23.449 143.032 23.3645 143.106 23.2944C143.18 23.2242 143.267 23.1698 143.363 23.1345C143.458 23.0992 143.56 23.0837 143.662 23.0889H147.078C147.206 23.0931 147.334 23.0714 147.454 23.0251C147.574 22.9789 147.683 22.909 147.775 22.8197C147.867 22.7304 147.941 22.6234 147.991 22.5052C148.041 22.387 148.067 22.2598 148.067 22.1314C148.067 22.003 148.041 21.8759 147.991 21.7577C147.941 21.6395 147.867 21.5325 147.775 21.4432C147.683 21.3539 147.574 21.284 147.454 21.2377C147.334 21.1915 147.206 21.1698 147.078 21.1739H145.369C144.717 21.1739 144.091 20.9149 143.63 20.4539C143.169 19.9928 142.91 19.3675 142.91 18.7154C142.91 18.0634 143.169 17.4381 143.63 16.977C144.091 16.516 144.717 16.2569 145.369 16.2569H145.455V15.5789C145.45 15.4772 145.465 15.3754 145.5 15.2799C145.536 15.1843 145.59 15.0969 145.66 15.023C145.73 14.9492 145.815 14.8903 145.908 14.8501C146.002 14.8099 146.103 14.7892 146.205 14.7892C146.307 14.7892 146.408 14.8099 146.501 14.8501C146.595 14.8903 146.679 14.9492 146.749 15.023C146.82 15.0969 146.874 15.1843 146.909 15.2799C146.945 15.3754 146.96 15.4772 146.955 15.5789V16.2569H148.783C148.885 16.2517 148.986 16.2672 149.082 16.3025C149.177 16.3378 149.265 16.3922 149.339 16.4624C149.413 16.5325 149.471 16.617 149.512 16.7106C149.552 16.8042 149.573 16.905 149.573 17.0069C149.573 17.1088 149.552 17.2096 149.512 17.3033C149.471 17.3969 149.413 17.4813 149.339 17.5515C149.265 17.6216 149.177 17.676 149.082 17.7114C148.986 17.7467 148.885 17.7622 148.783 17.7569H145.369C145.115 17.7569 144.872 17.8578 144.692 18.0372C144.513 18.2167 144.412 18.4601 144.412 18.7139C144.412 18.9677 144.513 19.2112 144.692 19.3906C144.872 19.5701 145.115 19.6709 145.369 19.6709H147.116C147.439 19.6735 147.758 19.7396 148.055 19.8655C148.352 19.9915 148.622 20.1747 148.849 20.4048C149.075 20.6349 149.254 20.9074 149.375 21.2066C149.496 21.5059 149.557 21.8261 149.555 22.1489C149.552 22.4718 149.486 22.791 149.36 23.0883C149.234 23.3856 149.051 23.6552 148.821 23.8817C148.591 24.1081 148.318 24.2871 148.019 24.4083C147.72 24.5294 147.4 24.5905 147.077 24.5879H146.957V25.2289Z" fill="#B1A5CC"/>
<path d="M146.328 10.3981C146.228 10.3981 146.128 10.3981 146.021 10.3931C143.77 10.2715 141.64 9.3365 140.027 7.76208C139.877 7.61553 139.788 7.41754 139.779 7.20814C139.769 6.99874 139.84 6.79356 139.976 6.63409C140.041 6.55697 140.121 6.49408 140.212 6.44933C140.302 6.40458 140.401 6.37891 140.502 6.37394C140.602 6.36897 140.703 6.3848 140.798 6.42043C140.892 6.45607 140.978 6.51075 141.051 6.58108C142.401 7.90328 144.186 8.69095 146.073 8.79807C148.041 8.83176 149.946 8.10663 151.394 6.77308C151.468 6.70515 151.556 6.65334 151.652 6.62086C151.748 6.58837 151.849 6.57592 151.95 6.58427C152.05 6.59261 152.148 6.62158 152.237 6.66938C152.326 6.71718 152.404 6.78277 152.467 6.86208C152.598 7.0255 152.662 7.23277 152.647 7.44187C152.631 7.65097 152.536 7.84624 152.382 7.98808C150.725 9.50308 148.572 10.3602 146.328 10.3981Z" fill="#B1A5CC"/>
<path d="M152.081 0.695017C151.755 0.397949 151.363 0.182641 150.937 0.0668455C150.512 -0.04895 150.065 -0.0619159 149.633 0.0290168C148.439 0.192575 147.281 0.555986 146.207 1.10402C145.14 0.559016 143.988 0.19923 142.801 0.0400168C142.367 -0.0526554 141.918 -0.0413437 141.49 0.0730259C141.062 0.187395 140.667 0.401571 140.337 0.698017C139.971 1.11002 139.513 2.03302 140.554 3.60802C140.815 4.01402 141.102 4.50802 141.429 5.12302C141.465 5.19021 141.511 5.25158 141.565 5.30502C142.365 6.45202 143.865 8.11202 145.984 8.23602C146.067 8.24068 146.15 8.24302 146.233 8.24302C147.362 8.21848 148.447 7.79959 149.299 7.05902C149.913 6.55421 150.452 5.96386 150.899 5.30602C150.943 5.24191 150.977 5.17141 150.999 5.09702C151.128 4.88002 151.251 4.66002 151.366 4.45302L151.386 4.41702C151.545 4.13202 151.695 3.86202 151.853 3.61702C152.902 2.02702 152.446 1.10402 152.081 0.695017Z" fill="#B1A5CC"/>
</g>
<defs>
<clipPath id="clip0">
<rect width="28.448" height="31.003" fill="white"/>
</clipPath>
<clipPath id="clip1">
<rect width="28.448" height="31.003" fill="white" transform="translate(132)"/>
</clipPath>
</defs>
</svg>
