<?xml version="1.0" encoding="UTF-8" standalone="no"?>
<!-- Created with Inkscape (http://www.inkscape.org/) -->

<svg
   width="420.06604mm"
   height="132.62285mm"
   viewBox="0 0 420.06604 132.62285"
   version="1.1"
   id="svg5"
   inkscape:version="1.1 (c68e22c387, 2021-05-23)"
   sodipodi:docname="UpdatedLogo.svg"
   xmlns:inkscape="http://www.inkscape.org/namespaces/inkscape"
   xmlns:sodipodi="http://sodipodi.sourceforge.net/DTD/sodipodi-0.dtd"
   xmlns="http://www.w3.org/2000/svg"
   xmlns:svg="http://www.w3.org/2000/svg">
  <sodipodi:namedview
     id="namedview7"
     pagecolor="#ffffff"
     bordercolor="#666666"
     borderopacity="1.0"
     inkscape:pageshadow="2"
     inkscape:pageopacity="0.0"
     inkscape:pagecheckerboard="0"
     inkscape:document-units="mm"
     showgrid="false"
     inkscape:snap-bbox="true"
     inkscape:snap-global="false"
     inkscape:zoom="0.37059484"
     inkscape:cx="500.54664"
     inkscape:cy="481.65809"
     inkscape:window-width="1920"
     inkscape:window-height="1017"
     inkscape:window-x="-8"
     inkscape:window-y="-8"
     inkscape:window-maximized="1"
     inkscape:current-layer="layer1"
     width="420.06604mm" />
  <defs
     id="defs2">
    <linearGradient
       id="linearGradient10026"
       inkscape:swatch="gradient">
      <stop
         style="stop-color:#7c67ac;stop-opacity:1;"
         offset="0"
         id="stop10022" />
      <stop
         style="stop-color:#7c67ac;stop-opacity:0;"
         offset="1"
         id="stop10024" />
    </linearGradient>
  </defs>
  <g
     inkscape:label="Layer 1"
     inkscape:groupmode="layer"
     id="layer1"
     transform="translate(11.655861,-179.25195)">
    <path
       style="fill:#7c67ac;fill-opacity:1;stroke:#6e56a4;stroke-width:0.264771;stroke-miterlimit:4;stroke-dasharray:none;stroke-opacity:1"
       d="m 335.32959,311.40819 c -0.091,-0.14746 2.22159,-6.35216 5.13928,-13.78824 2.91768,-7.43607 5.30487,-13.66254 5.30487,-13.83662 0,-0.17408 -3.46079,-9.65587 -7.69065,-21.07065 -16.75907,-45.22653 -18.44542,-49.83326 -18.31747,-50.04043 0.073,-0.11813 4.47367,-0.21477 9.77941,-0.21477 h 9.64684 l 0.34923,0.85989 c 0.19207,0.47294 3.7673,10.86115 7.94498,23.08491 4.17763,12.22376 7.70018,22.33615 7.82784,22.47198 0.12769,0.13581 0.28677,0.19225 0.35354,0.12541 0.0668,-0.0668 1.86534,-5.71438 3.99684,-12.55008 2.13146,-6.8357 5.38393,-17.2506 7.22773,-23.14419 l 3.35232,-10.71564 9.70611,-0.0694 c 8.96539,-0.0641 9.70609,-0.0353 9.70609,0.37793 0,0.24603 -1.06123,3.43243 -2.35831,7.08086 -1.29704,3.64845 -5.69855,16.00971 -9.78109,27.46949 -4.08254,11.45978 -10.75454,30.21213 -14.82663,41.6719 -4.07212,11.45979 -7.5795,21.22291 -7.79418,21.69586 l -0.39033,0.8599 h -9.50545 c -6.13524,0 -9.56413,-0.0951 -9.67097,-0.26812 z M 16.825921,281.3692 c -5.900854,-1.10494 -11.3709945,-3.97254 -15.6336947,-8.19564 -8.5377598,-8.45843 -12.0210983,-22.27046 -8.9959298,-35.67031 2.74598,-12.16314 10.97961,-21.20603 22.0228005,-24.18737 2.342472,-0.6324 3.002908,-0.69282 7.58851,-0.69421 4.711275,-0.001 5.167105,0.0429 7.351019,0.71413 2.763521,0.84945 4.508517,1.69378 6.659759,3.22237 1.62673,1.15588 3.894709,3.40307 4.740184,4.69671 0.261537,0.40018 0.580803,0.7276 0.70948,0.7276 0.133678,0 0.235501,-8.87405 0.237559,-20.7037 0.002,-11.3871 0.07537,-20.97169 0.163006,-21.29912 l 0.159404,-0.59532 h 8.532393 c 7.536568,0 8.551129,0.0489 8.692853,0.41852 0.209787,0.54714 0.209787,98.89319 0,99.44032 -0.141724,0.36967 -1.156505,0.41852 -8.695399,0.41852 -7.538884,0 -8.553665,-0.0488 -8.69541,-0.41852 -0.08824,-0.23018 -0.160461,-1.89705 -0.160461,-3.70417 0,-1.8071 -0.08924,-3.28521 -0.198267,-3.28467 -0.109041,5.3e-4 -0.792127,0.73642 -1.517979,1.63526 -2.560173,3.17035 -7.078372,6.12117 -11.104933,7.25257 -2.208942,0.62066 -9.05274,0.75173 -11.854894,0.22703 z m 11.032888,-17.31053 c 4.86992,-1.24658 8.927138,-4.55779 11.124779,-9.07923 1.435752,-2.9539 1.9789,-5.29242 1.98511,-8.5468 0.01787,-9.3802 -7.024895,-17.19077 -16.01132,-17.75683 -8.01787,-0.50504 -15.2484915,4.9369 -17.4727615,13.15043 -0.63479,2.34407 -0.62935,7.17739 0.0107,9.52501 2.5529195,9.36348 11.5335965,14.96769 20.3634825,12.70742 z m 195.845361,17.3235 c -11.32843,-2.05528 -20.18337,-10.05628 -23.96385,-21.65284 -1.33634,-4.09918 -1.84255,-7.56163 -1.84379,-12.61141 -0.001,-5.49488 0.44371,-8.42913 1.98653,-13.09689 1.76437,-5.33808 4.31165,-9.53438 8.03049,-13.22917 3.62131,-3.59791 8.02567,-6.1248 13.03058,-7.47598 2.34247,-0.6324 3.00292,-0.69282 7.58851,-0.69421 4.71128,-0.001 5.16711,0.0429 7.35102,0.71413 2.76352,0.84945 4.50852,1.69378 6.65976,3.22237 1.62672,1.15588 3.89471,3.40307 4.74018,4.69671 0.26154,0.40018 0.57745,0.7276 0.70202,0.7276 0.12457,0 0.25959,-1.63711 0.30004,-3.63802 l 0.0736,-3.63803 8.6576,-0.0698 8.65759,-0.0698 v 32.551 32.55101 l -8.65759,-0.0698 -8.6576,-0.0698 -0.0736,-3.63803 c -0.0405,-2.0009 -0.16673,-3.63802 -0.28061,-3.63802 -0.11389,0 -0.82942,0.753 -1.59008,1.67332 -3.0715,3.7162 -7.05471,6.20136 -11.74248,7.32619 -2.5812,0.61937 -7.92021,0.6823 -10.96832,0.1293 z m 11.04079,-16.49752 c 2.53484,-0.81843 4.91093,-2.31648 7.00134,-4.41413 2.19285,-2.20048 3.33448,-4.04221 4.46187,-7.19807 0.78333,-2.19277 0.8281,-2.52545 0.8281,-6.15453 0,-3.62908 -0.0447,-3.96177 -0.8281,-6.15453 -1.11422,-3.11899 -2.24926,-4.94764 -4.45949,-7.18453 -3.28937,-3.32904 -6.74248,-4.88033 -11.36556,-5.10593 -3.16499,-0.15444 -5.43525,0.30128 -8.18768,1.64354 -7.38496,3.60137 -11.4867,12.29949 -9.7686,20.71522 0.50897,2.49304 2.29251,6.29238 3.88487,8.27561 2.17802,2.71267 5.86838,5.04518 9.39456,5.93794 2.15699,0.5461 6.80479,0.36068 9.03869,-0.36059 z m -11.72811,-10.37759 c -0.51115,-0.40242 -0.69654,-0.79047 -0.69654,-1.45793 0,-0.81617 0.48185,-1.41822 4.69229,-5.86286 7.71382,-8.14288 7.29385,-7.74127 8.09514,-7.74127 1.55069,0 2.37317,1.21246 1.69211,2.49443 -0.41661,0.78417 -11.4711,12.51435 -12.12213,12.86307 -0.67039,0.3591 -0.87591,0.32254 -1.66087,-0.29544 z M 91.86148,281.22049 c -2.44002,-0.35192 -6.080176,-1.47136 -8.547402,-2.62855 -9.790185,-4.5918 -16.70758,-13.61568 -19.119604,-24.94187 -0.457177,-2.14678 -0.574075,-3.58465 -0.574075,-7.06132 0,-4.89226 0.487485,-7.88331 1.970195,-12.0884 5.557072,-15.76034 20.765816,-25.10784 36.461076,-22.40941 14.08295,2.42122 24.90776,13.86036 27.3843,28.93842 0.50703,3.08694 0.3459,9.96222 -0.30392,12.96774 -3.07133,14.20563 -13.67468,24.74737 -27.28063,27.12211 -2.42724,0.42363 -7.404991,0.47411 -9.98994,0.10128 z M 93.0972,270.0662 c 1.333688,-0.8114 25.35312,-26.21063 25.91976,-27.40875 0.53122,-1.12318 0.57533,-2.2578 0.12719,-3.27149 -0.5191,-1.17422 -9.99972,-11.08888 -10.5177,-10.9992 -0.50749,0.0879 -29.14263,30.19583 -29.273926,30.77962 -0.106871,0.47519 9.228369,10.41862 10.351001,11.02536 1.142721,0.61761 2.238795,0.57706 3.393675,-0.12554 z M 78.540065,252.47573 c 9.924344,-10.17674 26.274785,-27.7306 26.274785,-28.20867 0,-0.75705 -1.56562,-1.75541 -2.75285,-1.75541 -0.526,0 -1.3294,0.20836 -1.78532,0.46302 -0.455924,0.25466 -5.559409,5.46365 -11.341077,11.57553 -5.78167,6.11188 -11.428515,12.07586 -12.548545,13.25331 -2.159155,2.2698 -2.797629,3.52146 -2.527084,4.95405 0.204055,1.08053 1.104387,2.56244 1.556798,2.56244 0.192259,0 1.597738,-1.27991 3.123293,-2.84427 z m 55.344945,26.85891 c -0.07,-0.18392 -0.0966,-14.80051 -0.0592,-32.4813 l 0.068,-32.14691 h 8.59151 8.59151 l 0.0735,3.63803 c 0.0538,2.65912 0.16046,3.63405 0.39653,3.62326 0.17764,-0.008 0.83913,-0.66907 1.46997,-1.46878 2.38082,-3.01811 5.97181,-5.47537 10.16611,-6.95652 l 2.69768,-0.95266 4.6262,0.021 c 5.50013,0.0249 7.35792,0.42378 11.50685,2.47038 5.79326,2.8577 9.2883,7.71099 10.87659,15.10346 0.44758,2.08317 0.4832,3.98493 0.4832,25.7969 v 23.54794 l -8.64408,0.0697 -8.64408,0.0697 -0.0892,-20.44268 c -0.0877,-20.09477 -0.099,-20.47791 -0.66863,-22.51291 -1.10614,-3.95191 -2.82476,-6.13394 -6.00406,-7.623 -3.02899,-1.41866 -7.31074,-1.29208 -10.62234,0.31403 -3.09363,1.5004 -5.87195,5.39391 -6.88157,9.64379 -0.38135,1.60521 -0.46017,4.4265 -0.59137,21.16668 l -0.15138,19.3146 -8.53231,0.0698 c -6.68392,0.0547 -8.55988,-0.003 -8.65953,-0.26457 z m 139.35315,-0.0879 c -0.24389,-0.63615 -0.18644,-63.9596 0.0583,-64.34561 0.16534,-0.26071 2.10261,-0.31905 8.78572,-0.26458 l 8.57362,0.0699 0.0729,4.1672 c 0.0401,2.29195 0.17742,4.1672 0.30532,4.1672 0.12786,0 0.53351,-0.50603 0.90144,-1.12449 2.61146,-4.3899 7.40736,-7.94812 12.25031,-9.08886 3.60513,-0.84916 11.71594,0.10055 11.71594,1.37184 0,0.45149 -5.00137,14.42199 -5.27361,14.73094 -0.0974,0.11049 -1.7759,0.25276 -3.73011,0.31615 -9.18865,0.29804 -13.30449,3.13506 -15.37152,10.59546 -0.57332,2.06924 -0.58966,2.53765 -0.72851,20.9021 l -0.14208,18.78544 -8.62794,0.0697 c -7.69543,0.0622 -8.64543,0.0241 -8.78978,-0.35236 z m 121.93946,-54.4543 c -3.45326,-1.23512 -5.13474,-5.1657 -3.66887,-8.57618 2.0479,-4.7646 8.34056,-5.08806 10.65745,-0.54782 2.59338,5.08212 -1.89731,10.94501 -6.98858,9.124 z m 3.64802,-0.97473 c 1.80758,-0.68354 3.23962,-2.90626 3.24974,-5.04408 0.0143,-3.0144 -2.39851,-5.53405 -5.28126,-5.51514 -1.86656,0.0123 -4.23076,2.00032 -4.77225,4.01303 -0.48823,1.81471 0.21715,4.40886 1.50578,5.53772 1.38865,1.21649 3.62316,1.64182 5.29799,1.00847 z m -4.09349,-1.88816 c -0.43632,-0.43669 -0.43632,-6.07207 0,-6.50875 0.18493,-0.18512 1.07182,-0.3175 2.12687,-0.3175 1.56884,0 1.89593,0.0864 2.45849,0.64942 0.67708,0.67769 0.83295,1.68691 0.38878,2.51757 -0.17198,0.32164 -0.16537,0.99908 0.0196,2.00032 0.20141,1.09049 0.19819,1.59547 -0.0116,1.8054 -0.38474,0.38505 -1.17381,-0.0985 -1.27826,-0.78336 -0.25041,-1.64194 -0.29089,-1.69145 -1.38262,-1.69145 -1.0423,0 -1.05237,0.01 -1.05237,1.00542 0,0.89997 -0.35799,1.64043 -0.79306,1.64043 -0.0873,0 -0.30137,-0.14288 -0.47584,-0.3175 z m 3.34078,-3.88367 c 0.19447,-0.12337 0.31341,-0.5085 0.26435,-0.85585 -0.0771,-0.54511 -0.23342,-0.63153 -1.14301,-0.63153 -1.08261,0 -1.43785,0.4355 -1.0917,1.33836 0.15919,0.41518 1.40261,0.5092 1.97036,0.14902 z"
       id="path6615" />
  </g>
</svg>
