<svg width="100" height="101" viewBox="0 0 100 101" fill="none" xmlns="http://www.w3.org/2000/svg">
<g clip-path="url(#clip0)">
<path d="M50.0162 0C22.4017 0 0.00865097 22.3692 2.50475e-06 49.9838C-0.00864596 77.5983 22.3801 99.9935 49.9859 100.002C77.5918 100.011 100 77.6308 100 50.0162V50.0011C100 22.3909 77.6264 0.00864846 50.0162 0V0ZM17.1521 62.1457C16.0524 61.0453 15.4346 59.5533 15.4346 57.9977C15.4346 56.442 16.0524 54.95 17.1521 53.8496L53.8021 17.1758C54.9024 16.0762 56.3944 15.4584 57.9501 15.4584C59.5058 15.4584 60.9978 16.0762 62.0981 17.1758L63.0603 18.138L18.1229 63.11L17.1521 62.1457ZM82.7225 46.1352L46.0898 82.7766C44.9894 83.8769 43.4969 84.4951 41.9407 84.4951C40.3845 84.4951 38.8921 83.8769 37.7916 82.7766L23.2017 68.1542L68.1391 23.2168L82.7615 37.8392C83.3042 38.3859 83.734 39.0341 84.0263 39.7469C84.3185 40.4597 84.4675 41.2231 84.4647 41.9935C84.4618 42.7638 84.3073 43.5261 84.0099 44.2368C83.7125 44.9474 83.2779 45.5925 82.7312 46.1352H82.7225Z" fill="white"/>
</g>
<defs>
<clipPath id="clip0">
<rect width="100" height="100.002" fill="white"/>
</clipPath>
</defs>
</svg>
