<svg width="130" height="35" viewBox="0 0 130 35" fill="none" xmlns="http://www.w3.org/2000/svg">
<path d="M28.25 3.5H26.5V0H23V3.5H9V0H5.5V3.5H3.75C1.81625 3.5 0.25 5.06625 0.25 7V31.5C0.25 33.4338 1.81625 35 3.75 35H28.25C30.1838 35 31.75 33.4338 31.75 31.5V7C31.75 5.06625 30.1838 3.5 28.25 3.5ZM16 8.75C18.8962 8.75 21.25 11.1038 21.25 14C21.25 16.905 18.8962 19.25 16 19.25C13.1038 19.25 10.75 16.905 10.75 14C10.75 11.1038 13.1038 8.75 16 8.75ZM26.5 29.75H5.5V28C5.5 24.5 12.5 22.575 16 22.575C19.5 22.575 26.5 24.5 26.5 28V29.75Z" fill="#7B5BC4"/>
<path d="M126 3.5H124.25V0H120.75V3.5H106.75V0H103.25V3.5H101.5C99.5662 3.5 98 5.06625 98 7V31.5C98 33.4338 99.5662 35 101.5 35H126C127.934 35 129.5 33.4338 129.5 31.5V7C129.5 5.06625 127.934 3.5 126 3.5ZM113.75 8.75C116.646 8.75 119 11.1038 119 14C119 16.905 116.646 19.25 113.75 19.25C110.854 19.25 108.5 16.905 108.5 14C108.5 11.1038 110.854 8.75 113.75 8.75ZM124.25 29.75H103.25V28C103.25 24.5 110.25 22.575 113.75 22.575C117.25 22.575 124.25 24.5 124.25 28V29.75Z" fill="#B6A9D3"/>
</svg>
