<svg width="160" height="29" viewBox="0 0 160 29" fill="none" xmlns="http://www.w3.org/2000/svg">
<g clip-path="url(#clip0)">
<path d="M32.333 5H30.595L29.131 2.458C28.9514 2.12853 28.6855 1.85409 28.362 1.66403C28.0384 1.47397 27.6692 1.37545 27.294 1.379H20.164C19.9909 1.38569 19.8271 1.45915 19.7071 1.58398C19.587 1.7088 19.5199 1.87529 19.5199 2.0485C19.5199 2.22171 19.587 2.3882 19.7071 2.51302C19.8271 2.63785 19.9909 2.71131 20.164 2.718H27.294C27.4347 2.71557 27.5731 2.75296 27.6935 2.82586C27.8138 2.89876 27.911 3.0042 27.974 3.13L29.049 5H19.888C19.708 4.99774 19.5319 4.94741 19.3779 4.85423C19.2238 4.76104 19.0975 4.62839 19.012 4.47L17.112 1.145C16.8988 0.797408 16.6005 0.509878 16.2453 0.309543C15.8901 0.109209 15.4898 0.00267655 15.082 0L2.323 0C1.70706 0.000529609 1.11651 0.245444 0.680976 0.680976C0.245444 1.11651 0.000529609 1.70706 0 2.323L0 25.679C0.00105885 26.2946 0.246206 26.8846 0.681681 27.3197C1.11716 27.7548 1.70741 27.9995 2.323 28H32.334C32.9553 28.0053 33.5534 27.7639 33.997 27.3288C34.4406 26.8937 34.6934 26.3003 34.7 25.679V7.325C34.6942 6.70288 34.4416 6.10852 33.9978 5.67255C33.5539 5.23658 32.9551 4.99467 32.333 5ZM20.285 20.375C20.2287 20.9266 20.0183 21.4513 19.678 21.889C19.2828 22.2276 18.8189 22.4766 18.3183 22.6187C17.8176 22.7607 17.2921 22.7926 16.778 22.712C16.702 22.702 16.626 22.691 16.55 22.678C13.658 22.178 10.84 19.497 9.45 17.524C8.026 15.5 6.389 11.789 7.032 8.879C7.1294 8.36806 7.33636 7.88429 7.63864 7.461C7.94091 7.03771 8.33133 6.68495 8.783 6.427C9.30985 6.25243 9.87542 6.23093 10.414 6.365C10.4709 6.37489 10.5236 6.40131 10.5656 6.44097C10.6075 6.48062 10.6369 6.53176 10.65 6.588C11.074 8.402 11.496 10.319 11.584 10.896C11.5909 10.941 11.5873 10.987 11.5734 11.0304C11.5596 11.0738 11.5358 11.1134 11.504 11.146C11.0742 11.5454 10.616 11.913 10.133 12.246L10.11 12.26C9.726 12.518 9.786 13.214 9.81 13.523C10.325 15.5779 11.588 17.3668 13.352 18.54C13.63 18.665 14.259 18.951 14.63 18.676C14.63 18.676 14.636 18.67 14.651 18.66C15.1253 18.3191 15.6232 18.0123 16.141 17.742C16.1823 17.723 16.2275 17.7138 16.2729 17.7152C16.3184 17.7166 16.3629 17.7285 16.403 17.75C16.941 18.037 18.595 19.074 20.151 20.078C20.1996 20.1093 20.2381 20.154 20.2618 20.2067C20.2856 20.2594 20.2937 20.3178 20.285 20.375V20.375Z" fill="#7B5BC4"/>
</g>
<g clip-path="url(#clip1)">
<path d="M157.333 5H155.595L154.131 2.458C153.951 2.12853 153.686 1.85409 153.362 1.66403C153.038 1.47397 152.669 1.37545 152.294 1.379H145.164C144.991 1.38569 144.827 1.45915 144.707 1.58398C144.587 1.7088 144.52 1.87529 144.52 2.0485C144.52 2.22171 144.587 2.3882 144.707 2.51302C144.827 2.63785 144.991 2.71131 145.164 2.718H152.294C152.435 2.71557 152.573 2.75296 152.693 2.82586C152.814 2.89876 152.911 3.0042 152.974 3.13L154.049 5H144.888C144.708 4.99774 144.532 4.94741 144.378 4.85423C144.224 4.76104 144.098 4.62839 144.012 4.47L142.112 1.145C141.899 0.797408 141.6 0.509878 141.245 0.309543C140.89 0.109209 140.49 0.00267655 140.082 0L127.323 0C126.707 0.000529609 126.117 0.245444 125.681 0.680976C125.245 1.11651 125.001 1.70706 125 2.323V25.679C125.001 26.2946 125.246 26.8846 125.682 27.3197C126.117 27.7548 126.707 27.9995 127.323 28H157.334C157.955 28.0053 158.553 27.7639 158.997 27.3288C159.441 26.8937 159.693 26.3003 159.7 25.679V7.325C159.694 6.70288 159.442 6.10852 158.998 5.67255C158.554 5.23658 157.955 4.99467 157.333 5ZM145.285 20.375C145.229 20.9266 145.018 21.4513 144.678 21.889C144.283 22.2276 143.819 22.4766 143.318 22.6187C142.818 22.7607 142.292 22.7926 141.778 22.712C141.702 22.702 141.626 22.691 141.55 22.678C138.658 22.178 135.84 19.497 134.45 17.524C133.026 15.5 131.389 11.789 132.032 8.879C132.129 8.36806 132.336 7.88429 132.639 7.461C132.941 7.03771 133.331 6.68495 133.783 6.427C134.31 6.25243 134.875 6.23093 135.414 6.365C135.471 6.37489 135.524 6.40131 135.566 6.44097C135.608 6.48062 135.637 6.53176 135.65 6.588C136.074 8.402 136.496 10.319 136.584 10.896C136.591 10.941 136.587 10.987 136.573 11.0304C136.56 11.0738 136.536 11.1134 136.504 11.146C136.074 11.5454 135.616 11.913 135.133 12.246L135.11 12.26C134.726 12.518 134.786 13.214 134.81 13.523C135.325 15.5779 136.588 17.3668 138.352 18.54C138.63 18.665 139.259 18.951 139.63 18.676C139.63 18.676 139.636 18.67 139.651 18.66C140.125 18.3191 140.623 18.0123 141.141 17.742C141.182 17.723 141.227 17.7138 141.273 17.7152C141.318 17.7166 141.363 17.7285 141.403 17.75C141.941 18.037 143.595 19.074 145.151 20.078C145.2 20.1093 145.238 20.154 145.262 20.2067C145.286 20.2594 145.294 20.3178 145.285 20.375V20.375Z" fill="#B1A5CC"/>
</g>
<defs>
<clipPath id="clip0">
<rect width="34.696" height="28.002" fill="white"/>
</clipPath>
<clipPath id="clip1">
<rect width="34.696" height="28.002" fill="white" transform="translate(125)"/>
</clipPath>
</defs>
</svg>
