<svg id="Layer_2" data-name="Layer 2" xmlns="http://www.w3.org/2000/svg" width="34.696" height="28.002" viewBox="0 0 34.696 28.002">
  <g id="Layer_1" data-name="Layer 1">
    <path id="Path_29" data-name="Path 29" d="M32.333,5H30.595L29.131,2.458a2.07,2.07,0,0,0-1.837-1.079h-7.13a.67.67,0,0,0,0,1.339h7.13a.746.746,0,0,1,.68.412L29.049,5H19.888a1.01,1.01,0,0,1-.876-.53l-1.9-3.325A2.4,2.4,0,0,0,15.082,0H2.323A2.325,2.325,0,0,0,0,2.323V25.679A2.325,2.325,0,0,0,2.323,28H32.334A2.346,2.346,0,0,0,34.7,25.679V7.325A2.347,2.347,0,0,0,32.333,5ZM20.285,20.375a2.956,2.956,0,0,1-.607,1.514,3.6,3.6,0,0,1-2.9.823c-.076-.01-.152-.021-.228-.034-2.892-.5-5.71-3.181-7.1-5.154C8.026,15.5,6.389,11.789,7.032,8.879A3.6,3.6,0,0,1,8.783,6.427a2.933,2.933,0,0,1,1.631-.062.294.294,0,0,1,.236.223c.424,1.814.846,3.731.934,4.308a.294.294,0,0,1-.08.25,12.119,12.119,0,0,1-1.371,1.1l-.023.014c-.384.258-.324.954-.3,1.263a8.51,8.51,0,0,0,3.542,5.017c.278.125.907.411,1.278.136,0,0,.006-.006.021-.016a12.316,12.316,0,0,1,1.49-.918.294.294,0,0,1,.262.008c.538.287,2.192,1.324,3.748,2.328A.3.3,0,0,1,20.285,20.375Z" fill="#b1a5cc"/>
  </g>
</svg>
