<svg width="24" height="26" viewBox="0 0 24 26" fill="none" xmlns="http://www.w3.org/2000/svg">
<path d="M21.3333 2.6H20V0H17.3333V2.6H6.66667V0H4V2.6H2.66667C1.19333 2.6 0 3.7635 0 5.2V23.4C0 24.8365 1.19333 26 2.66667 26H21.3333C22.8067 26 24 24.8365 24 23.4V5.2C24 3.7635 22.8067 2.6 21.3333 2.6ZM12 6.5C14.2066 6.5 16 8.24854 16 10.4C16 12.558 14.2066 14.3 12 14.3C9.79337 14.3 8 12.558 8 10.4C8 8.24854 9.79337 6.5 12 6.5ZM20 22.1H4V20.8C4 18.2 9.33333 16.77 12 16.77C14.6667 16.77 20 18.2 20 20.8V22.1Z" fill="#7B5BC4"/>
</svg>
