<svg width="14" height="14" viewBox="0 0 14 14" fill="none" xmlns="http://www.w3.org/2000/svg">
<g clip-path="url(#clip0)">
<path d="M6.79663 13.9143C6.91038 14.0284 7.09506 14.0286 7.20911 13.9148C7.20927 13.9147 7.20946 13.9145 7.20963 13.9143L12.4596 8.66432C12.5715 8.54846 12.5683 8.36381 12.4525 8.25189C12.3394 8.14273 12.1602 8.14273 12.0472 8.25189L7.2948 13.0043L7.2948 0.291743C7.2948 0.130661 7.16421 6.79493e-05 7.00313 6.79493e-05C6.84204 6.79493e-05 6.71145 0.130661 6.71145 0.291743L6.71145 13.0043L1.95963 8.25249C1.84771 8.13664 1.66308 8.13341 1.5472 8.24533C1.43135 8.35725 1.42815 8.54187 1.54004 8.65775C1.54239 8.66019 1.54477 8.66257 1.5472 8.66492L6.79663 13.9143Z" fill="#4CAF50"/>
<path d="M1.75322 8.16706C1.83063 8.16692 1.90493 8.19755 1.95972 8.25223L7.00322 13.2963L12.0467 8.25221C12.1626 8.14029 12.3472 8.14352 12.4591 8.25937C12.5683 8.37241 12.5683 8.55159 12.4591 8.66461L7.20915 13.9146C7.09526 14.0285 6.91064 14.0285 6.79672 13.9146L1.54672 8.66461C1.433 8.55053 1.43327 8.36585 1.54738 8.25213C1.60204 8.19766 1.67606 8.16706 1.75322 8.16706Z" fill="#FF9E0C"/>
<path d="M7.00324 0C7.16433 0 7.29492 0.130594 7.29492 0.291676L7.29492 13.7083C7.29492 13.8694 7.16433 14 7.00324 14C6.84216 14 6.71157 13.8694 6.71157 13.7083L6.71157 0.291648C6.71159 0.130593 6.84216 0 7.00324 0Z" fill="#FF9E0C"/>
</g>
<defs>
<clipPath id="clip0">
<rect width="14" height="14" fill="white" transform="translate(14 14) rotate(-180)"/>
</clipPath>
</defs>
</svg>
