<svg width="46" height="47" viewBox="0 0 46 47" fill="none" xmlns="http://www.w3.org/2000/svg">
<path d="M0 37.2095V47H9.58216L37.8427 18.1251L28.2605 8.33463L0 37.2095ZM45.2525 10.5537C45.4895 10.3122 45.6774 10.0253 45.8057 9.70944C45.934 9.39359 46 9.05499 46 8.71304C46 8.37108 45.934 8.03249 45.8057 7.71664C45.6774 7.4008 45.4895 7.11391 45.2525 6.8724L39.2733 0.763737C39.0369 0.521642 38.7561 0.329567 38.447 0.198513C38.1379 0.0674589 37.8065 0 37.4718 0C37.1371 0 36.8057 0.0674589 36.4966 0.198513C36.1875 0.329567 35.9067 0.521642 35.6703 0.763737L30.9943 5.54141L40.5744 15.3319L45.2504 10.5542L45.2525 10.5537Z" fill="#7B5BC4"/>
</svg>
