<svg width="20" height="20" viewBox="0 0 20 20" fill="none" xmlns="http://www.w3.org/2000/svg">
<g clip-path="url(#clip0)">
<path d="M18.8996 1.10016C18.1664 0.366765 17.283 0 16.2501 0H3.74998C2.71709 0 1.83369 0.366765 1.10016 1.10016C0.366766 1.83369 0 2.71703 0 3.74997V16.2499C0 17.2827 0.366766 18.1662 1.10016 18.8997C1.83369 19.6332 2.71709 20 3.74998 20H16.2499C17.2828 20 18.1662 19.6332 18.8994 18.8997C19.633 18.1662 19.9997 17.2828 19.9997 16.2499V3.74997C19.9997 2.71703 19.6329 1.83355 18.8996 1.10016ZM16.6666 10.4165C16.6666 10.7811 16.4971 11.0371 16.1588 11.1847C16.0461 11.2281 15.9372 11.2498 15.8332 11.2498C15.599 11.2498 15.4037 11.1672 15.2473 11.0024L13.3724 9.12749L6.41959 16.0807C6.25445 16.2455 6.0593 16.3281 5.83355 16.3281C5.6077 16.3281 5.41237 16.2455 5.24746 16.0807L3.91936 14.7524C3.7544 14.5877 3.6719 14.392 3.6719 14.1665C3.6719 13.941 3.7544 13.7456 3.91936 13.5807L10.8726 6.62745L8.99757 4.75248C8.7284 4.50074 8.6677 4.19709 8.81519 3.84105C8.96268 3.5026 9.2189 3.33317 9.58348 3.33317H15.8332C16.0589 3.33317 16.2543 3.41572 16.4194 3.58072C16.5842 3.74555 16.6667 3.94092 16.6667 4.16663V10.4165H16.6666Z" fill="#7B5BC4"/>
</g>
<defs>
<clipPath id="clip0">
<rect width="20" height="20" fill="white"/>
</clipPath>
</defs>
</svg>
