<svg width="20" height="20" viewBox="0 0 20 20" fill="none" xmlns="http://www.w3.org/2000/svg">
<g clip-path="url(#clip0)">
<path d="M10.0001 7.27295C8.49563 7.27295 7.27295 8.49563 7.27295 10.0001C7.27295 11.5047 8.49563 12.7273 10.0001 12.7273C11.5047 12.7273 12.7273 11.5047 12.7273 10.0001C12.7273 8.49563 11.5046 7.27295 10.0001 7.27295Z" fill="#BABABA"/>
<path d="M10 3.18237C5.45455 3.18237 1.57274 6.00962 0 10.0006C1.57274 13.9915 5.45455 16.8187 10 16.8187C14.55 16.8187 18.4273 13.9915 20 10.0006C18.4273 6.00962 14.55 3.18237 10 3.18237ZM10 14.546C7.49093 14.546 5.45455 12.5096 5.45455 10.0005C5.45455 7.49142 7.49093 5.45509 10 5.45509C12.5091 5.45509 14.5455 7.49147 14.5455 10.0006C14.5455 12.5097 12.5091 14.546 10 14.546Z" fill="#BABABA"/>
</g>
<defs>
<clipPath id="clip0">
<rect width="20" height="20" fill="white"/>
</clipPath>
</defs>
</svg>
