<svg width="379" height="379" viewBox="0 0 379 379" fill="none" xmlns="http://www.w3.org/2000/svg">
<path d="M189.5 379C294.158 379 379 294.158 379 189.5C379 84.842 294.158 0 189.5 0C84.842 0 0 84.842 0 189.5C0 294.158 84.842 379 189.5 379Z" fill="#4AD395"/>
<path d="M374.427 231.014L257.764 114.351C243.519 98.0033 223.614 98.3749 200.278 98.3749C200.278 98.3749 117.543 118.927 117.543 161.735L128.833 272.243L231.015 374.425C302.341 358.484 358.484 302.34 374.427 231.014Z" fill="#47CB8F"/>
<path d="M190.98 192.14V221.252H233.1C229.65 236.775 215.771 248.412 199.219 248.412H179.781C160.638 248.412 145.071 232.844 145.071 213.702V165.291C145.071 146.156 160.638 130.588 179.781 130.588H199.219C218.362 130.588 233.929 146.156 233.929 165.291H276.862C276.862 122.483 242.034 87.6548 199.219 87.6548H179.781C136.966 87.6548 102.138 122.483 102.138 165.291V213.702C102.138 256.517 136.966 291.345 179.781 291.345H199.219C200.064 291.345 200.905 291.327 201.743 291.3C212.278 291.058 230.427 289.729 251.659 277.078C274.695 263.352 276.861 245.021 276.861 232.158C276.861 227.622 276.861 220.777 276.861 213.816C276.861 213.778 276.862 213.74 276.862 213.702V192.14H190.98Z" fill="#F8FFFB"/>
<path d="M199.219 130.592H189.5V87.6586H199.219C242.034 87.6586 276.862 122.479 276.862 165.294H233.929C233.929 146.152 218.362 130.592 199.219 130.592Z" fill="white"/>
<path d="M190.98 192.143H276.862V232.16C276.862 245.025 274.694 263.353 251.657 277.077C230.428 289.728 212.277 291.06 201.743 291.297C200.907 291.327 200.063 291.341 199.219 291.341H189.5V248.408H199.219C215.771 248.408 229.65 236.771 233.1 221.256H190.98V192.143Z" fill="white"/>
</svg>
