<svg width="512" height="512" viewBox="0 0 512 512" fill="none" xmlns="http://www.w3.org/2000/svg">
<path d="M277.332 384C277.332 395.781 267.781 405.332 256 405.332C244.219 405.332 234.668 395.781 234.668 384C234.668 372.219 244.219 362.668 256 362.668C267.781 362.668 277.332 372.219 277.332 384Z" fill="#7B5BC4"/>
<path d="M256 512C114.836 512 0 397.164 0 256C0 114.836 114.836 0 256 0C397.164 0 512 114.836 512 256C512 397.164 397.164 512 256 512ZM256 32C132.48 32 32 132.48 32 256C32 379.52 132.48 480 256 480C379.52 480 480 379.52 480 256C480 132.48 379.52 32 256 32Z" fill="#7B5BC4"/>
<path d="M256 314.668C247.168 314.668 240 307.5 240 298.668V277.121C240 256.812 252.887 238.613 272.043 231.852C297.535 222.871 314.668 195.711 314.668 176C314.668 143.637 288.363 117.332 256 117.332C223.637 117.332 197.332 143.637 197.332 176C197.332 184.832 190.164 192 181.332 192C172.5 192 165.332 184.832 165.332 176C165.332 126.016 205.996 85.332 256 85.332C306.004 85.332 346.668 126.016 346.668 176C346.668 211.586 318.57 249.367 282.688 262.039C276.289 264.277 272 270.355 272 277.141V298.668C272 307.5 264.832 314.668 256 314.668V314.668Z" fill="#7B5BC4"/>
</svg>
