<svg xmlns="http://www.w3.org/2000/svg" width="23.76" height="23.76" viewBox="0 0 23.76 23.76">
  <path id="icons8-quickbooks" d="M14.88,3A11.88,11.88,0,1,0,26.76,14.88,11.894,11.894,0,0,0,14.88,3Zm0,1.828A10.052,10.052,0,1,1,4.828,14.88,10.039,10.039,0,0,1,14.88,4.828Zm.914,3.655V19.449h3.655A3.908,3.908,0,0,0,23.1,15.337a3.908,3.908,0,0,0-3.655-4.112v1.828a2.092,2.092,0,0,1,1.828,2.285,2.092,2.092,0,0,1-1.828,2.285H17.622V8.483Zm-5.483,1.828a3.908,3.908,0,0,0-3.655,4.112,3.908,3.908,0,0,0,3.655,4.112V16.708a2.092,2.092,0,0,1-1.828-2.285,2.092,2.092,0,0,1,1.828-2.285h1.828v9.139h1.828V10.311H10.311Z" transform="translate(-3 -3)" fill="#fff" opacity="0.5"/>
</svg>
