<svg xmlns="http://www.w3.org/2000/svg" width="50" height="50" viewBox="0 0 50 50">
  <g id="Group_2603" data-name="Group 2603" transform="translate(-1017 -248)">
    <rect id="Rectangle_4947" data-name="Rectangle 4947" width="50" height="50" rx="25" transform="translate(1017 248)" fill="#eae9ed"/>
    <g id="Icon_feather-calendar" data-name="Icon feather-calendar" transform="translate(1029 260.5)">
      <path id="Path_1745" data-name="Path 1745" d="M6,4.5H20a3,3,0,0,1,3,3v14a3,3,0,0,1-3,3H6a3,3,0,0,1-3-3V7.5A3,3,0,0,1,6,4.5Zm14,18a1,1,0,0,0,1-1V7.5a1,1,0,0,0-1-1H6a1,1,0,0,0-1,1v14a1,1,0,0,0,1,1Z" transform="translate(0 -1)" fill="#7b5bc4"/>
      <path id="Path_1746" data-name="Path 1746" d="M23.5,7.5a1,1,0,0,1-1-1v-4a1,1,0,0,1,2,0v4A1,1,0,0,1,23.5,7.5Z" transform="translate(-6.5 0)" fill="#7b5bc4"/>
      <path id="Path_1747" data-name="Path 1747" d="M11.5,7.5a1,1,0,0,1-1-1v-4a1,1,0,1,1,2,0v4A1,1,0,0,1,11.5,7.5Z" transform="translate(-2.5 0)" fill="#7b5bc4"/>
      <path id="Path_1748" data-name="Path 1748" d="M22,15.5H4a1,1,0,1,1,0-2H22a1,1,0,1,1,0,2Z" transform="translate(0 -4)" fill="#7b5bc4"/>
    </g>
  </g>
</svg>
