<svg id="upc-scan" xmlns="http://www.w3.org/2000/svg" width="30" height="30" viewBox="0 0 30 30">
	<path id="Path_19117" data-name="Path 19117"
		d="M2.813,1.875a.938.938,0,0,0-.937.938V8.438A.938.938,0,1,1,0,8.438V2.813A2.813,2.813,0,0,1,2.813,0H8.438a.938.938,0,0,1,0,1.875ZM20.625.938A.938.938,0,0,1,21.563,0h5.625A2.812,2.812,0,0,1,30,2.813V8.438a.938.938,0,0,1-1.875,0V2.813a.938.938,0,0,0-.937-.937H21.563a.938.938,0,0,1-.937-.938ZM.938,20.625a.938.938,0,0,1,.938.938v5.625a.938.938,0,0,0,.938.938H8.438a.938.938,0,0,1,0,1.875H2.813A2.812,2.812,0,0,1,0,27.188V21.563a.938.938,0,0,1,.938-.937Zm28.125,0a.938.938,0,0,1,.938.938v5.625A2.812,2.812,0,0,1,27.188,30H21.563a.938.938,0,0,1,0-1.875h5.625a.938.938,0,0,0,.938-.937V21.563A.938.938,0,0,1,29.063,20.625ZM5.625,8.438a.938.938,0,0,1,1.875,0V21.563a.938.938,0,0,1-1.875,0Zm3.75,0a.938.938,0,0,1,1.875,0V21.563a.938.938,0,0,1-1.875,0Zm3.75,0a.938.938,0,0,1,1.875,0V21.563a.938.938,0,0,1-1.875,0Zm3.75,0a.938.938,0,0,1,.938-.937h1.875a.938.938,0,0,1,.938.938V21.563a.938.938,0,0,1-.937.938H17.813a.938.938,0,0,1-.937-.937Zm5.625,0a.938.938,0,0,1,1.875,0V21.563a.938.938,0,0,1-1.875,0Z"
		fill="#3F94BF" />
</svg>