<svg xmlns="http://www.w3.org/2000/svg" width="9.086" height="12.3" viewBox="0 0 9.086 12.3">
  <path id="Path_1034" data-name="Path 1034" d="M1.264,4.672H6.059a5.779,5.779,0,0,1,1.372.165,3.518,3.518,0,0,1,1.207.539,2.78,2.78,0,0,1,1.19,2.389,2.522,2.522,0,0,1-.591,1.72,3.285,3.285,0,0,1-1.546.973v.035a3.18,3.18,0,0,1,1.068.321,2.831,2.831,0,0,1,.843.643,2.97,2.97,0,0,1,.547.9,3.01,3.01,0,0,1,.2,1.1,3.222,3.222,0,0,1-.4,1.676A3.171,3.171,0,0,1,8.9,16.216a4.5,4.5,0,0,1-1.494.582,8.451,8.451,0,0,1-1.711.174H1.264Zm2.189,5h2A2.648,2.648,0,0,0,7.092,9.25,1.351,1.351,0,0,0,7.64,8.129a1.349,1.349,0,0,0-.565-1.19A3.261,3.261,0,0,0,5.26,6.548H3.453Zm0,5.42H5.468a8.277,8.277,0,0,0,.895-.052A2.7,2.7,0,0,0,7.24,14.8a1.731,1.731,0,0,0,.66-.547,1.6,1.6,0,0,0,.261-.964,1.451,1.451,0,0,0-.634-1.355,3.935,3.935,0,0,0-1.972-.382h-2.1Z" transform="translate(-1.264 -4.672)" fill="#434246"/>
</svg>
