<svg xmlns="http://www.w3.org/2000/svg" xmlns:xlink="http://www.w3.org/1999/xlink" width="22" height="22" viewBox="0 0 22 22">
  <path id="Ellipse_366" data-name="Ellipse 366" d="M11,0A11,11,0,1,1,0,11s0-.005,0-.008v-.036H0v-.044H0v-.026H0v-.016H0V10.84H0v-.026H0v-.034H0v-.008H0v-.025H0v-.017H0v-.016H0v-.017H0v-.008H0v-.016h0v-.026h0V10.62h0v-.052h0v-.043h0v-.016h0v-.026h0v-.016h0v-.114h0V10.3h0v-.017h0v-.008h0v-.016h0v-.016h0v-.008h0v-.017h0v-.052h0v-.033h0v-.008h0V10.1h0v-.026h0v-.016h0v-.016h0v-.008h0v-.016h0v-.008h0V9.972h0V9.962h0V9.953l0-.016V9.928h0V9.9h0V9.859h0V9.832h0V9.816h0V9.8l0-.016V9.772h0V9.763h0V9.753l0-.016V9.729h0V9.72h0V9.7h0V9.694h0V9.686h0V9.677h0V9.66h0V9.634h0V9.617h0V9.6l0-.016V9.574h0V9.565h0V9.555l0-.016h0V9.531h0V9.522h0V9.512L.1,9.5V9.488h0V9.479h0V9.462h0V9.454h0V9.445h0V9.436h0V9.427l0-.016h0V9.4h0l0-.016h0V9.376h0V9.368h0V9.358l0-.016h0V9.334h0V9.316l0-.016h0V9.291h0V9.282h0V9.274h0l0-.016h0V9.249h0V9.24h0V9.232h0V9.223h0V9.214h0V9.206h0l0-.016V9.181h0V9.172h0V9.164h0l0-.016h0V9.138h0V9.129h0V9.12l0-.016h0V9.1h0V9.087h0V9.079h0l0-.016h0V9.054h0V9.044h0V9.035l0-.016h0V9.011h0l0-.016h0V8.986h0V8.977h0V8.969h0l0-.016h0V8.944h0V8.935h0V8.925l0-.015V8.9h0V8.893h0V8.876h0V8.851h0V8.834h0l0-.008v-.01l0-.008h0V8.793h0V8.774l0-.007h0V8.749l0-.007v-.01l0-.015V8.709h0l0-.008h0V8.69l0-.007h0l0-.008v-.01l0-.008h0V8.641h0l0-.008v-.01l0-.008h0l0-.007V8.6h0l0-.007v-.01l0-.007h0l0-.007V8.558h0l0-.007V8.54l0-.007V8.515l0-.007V8.49l0-.007v-.01l0-.007V8.449l0-.007v-.01l0-.007h0V8.408l0-.007V8.366l0-.007V8.324l0-.007V8.283l0-.006V8.262l0-.006V8.241l0-.006V8.221l0-.007V8.2l0-.007V8.18l0-.01h0V8.157l0-.008V8.139l0-.015V8.117h0l0-.01h0V8.1l0-.016h0V8.076h0l0-.011h0V8.059h0l0-.016h0l0-.005h0l0-.017h0l.012-.041h0l.034-.117a1.1,1.1,0,0,1,2.11.627A8.8,8.8,0,1,0,11,2.2,1.1,1.1,0,0,1,11,0Z" transform="translate(22) rotate(90)" opacity="1" fill="url(#radial-gradient)"/>
  <defs>
    <radialGradient id="radial-gradient" cx="0.5" cy="0.211" r="0.5" gradientUnits="objectBoundingBox">
      <stop offset="0" stop-color="#FFFFFF" stop-opacity="0.451"/>
      <stop offset="1" stop-color="#FFFFFF"/>
    </radialGradient>
  </defs>
</svg>
