<svg xmlns="http://www.w3.org/2000/svg" width="40.84" height="25.993" viewBox="0 0 40.84 25.993">
  <g id="icon-file-thumb" transform="translate(-835 -295.509)">
    <g id="Path_1" data-name="Path 1" transform="translate(835 295.509)" fill="none">
      <path d="M1.2,0H39.639a1.1,1.1,0,0,1,1.2.945v24.1a1.1,1.1,0,0,1-1.2.945H1.2A1.1,1.1,0,0,1,0,25.048V.945A1.1,1.1,0,0,1,1.2,0Z" stroke="none"/>
      <path d="M 4.000003814697266 4 L 4.000003814697266 21.99340057373047 L 36.84008407592773 21.99340057373047 L 36.84008407592773 4 L 4.000003814697266 4 M 1.201175689697266 0 L 39.6389045715332 0 C 40.30229568481445 0 40.84008407592773 0.4231910705566406 40.84008407592773 0.9452095031738281 L 40.84008407592773 25.04817962646484 C 40.84008407592773 25.57020950317383 40.30229568481445 25.99340057373047 39.6389045715332 25.99340057373047 L 1.201175689697266 25.99340057373047 C 0.5377845764160156 25.99340057373047 3.814697265625e-06 25.57020950317383 3.814697265625e-06 25.04817962646484 L 3.814697265625e-06 0.9452095031738281 C 3.814697265625e-06 0.4231910705566406 0.5377845764160156 0 1.201175689697266 0 Z" stroke="none" fill="#7b5bc4"/>
    </g>
    <line id="Line_1" data-name="Line 1" x2="10.074" transform="translate(843.286 304.234)" fill="none" stroke="#7b5bc4" stroke-width="4"/>
    <line id="Line_3" data-name="Line 3" x2="10.074" transform="translate(858.951 304.234)" fill="none" stroke="#7b5bc4" stroke-width="4"/>
    <line id="Line_2" data-name="Line 2" x2="10.074" transform="translate(843.286 313.636)" fill="none" stroke="#7b5bc4" stroke-width="4"/>
    <line id="Line_4" data-name="Line 4" x2="10.074" transform="translate(858.951 313.636)" fill="none" stroke="#7b5bc4" stroke-width="4"/>
  </g>
</svg>
