<svg width="21" height="22" viewBox="0 0 21 22" fill="none" xmlns="http://www.w3.org/2000/svg">
<path d="M18.5535 17.1543C17.2737 18.5005 15.6351 19.2421 13.9394 19.2421C11.1603 19.2421 8.75403 17.2904 7.62154 14.4693H15.341C16.0104 14.4693 16.5531 13.9266 16.5531 13.2572C16.5531 12.5879 16.0104 12.0451 15.341 12.0451H7.00558C6.95792 11.6489 6.93188 11.2446 6.93188 10.833C6.93188 10.3687 6.96457 9.91354 7.02555 9.46935H15.341C16.0104 9.46935 16.5531 8.92664 16.5531 8.25726C16.5531 7.58788 16.0104 7.04511 15.341 7.04511H7.68602C8.84279 4.30661 11.2107 2.42394 13.9394 2.42394C15.6351 2.42394 17.2737 3.16551 18.5535 4.51158C19.0143 4.99647 19.781 5.0164 20.267 4.55524C20.7523 4.09388 20.7715 3.32667 20.3108 2.84154C18.5689 1.00913 16.3063 0 13.9397 0C9.89883 0 6.44464 2.93486 5.10423 7.04546H1.85611C1.18673 7.04546 0.644012 7.58818 0.644012 8.25756C0.644012 8.92694 1.18673 9.46965 1.85611 9.46965H4.58484C4.53573 9.91694 4.50764 10.3712 4.50764 10.8333C4.50764 11.2434 4.52907 11.6471 4.56827 12.0454H1.85611C1.18673 12.0454 0.644012 12.5882 0.644012 13.2575C0.644012 13.9269 1.18673 14.4696 1.85611 14.4696H5.05611C6.35998 18.6597 9.84907 21.6666 13.9394 21.6666C16.3063 21.6666 18.5683 20.6572 20.3102 18.8251C20.7712 18.3398 20.7523 17.5727 20.2667 17.1114C19.7817 16.65 19.0143 16.6693 18.5535 17.1543Z" fill="#B6A9D3"/>
</svg>
