<svg xmlns="http://www.w3.org/2000/svg" width="15.381" height="11.392" viewBox="0 0 15.381 11.392">
  <path id="Icon_material-format-list-bulleted" data-name="Icon material-format-list-bulleted" d="M3.889,11.307a1.139,1.139,0,1,0,1.139,1.139A1.138,1.138,0,0,0,3.889,11.307Zm0-4.557A1.139,1.139,0,1,0,5.028,7.889,1.138,1.138,0,0,0,3.889,6.75Zm0,9.114A1.139,1.139,0,1,0,5.028,17,1.143,1.143,0,0,0,3.889,15.864Zm3.61,1.9H18.131V16.243H7.5Zm0-4.557H18.131V11.687H7.5Zm0-6.076V8.649H18.131V7.13Z" transform="translate(-2.75 -6.75)" fill="#434246"/>
</svg>
