<svg xmlns="http://www.w3.org/2000/svg" width="22.678" height="21.729" viewBox="0 0 22.678 21.729">
  <path id="Union_33" data-name="Union 33" d="M10.827,15.8a5.925,5.925,0,1,1,5.925,5.926A5.924,5.924,0,0,1,10.827,15.8Zm2.633.659h6.583V15.144H13.46ZM9.949,18H1.688A1.689,1.689,0,0,1,0,16.313V15.75a4.505,4.505,0,0,1,4.5-4.5H6.437a6.114,6.114,0,0,0,4.651.194A7.077,7.077,0,0,0,9.606,15.8,7.163,7.163,0,0,0,9.95,18h0ZM5.921,8.642a6.059,6.059,0,0,1-.984-3.579,6.059,6.059,0,0,1,.984-3.579A3.639,3.639,0,0,1,9,0a3.639,3.639,0,0,1,3.079,1.483,6.059,6.059,0,0,1,.984,3.579,6.059,6.059,0,0,1-.984,3.579A3.639,3.639,0,0,1,9,10.125,3.639,3.639,0,0,1,5.921,8.642Z" fill="#7b5bc4"/>
</svg>
