<svg xmlns="http://www.w3.org/2000/svg" width="6.28" height="12.299" viewBox="0 0 6.28 12.299">
  <path id="Path_1035" data-name="Path 1035" d="M3.363,4.879a.548.548,0,0,0-.121-.548,1.532,1.532,0,0,0-.79-.251.285.285,0,0,1-.26-.3.441.441,0,0,1,.019-.121Q2.23,3.6,2.249,3.5q.557.056,1.1.084t1,.028q.39,0,.948-.028T6.355,3.5a1.565,1.565,0,0,1,.037.279.249.249,0,0,1-.26.279,1.787,1.787,0,0,0-.836.26.892.892,0,0,0-.316.557L3.14,14.429a.516.516,0,0,0,.13.539,1.87,1.87,0,0,0,.836.26.269.269,0,0,1,.242.279,1.6,1.6,0,0,1-.037.3q-.557-.056-1.133-.084t-1.04-.028q-.39,0-.938.028T.149,15.8a1.6,1.6,0,0,1-.037-.3.238.238,0,0,1,.223-.26,2.191,2.191,0,0,0,.855-.269.822.822,0,0,0,.334-.548Z" transform="translate(-0.112 -3.504)" fill="#434246"/>
</svg>
