<svg id="Icon_ionic-ios-link" data-name="Icon ionic-ios-link" xmlns="http://www.w3.org/2000/svg" width="12.685" height="12.679" viewBox="0 0 12.685 12.679">
  <path id="Path_1036" data-name="Path 1036" d="M10.446,17.77l-.037,0a.5.5,0,0,0-.293.137L8.148,19.879a2.22,2.22,0,0,1-3.139-3.139L7.1,14.648a2.207,2.207,0,0,1,.347-.283,2.24,2.24,0,0,1,.451-.229,2.134,2.134,0,0,1,.457-.113A2.161,2.161,0,0,1,8.666,14c.043,0,.085,0,.14.006a2.213,2.213,0,0,1,1.426.64,2.185,2.185,0,0,1,.521.832.48.48,0,0,0,.588.308s.006,0,.009,0,.006,0,.006,0a.476.476,0,0,0,.32-.582,2.762,2.762,0,0,0-.75-1.25,3.209,3.209,0,0,0-1.756-.893c-.058-.009-.116-.018-.174-.024a3.145,3.145,0,0,0-.338-.018c-.079,0-.158,0-.235.009a3.074,3.074,0,0,0-.494.076c-.034.006-.064.015-.1.024a3.17,3.17,0,0,0-.594.222,3.131,3.131,0,0,0-.844.607L4.3,16.044a3.215,3.215,0,0,0-.93,2.271A3.2,3.2,0,0,0,8.843,20.58l1.99-1.99A.482.482,0,0,0,10.446,17.77Z" transform="translate(-3.375 -8.836)" fill="#434246"/>
  <path id="Path_1037" data-name="Path 1037" d="M20.836,4.311a3.212,3.212,0,0,0-4.532,0L14.363,6.252a.49.49,0,0,0,.308.835.5.5,0,0,0,.387-.14L17,5.009a2.22,2.22,0,0,1,3.139,3.139L18.05,10.239a2.206,2.206,0,0,1-.347.283,2.24,2.24,0,0,1-.451.229,2.134,2.134,0,0,1-.457.113,2.161,2.161,0,0,1-.311.021c-.043,0-.088,0-.14-.006a2.19,2.19,0,0,1-1.926-1.417.487.487,0,0,0-.582-.3.492.492,0,0,0-.344.625,2.784,2.784,0,0,0,.722,1.143h0l.006.006a3.209,3.209,0,0,0,1.929.917,3.145,3.145,0,0,0,.338.018q.119,0,.238-.009a3.485,3.485,0,0,0,.588-.1,3.17,3.17,0,0,0,.594-.222,3.131,3.131,0,0,0,.844-.607l2.091-2.091a3.208,3.208,0,0,0-.006-4.535Z" transform="translate(-9.093 -3.375)" fill="#434246"/>
</svg>
