<svg width="20" height="27" viewBox="0 0 20 27" fill="none" xmlns="http://www.w3.org/2000/svg">
<path d="M20 8.33332V7.50002C20 3.36424 16.6357 0 12.5 0C8.36427 0 4.99997 3.36424 4.99997 7.50002V13.3334H0V16.6667H4.80348C4.41287 19.3063 3.44461 21.8288 1.94662 24.0755C1.60561 24.5866 1.5739 25.2442 1.86364 25.7862C2.15416 26.3282 2.71893 26.6667 3.33335 26.6667H18.3333V23.3334H6.20114C7.21555 21.2327 7.86609 18.9837 8.15489 16.6667H13.3333V13.3334H8.33332V7.50002C8.33332 5.20264 10.2026 3.33335 12.5 3.33335C14.7974 3.33335 16.6666 5.20264 16.6666 7.50002V8.33332H20Z" fill="#B2B2B2"/>
</svg>
