<svg xmlns="http://www.w3.org/2000/svg" width="433.632" height="304.771" viewBox="0 0 433.632 304.771">
  <g id="_15e787b01e5460641df6adee9908c2bc" data-name="15e787b01e5460641df6adee9908c2bc" transform="translate(-46.998 -169.736)">
    <g id="Group_1" data-name="Group 1" transform="translate(46.998 169.736)">
      <path id="Path_1" data-name="Path 1" d="M158.1-347.993c-19.177,2.878-32.6,8.105-48.383,18.568-9.5,6.277-24.933,21.618-32.429,32.341-10.811,15.257-19.7,35.656-24.32,55.358l-2,8.714-9.24,9.156a118.645,118.645,0,0,0-14.3,16.824C3.8-171.2,4.238-124.3,28.474-90.042,43.819-68.248,65-54.735,89.235-51.252c5.055.7,43.589.87,139.482.7L361.224-50.9l6.975-1.832c28.853-7.845,51.434-27.11,64.947-55.442,6.538-13.685,8.8-22.841,9.328-38.618.349-8.193.088-15.341-.525-18.916-8.026-46.2-45.072-81.859-88.313-84.909l-7.5-.521-3.139-7.5c-8.542-20.572-26.937-40.8-45.854-50.211a91.085,91.085,0,0,0-42.631-10.025h-9.24l-4.357-3.576a117.857,117.857,0,0,0-49.43-23.971C185.3-347.732,163.505-348.779,158.1-347.993Zm30.165,19.177c15.168,3.05,31.383,11.769,44.719,23.971l5.143,4.622,16.215.177c18.219.088,23.627,1.135,35.307,6.975,18.307,9.151,32.95,27.9,39.665,50.56,2.878,9.765,3.571,10.114,19,10.374,13.425.26,18.307,1.135,28.332,5.143,8.193,3.311,14.383,7.5,22.055,14.647,11.42,10.811,18.916,23.538,23.19,39.576,2.79,10.374,3.227,28.681.958,39.576-6.45,31.206-27.723,54.484-56.837,62.157l-7.412,1.916H224.792c-126.666,0-134.162-.088-140.612-1.567-29.2-6.887-50.825-34.173-55.619-70.173a80.017,80.017,0,0,1,7.412-45.068c6.017-12.206,13.164-20.748,27.9-33.127l4.185-3.487,2.092-10.9c5.58-28.072,16.736-50.476,33.912-67.56C127.593-324.543,158.888-334.917,188.267-328.816Z" transform="translate(-9.998 348.264)" fill="#7b5bc4"/>
      <path id="Path_2" data-name="Path 2" d="M382.47-134.11a78.061,78.061,0,0,0-21.358,5.668c-12.988,5.668-26.328,17.261-33.736,29.2-4.185,6.71-8.547,17-8.547,20.135,0,5.757,6.366,10.462,11.769,8.63,3.836-1.307,5.055-2.878,8.021-10.546,6.538-17,20.051-29.118,37.312-33.475,12.29-3.139,30.16-.87,40.971,5.231,5.4,2.962,14.82,10.723,14.034,11.509-.26.26-2.613-.349-5.231-1.395-5.929-2.181-9.328-1.655-12.29,1.832a9.438,9.438,0,0,0-.437,11.42c1.218,1.572,6.8,4.185,19.525,9.24,9.853,3.925,18.568,7.063,19.442,7.063a11.672,11.672,0,0,0,4.269-1.655c2.441-1.483,3.66-3.925,9.853-19.7,3.924-9.849,7.059-18.744,7.059-19.7,0-3.227-2.7-6.975-5.84-8.282-6.366-2.7-10.723.525-14.21,10.462-1.135,3.139-2.353,5.752-2.7,5.752s-1.223-.958-1.92-2c-2.441-3.748-12.118-12.815-17.349-16.391C416.378-131.148,398.248-136.031,382.47-134.11Z" transform="translate(-182.495 228.879)" fill="#7b5bc4"/>
      <path id="Path_3" data-name="Path 3" d="M311.075,51.284c-3.748.7-6.277,5.143-12.988,22.664-4.882,12.727-6.626,18.131-6.189,19.786,1.567,6.189,8.719,9.24,14.034,5.929,2-1.223,3.311-3.315,5.143-8.11a55.55,55.55,0,0,1,3.05-7.063c.26-.349,2.613,1.916,5.055,4.971,8.8,10.635,23.538,19.963,38.181,24.148,8.979,2.53,25.715,2.7,34.433.349C412.8,108.2,430.938,93.818,440.35,75.25c6.45-12.639,6.975-17.261,2.265-21.618-2.7-2.53-7.933-2.79-11.16-.7-1.218.786-2.878,3.487-3.925,6.277C421.6,74.99,412.622,85.624,400.244,91.553c-9.416,4.445-14.908,5.664-25.454,5.664-10.286-.088-17.61-1.832-25.8-6.1-5.32-2.878-16.126-11.42-15.345-12.29.26-.177,2.441.437,4.882,1.483,5.4,2.092,7.235,2.181,10.635.349a8.839,8.839,0,0,0,4.273-10.374,11.324,11.324,0,0,0-2.441-4.185c-1.395-1.218-32.429-13.862-36.354-14.731A9.765,9.765,0,0,0,311.075,51.284Z" transform="translate(-167.416 125.167)" fill="#7b5bc4"/>
    </g>
    <g id="Group_2" data-name="Group 2" transform="translate(47.998 176.736)">
      <path id="Path_1-2" data-name="Path 1" d="M158.1-347.993c-19.177,2.878-32.6,8.105-48.383,18.568-9.5,6.277-24.933,21.618-32.429,32.341-10.811,15.257-19.7,35.656-24.32,55.358l-2,8.714-9.24,9.156a118.645,118.645,0,0,0-14.3,16.824C3.8-171.2,4.238-124.3,28.474-90.042,43.819-68.248,65-54.735,89.235-51.252c5.055.7,43.589.87,139.482.7L361.224-50.9l6.975-1.832c28.853-7.845,51.434-27.11,64.947-55.442,6.538-13.685,8.8-22.841,9.328-38.618.349-8.193.088-15.341-.525-18.916-8.026-46.2-45.072-81.859-88.313-84.909l-7.5-.521-3.139-7.5c-8.542-20.572-26.937-40.8-45.854-50.211a91.085,91.085,0,0,0-42.631-10.025h-9.24l-4.357-3.576a117.857,117.857,0,0,0-49.43-23.971C185.3-347.732,163.505-348.779,158.1-347.993Zm30.165,19.177c15.168,3.05,31.383,11.769,44.719,23.971l5.143,4.622,16.215.177c18.219.088,23.627,1.135,35.307,6.975,18.307,9.151,32.95,27.9,39.665,50.56,2.878,9.765,3.571,10.114,19,10.374,13.425.26,18.307,1.135,28.332,5.143,8.193,3.311,14.383,7.5,22.055,14.647,11.42,10.811,18.916,23.538,23.19,39.576,2.79,10.374,3.227,28.681.958,39.576-6.45,31.206-27.723,54.484-56.837,62.157l-7.412,1.916H224.792c-126.666,0-134.162-.088-140.612-1.567-29.2-6.887-50.825-34.173-55.619-70.173a80.017,80.017,0,0,1,7.412-45.068c6.017-12.206,13.164-20.748,27.9-33.127l4.185-3.487,2.092-10.9c5.58-28.072,16.736-50.476,33.912-67.56C127.593-324.543,158.888-334.917,188.267-328.816Z" transform="translate(-9.998 348.264)" fill="#7b5bc4"/>
    </g>
  </g>
</svg>
