<svg width="20" height="17" viewBox="0 0 20 17" fill="none" xmlns="http://www.w3.org/2000/svg">
<path d="M8.23675 2.28088H2.2862L2.28088 15.0791C2.28088 15.7076 1.7692 16.2196 1.14044 16.2196C0.511677 16.2196 0 15.7076 0 15.0791L0.00633577 1.13917C0.00709606 0.510916 0.518519 0 1.14677 0H8.23701C11.6609 0 14.4461 2.78546 14.4461 6.20905V12.038C14.4461 12.6665 13.9341 13.1784 13.3056 13.1784C12.6771 13.1784 12.1652 12.6665 12.1652 12.038V6.20905C12.1649 4.04324 10.4028 2.28088 8.23675 2.28088ZM18.8596 0C18.2308 0 17.7191 0.511677 17.7191 1.14044L17.7138 13.9387H11.7632C9.59717 13.9387 7.83507 12.1766 7.83507 10.0105V4.18161C7.83507 3.55285 7.32339 3.04117 6.69463 3.04117C6.06587 3.04117 5.55419 3.55285 5.55419 4.18161V10.0105C5.55419 13.4341 8.33939 16.2196 11.7632 16.2196H18.8535C19.4817 16.2196 19.9934 15.7087 19.9939 15.0804L20 1.14044C20 0.51193 19.4883 0 18.8596 0Z" fill="#B6A9D3"/>
</svg>
