<svg width="30" height="30" viewBox="0 0 30 30" fill="none" xmlns="http://www.w3.org/2000/svg">
<path d="M25.6297 0.77589C25.1275 0.544633 24.536 0.634551 24.1252 1.00448L22.1756 2.73082L19.523 0.358054C18.9901 -0.119351 18.1833 -0.119351 17.6504 0.358054L15 2.72858L12.349 0.358054C11.8159 -0.119351 11.0091 -0.119351 10.476 0.358054L7.82275 2.73082L5.87126 1.00455C5.29544 0.49272 4.41368 0.544633 3.90186 1.12046C3.67271 1.37827 3.54718 1.71188 3.54956 2.05679V27.9432C3.545 28.7147 4.16676 29.3439 4.9383 29.3484C5.28329 29.3505 5.61689 29.2247 5.87477 28.9955L7.82444 27.2692L10.477 29.6419C11.0099 30.1194 11.8167 30.1194 12.3496 29.6419L15 27.2711L17.6508 29.6417C18.1839 30.119 18.9907 30.119 19.5238 29.6417L22.177 27.269L24.1285 28.9952C24.7043 29.5072 25.586 29.4555 26.0979 28.8798C26.3273 28.6219 26.4528 28.2881 26.4504 27.9429V2.05679C26.4574 1.50415 26.1346 1.00047 25.6297 0.77589ZM23.1049 26.2166C22.572 25.7445 21.7697 25.7466 21.2393 26.2216L18.5868 28.5943L15.9363 26.2238C15.4034 25.7464 14.5965 25.7464 14.0635 26.2238L11.4128 28.5943L8.75916 26.2216C8.23075 25.7467 7.42993 25.7445 6.89892 26.2166L4.95452 27.9424V24.1979L4.9475 2.05714L6.89506 3.78307C7.42803 4.25521 8.23026 4.2531 8.76071 3.77808L11.4132 1.40538L14.0637 3.7759C14.5966 4.25331 15.4035 4.25331 15.9365 3.7759L18.5872 1.40538L21.2408 3.77808C21.7692 4.25303 22.5701 4.25521 23.1011 3.78314L25.0455 2.05679V19.8515L25.0525 27.9426L23.1049 26.2166Z" fill="#6D56A4"/>
<path d="M21.659 14.2974H8.34097C7.95299 14.2974 7.63849 14.6119 7.63849 14.9998C7.63849 15.3878 7.95299 15.7023 8.34097 15.7023H21.659C22.047 15.7023 22.3615 15.3878 22.3615 14.9998C22.3615 14.6119 22.0469 14.2974 21.659 14.2974Z" fill="#6D56A4"/>
<path d="M15.3367 10.0823H8.34097C7.95299 10.0823 7.63849 10.3968 7.63849 10.7848C7.63849 11.1727 7.95299 11.4872 8.34097 11.4872H15.3367C15.7247 11.4872 16.0392 11.1727 16.0392 10.7848C16.0392 10.3968 15.7246 10.0823 15.3367 10.0823Z" fill="#6D56A4"/>
<path d="M21.659 18.5122H8.34097C7.95299 18.5122 7.63849 18.8267 7.63849 19.2147C7.63849 19.6027 7.95299 19.9172 8.34097 19.9172H21.659C22.047 19.9172 22.3615 19.6027 22.3615 19.2147C22.3615 18.8267 22.0469 18.5122 21.659 18.5122Z" fill="#6D56A4"/>
</svg>
