<svg xmlns="http://www.w3.org/2000/svg" width="22.704" height="18.388" viewBox="0 0 22.704 18.388"><defs><style>.a{fill:#7b5bc4;}</style></defs><path class="a" d="M-2346-10884.114a2.644,2.644,0,0,0-2.644-2.643,2.645,2.645,0,0,0-2.644,2.643v14.5h-1.244v0H-2360v-14.616h7.466a3.873,3.873,0,0,1,1.177-2.668,3.869,3.869,0,0,1,2.708-1.1,3.869,3.869,0,0,1,2.708,1.1,3.864,3.864,0,0,1,1.177,2.668h7.468v14.616h-7.464v0H-2346Zm4.976,3.735v9.147h1.866v-9.147a.933.933,0,0,0-.933-.934A.933.933,0,0,0-2341.029-10880.379Zm-3.421,0v9.147h1.866v-9.147a.933.933,0,0,0-.933-.934A.933.933,0,0,0-2344.45-10880.379Zm-10.263,0v9.147h1.866v-9.147a.933.933,0,0,0-.933-.934A.933.933,0,0,0-2354.713-10880.379Zm-3.421,0v9.147h1.866v-9.147a.933.933,0,0,0-.933-.934A.933.933,0,0,0-2358.134-10880.379Zm7.464,10.76v-5.908h4.043v5.908Zm0-6.53v-7.931a2.021,2.021,0,0,1,2.021-2.021,2.021,2.021,0,0,1,2.021,2.021v7.931Z" transform="translate(2360 10888.002)"/></svg>