<svg width="24" height="33" viewBox="0 0 24 33" fill="none" xmlns="http://www.w3.org/2000/svg">
<path d="M12 0C5.384 0 0 5.59075 0 12.4644C0 22.231 10.872 32.3153 11.3347 32.7388C11.5253 32.9134 11.7627 33 12 33C12.2373 33 12.4747 32.9134 12.6653 32.7401C13.128 32.3153 24 22.231 24 12.4644C24 5.59075 18.616 0 12 0ZM12 19.25C8.324 19.25 5.33333 16.1659 5.33333 12.375C5.33333 8.58413 8.324 5.5 12 5.5C15.676 5.5 18.6667 8.58413 18.6667 12.375C18.6667 16.1659 15.676 19.25 12 19.25Z" fill="#9477D5"/>
</svg>
