<svg xmlns="http://www.w3.org/2000/svg" width="73" height="59.124" viewBox="0 0 73 59.124">
  <path id="Union_16" data-name="Union 16" d="M-2315-10875.5a8.509,8.509,0,0,0-8.5-8.5,8.51,8.51,0,0,0-8.5,8.5v46.623h-4v-.014h-24v-47h24.005a12.449,12.449,0,0,1,3.784-8.577,12.44,12.44,0,0,1,8.709-3.533,12.44,12.44,0,0,1,8.708,3.533,12.425,12.425,0,0,1,3.784,8.577H-2287v47h-24l0,.011-4,0Zm16,12.01v29.416h6v-29.416a3,3,0,0,0-3-3A3,3,0,0,0-2299-10863.49Zm-11,0v29.416h6v-29.416a3,3,0,0,0-3-3A3,3,0,0,0-2310-10863.49Zm-33,0v29.416h6v-29.416a3,3,0,0,0-3-3A3,3,0,0,0-2343-10863.49Zm-11,0v29.416h6v-29.416a3,3,0,0,0-3-3A3,3,0,0,0-2354-10863.49Zm24,34.6v-19h13v19Zm0-21v-25.5a6.5,6.5,0,0,1,6.5-6.5,6.5,6.5,0,0,1,6.5,6.5v25.5Z" transform="translate(2360 10888.001)" fill="#7b5bc4"/>
</svg>
