<svg width="69" height="99" viewBox="0 0 69 99" fill="none" xmlns="http://www.w3.org/2000/svg">
<path d="M4.92632 39.5351H49.2625V25.2489C49.2625 17.8596 44.3363 11.4554 37.4396 9.97757C28.0797 8.4997 19.7051 15.3964 19.7051 24.7563C19.7051 27.7121 20.9631 44.4613 18.5 44.4613C4.42632 44.4613 12 51.5 9.85257 24.7563C9.85257 10.4702 22.1682 -1.35279 36.9469 0.125081C49.7552 1.60295 59.115 12.9333 59.115 25.7416V39.5351H64.0413C66.5044 39.5351 68.9675 41.5056 68.9675 44.4613V93.7238C68.9675 96.1869 66.5044 98.65 64.0413 98.65H4.92632C1.97058 98.65 7.62939e-05 96.1869 7.62939e-05 93.7238V44.4613C7.62939e-05 41.5056 1.97058 39.5351 4.92632 39.5351ZM29.5576 72.5409V78.945C29.5576 81.9008 31.5281 83.8713 34.4838 83.8713C37.4395 83.8713 39.41 81.9008 39.41 78.945V72.5409C42.3658 70.5704 44.3363 67.6147 44.3363 64.1663C44.3363 57.7622 38.4248 53.3285 32.0207 54.8064C28.5723 55.7917 25.6166 58.7474 24.6313 62.1958C23.6461 66.6294 26.1092 70.5704 29.5576 72.5409Z" fill="#7B5BC4"/>
</svg>
