<svg width="25" height="25" viewBox="0 0 25 25" fill="none" xmlns="http://www.w3.org/2000/svg">
<g clip-path="url(#clip0)">
<path d="M1.5625 22.656V2.3435C1.5625 1.91201 1.91226 1.56225 2.34375 1.56225H14.0625V4.68725C14.0625 5.55019 14.7621 6.24975 15.625 6.24975H18.75V8.5935H20.3125V5.4685C20.3137 5.26083 20.2322 5.06122 20.0859 4.91381L15.3984 0.226315C15.251 0.0800753 15.0514 -0.00141881 14.8438 -0.000246934H2.34375C1.04932 -0.000246934 0 1.04912 0 2.3435V22.656C0 23.9504 1.04932 24.9997 2.34375 24.9997H7.8125V23.4372H2.34375C1.9123 23.4372 1.5625 23.0875 1.5625 22.656Z" fill="#6D55A5"/>
<path d="M23.4375 15.625H21.875V17.1875H23.4375V18.75H20.3125V14.0625H25C25 13.1996 24.3004 12.5 23.4375 12.5H20.3125C19.4496 12.5 18.75 13.1996 18.75 14.0625V18.75C18.75 19.6129 19.4496 20.3125 20.3125 20.3125H23.4375C24.3004 20.3125 25 19.6129 25 18.75V17.1875C25 16.3246 24.3004 15.625 23.4375 15.625Z" fill="#6D55A5"/>
<path d="M14.8438 12.5C13.1179 12.5 11.7188 13.8991 11.7188 15.625V17.1875C11.7188 18.9134 13.1179 20.3125 14.8438 20.3125C16.5696 20.3125 17.9688 18.9134 17.9688 17.1875V15.625C17.9688 13.8991 16.5696 12.5 14.8438 12.5ZM16.4062 17.1875C16.4062 18.0504 15.7067 18.75 14.8438 18.75C13.9808 18.75 13.2812 18.0504 13.2812 17.1875V15.625C13.2812 14.7621 13.9808 14.0625 14.8438 14.0625C15.7067 14.0625 16.4062 14.7621 16.4062 15.625V17.1875Z" fill="#6D55A5"/>
<path d="M7.8125 12.5H6.25V19.5312C6.25 19.9627 6.59976 20.3125 7.03125 20.3125H10.9375V18.75H7.8125V12.5Z" fill="#6D55A5"/>
</g>
<defs>
<clipPath id="clip0">
<rect width="25" height="25" fill="white"/>
</clipPath>
</defs>
</svg>
