<svg width="24" height="23" viewBox="0 0 24 23" fill="none" xmlns="http://www.w3.org/2000/svg">
<g clip-path="url(#clip0)">
<path d="M12.4324 11.0602C10.9481 11.0602 9.74056 9.85112 9.74056 8.36493C9.74056 6.87873 10.9481 5.66962 12.4324 5.66962C13.9168 5.66962 15.1245 6.87873 15.1245 8.36493C15.1245 9.85112 13.9168 11.0602 12.4324 11.0602ZM12.4324 7.01727C11.6903 7.01727 11.0865 7.62183 11.0865 8.36493C11.0865 9.10803 11.6903 9.71258 12.4324 9.71258C13.1747 9.71258 13.7785 9.10803 13.7785 8.36493C13.7785 7.62183 13.1747 7.01727 12.4324 7.01727Z" fill="#523989"/>
<path d="M3.86969 15.498H8.37386C6.27067 13.488 4.35698 11.5177 4.35698 8.08594C4.35698 3.46204 7.8247 0 12.4328 0C17.0503 0 20.5088 3.47233 20.5088 8.08594C20.5088 11.5177 18.5951 13.488 16.4919 15.498H20.9961L23.4573 23H1.40855L3.86969 15.498ZM19.1629 8.08594C19.1629 4.18151 16.3325 1.34766 12.4328 1.34766C8.53327 1.34766 5.70297 4.18151 5.70297 8.08594C5.70297 12.4541 9.38542 14.0012 12.4328 17.7631C13.3486 16.6326 14.3281 15.6995 15.2805 14.7922C17.4496 12.7257 19.1629 11.0935 19.1629 8.08594ZM21.0531 19.9902H16.2017V18.6426H20.611L20.0215 16.8457H15.1249V16.8154C13.3371 18.5904 12.8535 19.4801 12.4328 20.0105C12.0017 19.4669 11.5339 18.5958 9.74094 16.8155V16.8457H4.84428L4.25478 18.6426H8.66415V19.9902H3.81271L3.26745 21.6523H21.5984L21.0531 19.9902Z" fill="#523989"/>
</g>
<defs>
<clipPath id="clip0">
<rect width="22.9715" height="23" fill="white" transform="matrix(-1 0 0 1 23.9182 0)"/>
</clipPath>
</defs>
</svg>
