<svg width="21" height="21" viewBox="0 0 21 21" fill="none" xmlns="http://www.w3.org/2000/svg">
<path d="M2.24752 14.1504H6.36002C4.43971 12.3151 2.69244 10.5162 2.69244 7.38281C2.69244 3.16099 5.85861 0 10.066 0C14.282 0 17.4398 3.17038 17.4398 7.38281C17.4398 10.5162 15.6925 12.3151 13.7721 14.1504H17.8847L20.1318 21H0.000392914L2.24752 14.1504ZM16.2108 7.38281C16.2108 3.8179 13.6266 1.23047 10.066 1.23047C6.50557 1.23047 3.92138 3.8179 3.92138 7.38281C3.92138 11.3711 7.28362 12.7837 10.066 16.2185C10.9022 15.1863 11.7965 14.3343 12.6661 13.5059C14.6466 11.6192 16.2108 10.1288 16.2108 7.38281ZM17.9367 18.252H13.5072V17.0215H17.5331L16.9948 15.3809H12.524V15.3532C10.8917 16.9739 10.4501 17.7861 10.066 18.2705C9.67244 17.7741 9.24526 16.9787 7.60822 15.3533V15.3809H3.13736L2.59912 17.0215H6.62507V18.252H2.19549L1.69765 19.7695H18.4346L17.9367 18.252Z" fill="#523989"/>
</svg>
