<svg width="98" height="98" viewBox="0 0 98 98" fill="none" xmlns="http://www.w3.org/2000/svg">
<path d="M49 98C22 98 0 76 0 49C0 22 22 0 49 0C76 0 98 22 98 49C98 76 76 98 49 98ZM49 9.2C27 9.2 9.2 27 9.2 49C9.2 71 27 88.8 49 88.8C71 88.8 88.8 71 88.8 49C88.8 27 71 9.2 49 9.2Z" fill="#7B5BC4"/>
<path d="M43.2 65.1999C42 65.1999 40.8 64.6999 39.9 63.7999L27.3 50.7999C25.5 48.9999 25.5 45.9999 27.4 44.1999C29.2 42.3999 32.2 42.3999 34 44.2999L43.4 53.8999L64.9 33.6999C66.8 31.8999 69.7 31.9999 71.5 33.8999C73.3 35.7999 73.2 38.6999 71.3 40.4999L46.4 63.8999C45.5 64.6999 44.4 65.1999 43.2 65.1999Z" fill="#7B5BC4"/>
</svg>
