<svg viewBox="0 0 2048 1329.1012" xmlns="http://www.w3.org/2000/svg"><path d="M1136.435 361.93c-.483-83.642-52.583-154.994-126.037-183.854l-1.35-.467v369.458c75.056-29.427 127.26-101.17 127.387-185.123v-.016zM866.918 547.067V176.585c-75.115 29.34-127.358 101.14-127.358 185.14s52.244 155.798 126.01 184.674l1.35.464zm70.247 157.286h160.768c186.982 0 357.58-152.37 357.58-338.944.206-203.98-170.597-344.883-357.375-344.883H937.165c-2.282-.055-4.97-.087-7.665-.087-186.29 0-337.306 151.017-337.306 337.306 0 2.695.032 5.383.094 8.062l-.007-.398c2.08 187.64 154.676 338.952 342.612 338.952.8 0 1.597-.003 2.395-.008h-.122zm0-655.36l1.024-.002c172.94 0 313.138 140.197 313.138 313.14S1111.13 675.27 938.188 675.27c-172.94 0-313.138-140.197-313.138-313.14v-.213.01c0-172.87 140.08-313.02 312.923-313.138h.01zM268.902 738.76H160.768v9.627c16.794 0 34.202-1.843 34.202 31.54V960.15c-1.024 25.19-11.878 26.01-34.202 28.262v9.626h103.628c131.482 0 152.986-92.57 152.986-129.23 0-65.945-52.43-130.047-148.48-130.047zm1.024 247.4c-18.227 0-38.707-3.278-38.707-31.95V752.072c6.757 0 13.72-1.434 29.08-1.434 71.68 0 116.327 50.176 116.327 119.603 0 55.297-26.42 115.918-106.7 115.918zm215.04-10.036v-143.36c0-3.072 0-5.325-2.662-5.325h-.056c-2.474 0-4.787.684-6.76 1.875l.058-.033c-1.434 1.024-22.323 8.192-39.73 13.312v5.94c13.72 7.372 19.25 9.625 19.25 26.01v100.76c0 12.29-7.373 12.29-17.818 12.29h-7.168v9.625h79.872v-9.627h-6.35c-10.444.82-18.636.82-18.636-11.47zm-13.926-205.21c10.115-.23 18.227-8.483 18.227-18.632v-.005c-.23-9.89-8.3-17.818-18.223-17.818h-.005c-10.068 0-18.228 8.16-18.228 18.226s8.16 18.227 18.227 18.227zm210.944 205.21v-95.437c0-28.877-11.06-52.02-42.598-52.02-24.95 2.09-47.186 12.296-64.397 27.934l.09-.08v-24.575c0-2.867-1.025-3.686-2.254-3.686-12.58 5.603-28.812 11.655-45.417 16.862l-3.53.954v6.963c17.407 6.962 21.503 10.853 21.503 24.575v98.51c0 12.287-7.373 12.287-17.818 12.287h-6.758v9.626H601.09v-9.626h-7.17c-10.444 0-18.636 0-18.636-12.288V866.146c12.147-8.92 26.77-15.212 42.647-17.743l.567-.074c20.48 0 34.202 10.444 34.202 31.538v96.256c0 12.288-7.374 12.288-17.82 12.288h-6.757v9.626H708.405v-9.626h-7.987c-10.445 0-18.432 0-18.432-12.288zm107.93 5.12c-29.696 0-52.43-28.877-54.477-64.307-.41-3.228-.644-6.963-.644-10.752s.234-7.524.688-11.19l-.043.438H839.68l3.277-2.253c.084-1.012.132-2.19.132-3.38s-.05-2.366-.143-3.53l.01.152c-.275-32.366-26.576-58.497-58.98-58.497-1.37 0-2.73.047-4.075.14l.182-.01c-26.01 0-74.957 21.503-74.957 94.412 0 23.757 11.878 81.92 70.86 81.92 28.982-1.833 53.925-17.59 68.397-40.6l.212-.36-4.915-6.963c-12.22 14.21-29.795 23.518-49.56 24.77l-.206.01zM778.24 839.727c.278-.01.605-.014.933-.014 17.42 0 31.54 14.12 31.54 31.54 0 .94-.042 1.874-.123 2.795l.008-.12c0 4.507-1.024 9.217-10.445 9.217H737.28c3.685-26.42 19.25-43.418 40.96-43.418zm179.2-11.47c-22.733 0-38.298 23.758-47.514 38.3v-33.588c0-3.687-1.024-4.916-3.277-4.916s-18.228 9.626-45.467 20.48v5.53c5.53 3.072 19.25 5.12 19.25 16.794v104.448c0 12.288-7.372 12.288-17.817 12.288h-10.65v9.626h96.257v-9.626h-20.48c-10.446 0-17.82 0-17.82-12.288v-86.63c.06-15.74 11.716-28.742 26.867-30.905l.167-.02c12.902 0 12.902 9.012 24.576 9.012 9.7-.325 17.438-8.265 17.438-18.013 0-.365-.01-.726-.03-1.084v.05c-.545-10.874-9.495-19.484-20.455-19.484-.37 0-.735.01-1.1.03l.052-.003zm57.958 36.456c.467-14 11.927-25.17 25.996-25.17 1.087 0 2.16.068 3.212.197l-.126-.013c.863-.07 1.87-.11 2.884-.11 20.644 0 37.453 16.423 38.075 36.917v.057h8.602l-3.277-36.863c-12.31-6.496-26.846-10.465-42.27-10.852l-.123-.002c-40.96 0-57.55 26.83-57.55 47.514 0 59.802 81.92 45.67 81.92 89.498.004.148.006.322.006.496 0 14.48-11.737 26.215-26.214 26.215-1.375 0-2.725-.106-4.043-.31l.148.02c-24.926-1.006-44.993-20.505-46.89-45.095l-.01-.167-6.757 1.843 4.097 42.803c13.02 7.517 28.544 12.162 45.106 12.693l.155.004c44.237 0 63.898-26.01 63.898-50.586-.614-59.186-86.835-45.67-86.835-89.087zm338.74 126.976c-57.14 0-110.797-53.863-110.797-129.025 0-89.088 61.44-117.76 104.86-117.76s72.498 17.408 79.46 61.44h9.217l-3.277-53.453c-25.733-11.138-55.58-18.478-86.884-20.44l-.77-.04c-72.705 0-140.7 54.682-140.7 130.867 0 83.557 54.887 139.673 141.927 139.673 30.012-1.256 58.006-8.678 83.144-21.023l-1.224.543 8.602-54.272-8.602-2.252c-5.032 37.293-36.658 65.74-74.93 65.74h-.028.002zm150.937-15.566v-256.82c0-3.07 0-5.324-3.072-5.324-3.13 1.142-5.835 2.523-8.335 4.186l.143-.09c-10.774 5.804-23.445 11.217-36.623 15.504l-1.673.47v5.94c14.13 4.096 20.48 4.915 20.48 29.082V975.92c0 12.288-7.373 12.288-17.818 12.288h-6.963v9.626h79.872v-9.626h-7.373c-10.445.205-18.637.205-18.637-12.083zm183.91 1.433v-137.83c0-4.096 0-6.758-3.07-6.758s-24.577 2.866-57.96 5.12v6.757c13.313 3.686 31.13 7.782 31.13 15.155v99.942c-11.814 11.817-27.178 20.086-44.355 23.07l-.495.072c-32.358 0-32.358-31.95-32.358-43.213V844.64c0-8.19 0-10.853-4.096-10.853s-34.405 2.253-47.922 2.662v6.962c20.48 1.843 22.323 11.06 22.323 20.48v95.232c-.083.98-.13 2.124-.13 3.277 0 22.623 18.338 40.96 40.96 40.96h.138-.007c25.997-1.835 49-13.332 65.703-30.882l.04-.042v30.106l1.842 1.024c14.85-4.552 32.917-8.558 51.416-11.228l2.038-.24v-7.783h-14.95c-6.144.205-10.24 0-10.24-6.758zm129.23-149.3c-21.766 2.65-40.87 12.4-55.297 26.83V719.305c0-3.072 0-5.325-2.867-5.325-3.13 1.137-5.833 2.518-8.332 4.184l.14-.088c-10.782 5.818-23.454 11.23-36.636 15.51l-1.66.465v5.94c14.13 4.096 20.48 4.915 20.48 29.082v159.744c-.042 23.382-1.902 46.295-5.446 68.648l.326-2.498 7.782 4.096 11.06-8.602c14.94 8.12 32.716 12.898 51.607 12.902h.002c49.676-2.65 88.953-43.574 88.953-93.673 0-1.27-.025-2.532-.075-3.788l.006.18c.136-1.664.214-3.602.214-5.558 0-39.21-31.215-71.13-70.15-72.263h-.105zm-17 165.684c-20.46-1.316-36.756-17.47-38.288-37.75l-.008-.137v-90.317c9.04-9.483 21.27-15.854 34.966-17.384l.26-.024c29.08 0 59.39 33.382 59.39 73.523 0 32.974-16.793 72.09-56.524 72.09z"/></svg>