<svg xmlns="http://www.w3.org/2000/svg" width="23" height="30.405" viewBox="0 0 23 30.405">
  <path id="icons8-padlock" d="M15.5,1A8.641,8.641,0,0,0,7.594,6.282a1.457,1.457,0,0,0,.132,1.473,1.433,1.433,0,0,0,2.5-.322A5.726,5.726,0,0,1,15.5,3.9a5.651,5.651,0,0,1,5.75,5.791v1.448H6.875A2.894,2.894,0,0,0,4,14.031V28.509a2.894,2.894,0,0,0,2.875,2.9h17.25A2.894,2.894,0,0,0,27,28.509V14.031a2.894,2.894,0,0,0-2.875-2.9V9.687A8.638,8.638,0,0,0,15.5,1Zm0,17.374a2.9,2.9,0,1,1-2.875,2.9A2.894,2.894,0,0,1,15.5,18.374Z" transform="translate(-4 -1)" fill="#7b5bc4"/>
</svg>
