<svg xmlns="http://www.w3.org/2000/svg" width="23" height="30.188" viewBox="0 0 23 30.188">
  <path id="icons8-lock" d="M15.5,1A8.606,8.606,0,0,0,6.875,9.625v1.438A2.883,2.883,0,0,0,4,13.938V28.313a2.883,2.883,0,0,0,2.875,2.875h17.25A2.883,2.883,0,0,0,27,28.313V13.938a2.883,2.883,0,0,0-2.875-2.875V9.625A8.606,8.606,0,0,0,15.5,1Zm0,2.875a5.631,5.631,0,0,1,5.75,5.75v1.438H9.75V9.625A5.631,5.631,0,0,1,15.5,3.875Zm0,14.375a2.875,2.875,0,1,1-2.875,2.875A2.883,2.883,0,0,1,15.5,18.25Z" transform="translate(-4 -1)" fill="#7b5bc4"/>
</svg>
