<svg width="169" height="37" viewBox="0 0 169 37" fill="none" xmlns="http://www.w3.org/2000/svg">
<g clip-path="url(#clip0)">
<path d="M3.70003 22.1999C5.74349 22.1999 7.40005 20.5433 7.40005 18.4998C7.40005 16.4564 5.74349 14.7998 3.70003 14.7998C1.65656 14.7998 0 16.4564 0 18.4998C0 20.5433 1.65656 22.1999 3.70003 22.1999Z" fill="#7B5BC4"/>
<path d="M18.4998 22.1999C20.5433 22.1999 22.1999 20.5433 22.1999 18.4998C22.1999 16.4564 20.5433 14.7998 18.4998 14.7998C16.4564 14.7998 14.7998 16.4564 14.7998 18.4998C14.7998 20.5433 16.4564 22.1999 18.4998 22.1999Z" fill="#7B5BC4"/>
<path d="M33.3001 22.1999C35.3436 22.1999 37.0002 20.5433 37.0002 18.4998C37.0002 16.4564 35.3436 14.7998 33.3001 14.7998C31.2567 14.7998 29.6001 16.4564 29.6001 18.4998C29.6001 20.5433 31.2567 22.1999 33.3001 22.1999Z" fill="#7B5BC4"/>
</g>
<g clip-path="url(#clip1)">
<path d="M135.7 22.1999C137.743 22.1999 139.4 20.5433 139.4 18.4998C139.4 16.4564 137.743 14.7998 135.7 14.7998C133.657 14.7998 132 16.4564 132 18.4998C132 20.5433 133.657 22.1999 135.7 22.1999Z" fill="#B1A5CC"/>
<path d="M150.5 22.1999C152.543 22.1999 154.2 20.5433 154.2 18.4998C154.2 16.4564 152.543 14.7998 150.5 14.7998C148.456 14.7998 146.8 16.4564 146.8 18.4998C146.8 20.5433 148.456 22.1999 150.5 22.1999Z" fill="#B1A5CC"/>
<path d="M165.3 22.1999C167.344 22.1999 169 20.5433 169 18.4998C169 16.4564 167.344 14.7998 165.3 14.7998C163.257 14.7998 161.6 16.4564 161.6 18.4998C161.6 20.5433 163.257 22.1999 165.3 22.1999Z" fill="#B1A5CC"/>
</g>
<defs>
<clipPath id="clip0">
<rect width="37" height="37" fill="white"/>
</clipPath>
<clipPath id="clip1">
<rect width="37" height="37" fill="white" transform="translate(132)"/>
</clipPath>
</defs>
</svg>
