<svg width="31" height="7" viewBox="0 0 31 7" fill="none" xmlns="http://www.w3.org/2000/svg">
<path d="M3.10002 0.400063C4.81212 0.400063 6.20004 1.78799 6.20004 3.50008C6.20004 5.21217 4.81212 6.6001 3.10002 6.6001C1.38793 6.6001 0 5.21217 0 3.50008C0 1.78799 1.38793 0.400063 3.10002 0.400063Z" fill="#7B5BC4"/>
<path d="M15.5 0.400063C17.212 0.400063 18.6 1.78799 18.6 3.50008C18.6 5.21217 17.212 6.6001 15.5 6.6001C13.7879 6.6001 12.3999 5.21217 12.3999 3.50008C12.3999 1.78799 13.7879 0.400063 15.5 0.400063Z" fill="#7B5BC4"/>
<path d="M27.9 0.400063C29.6121 0.400063 31 1.78799 31 3.50008C31 5.21217 29.6121 6.6001 27.9 6.6001C26.1879 6.6001 24.8 5.21217 24.8 3.50008C24.8 1.78799 26.1879 0.400063 27.9 0.400063Z" fill="#7B5BC4"/>
</svg>
