<svg width="30" height="30" viewBox="0 0 30 30" fill="none" xmlns="http://www.w3.org/2000/svg">
<path d="M14.9999 6.66672C16.8408 6.66672 18.3332 5.17432 18.3332 3.33336C18.3332 1.4924 16.8408 0 14.9999 0C13.1589 0 11.6665 1.4924 11.6665 3.33336C11.6665 5.17432 13.1589 6.66672 14.9999 6.66672Z" fill="#C5C4C8"/>
<path d="M14.9999 18.3332C16.8408 18.3332 18.3332 16.8408 18.3332 14.9999C18.3332 13.1589 16.8408 11.6665 14.9999 11.6665C13.1589 11.6665 11.6665 13.1589 11.6665 14.9999C11.6665 16.8408 13.1589 18.3332 14.9999 18.3332Z" fill="#C5C4C8"/>
<path d="M14.9999 29.9999C16.8408 29.9999 18.3332 28.5076 18.3332 26.6666C18.3332 24.8256 16.8408 23.3333 14.9999 23.3333C13.1589 23.3333 11.6665 24.8256 11.6665 26.6666C11.6665 28.5076 13.1589 29.9999 14.9999 29.9999Z" fill="#C5C4C8"/>
</svg>
