<svg width="20" height="15" viewBox="0 0 20 15" fill="none" xmlns="http://www.w3.org/2000/svg">
<g clip-path="url(#clip0)">
<path d="M18.317 0H8.31699C7.7647 0 7.31699 0.447715 7.31699 1C7.31699 1.55228 7.7647 2 8.31699 2H18.317C18.8693 2 19.317 1.55228 19.317 1C19.317 0.447715 18.8693 0 18.317 0Z" fill="#7B5BC4"/>
<path d="M18.317 6.351H8.31699C7.7647 6.351 7.31699 6.79872 7.31699 7.351C7.31699 7.90329 7.7647 8.351 8.31699 8.351H18.317C18.8693 8.351 19.317 7.90329 19.317 7.351C19.317 6.79872 18.8693 6.351 18.317 6.351Z" fill="#7B5BC4"/>
<path d="M18.317 12.703H8.31699C7.7647 12.703 7.31699 13.1507 7.31699 13.703C7.31699 14.2553 7.7647 14.703 8.31699 14.703H18.317C18.8693 14.703 19.317 14.2553 19.317 13.703C19.317 13.1507 18.8693 12.703 18.317 12.703Z" fill="#7B5BC4"/>
<path d="M0.429992 7.876C0.376288 7.82907 0.333245 7.77119 0.303753 7.70625C0.274261 7.64132 0.259003 7.57082 0.259003 7.4995C0.259003 7.42818 0.274261 7.35768 0.303753 7.29274C0.333245 7.22781 0.376288 7.16993 0.429992 7.123L3.17099 4.723C3.24334 4.65978 3.33236 4.61875 3.42741 4.6048C3.52247 4.59086 3.61952 4.60459 3.70698 4.64436C3.79443 4.68413 3.86857 4.74825 3.92054 4.82906C3.9725 4.90986 4.00009 5.00393 3.99999 5.1L3.99999 9.9C3.99989 9.99598 3.97217 10.0899 3.92013 10.1706C3.86809 10.2512 3.79394 10.3152 3.70652 10.3548C3.61911 10.3945 3.52213 10.4081 3.42716 10.3942C3.3322 10.3802 3.24327 10.3392 3.17099 10.276L0.429992 7.876Z" fill="#7B5BC4"/>
</g>
<defs>
<clipPath id="clip0">
<rect width="19.317" height="14.703" fill="white"/>
</clipPath>
</defs>
</svg>
