<svg xmlns="http://www.w3.org/2000/svg" width="58" height="42" viewBox="0 0 58 42">
  <path id="Subtraction_10" data-name="Subtraction 10" d="M-2638-148h-48a5.006,5.006,0,0,1-5-5v-32a5.006,5.006,0,0,1,5-5h48a5.006,5.006,0,0,1,5,5v32A5.006,5.006,0,0,1-2638-148Zm-20.59-15.463v0a10.223,10.223,0,0,0,7.312,5.118,11.264,11.264,0,0,0,1.851.151,14.606,14.606,0,0,0,1.491-.073,10.265,10.265,0,0,0,6.9-3.583l-1.433-1.448-1.434-1.448c-1.67,1.519-3.087,2.4-5.382,2.4a5.669,5.669,0,0,1-4.284-1.9,6.765,6.765,0,0,1-1.653-4.534v-.059a6.643,6.643,0,0,1,1.675-4.5,5.7,5.7,0,0,1,4.262-1.872,7.513,7.513,0,0,1,5.235,2.31l2.866-3.3a10.521,10.521,0,0,0-3.3-2.281,11.932,11.932,0,0,0-4.771-.878,10.933,10.933,0,0,0-5.379,1.348,10.2,10.2,0,0,0-3.716,3.554v-4.7h-4.622v13.191a3.893,3.893,0,0,1-.739,2.584,2.518,2.518,0,0,1-2.01.808,3.8,3.8,0,0,1-1.716-.4,10.532,10.532,0,0,0,1.711-5.8v-.058a10.385,10.385,0,0,0-3.057-7.447,10.957,10.957,0,0,0-7.794-3.082,11.005,11.005,0,0,0-7.824,3.111,10.433,10.433,0,0,0-3.085,7.476v.059a10.386,10.386,0,0,0,3.056,7.448,10.957,10.957,0,0,0,7.795,3.082,11.285,11.285,0,0,0,6.044-1.7,8.51,8.51,0,0,0,4.987,1.491c3.766,0,6.255-1.8,7.009-5.064Zm10.71-7.281v2.318a1.6,1.6,0,0,0,1.756,1.8,1.629,1.629,0,0,0,1.778-1.832v-2.289h-.892v2.324c0,.628-.311.974-.876.974s-.875-.356-.875-1v-2.295Zm-3.736,0v4.057h.893v-1.571h1.934v-.811h-1.934v-.864h2.2v-.811Zm12.753,0v4.056h1.582a2.026,2.026,0,0,0,2.156-2.028v-.012a2.021,2.021,0,0,0-2.156-2.017Zm-3.695,1.478,0,0,1.963,2.576h.759v-4.056h-.881v2.5l-1.9-2.5h-.823v4.056h.88v-2.578Zm-34.015,6.921a6.041,6.041,0,0,1-4.461-1.9,6.582,6.582,0,0,1-1.74-4.533v-.059a6.539,6.539,0,0,1,1.711-4.5,5.991,5.991,0,0,1,4.431-1.872,6.039,6.039,0,0,1,4.46,1.9,6.582,6.582,0,0,1,1.74,4.533v.059a6.537,6.537,0,0,1-1.711,4.5A5.989,5.989,0,0,1-2676.572-162.345Zm39.292-5.148h-.689v-2.444h.689a1.17,1.17,0,0,1,1.223,1.222v.012A1.152,1.152,0,0,1-2637.281-167.493Z" transform="translate(2691 190)" fill="#7a5bc3"/>
</svg>
