<svg xmlns="http://www.w3.org/2000/svg" width="94.065" height="50.74" viewBox="0 0 94.065 50.74">
  <g id="Layer" transform="translate(-16.615 -15.41)">
    <g id="Layer-2" data-name="Layer">
      <path id="Layer-3" data-name="Layer" d="M42.28,24.9c-1.66-2.38-5.37-4.22-10.91-3.63a17.748,17.748,0,0,0-7.56,2.67,11.14,11.14,0,0,1,4.45-5.77,15.513,15.513,0,0,1,8.29-2.76c2.88,0,4.47.94,5.62,2.5,1.86,2.54.75,5.77.11,6.99" fill="#8d6ec9"/>
    </g>
    <g id="Layer-4" data-name="Layer">
      <path id="Layer-5" data-name="Layer" d="M23.14,21.82c-1.23,2.62-.97,6.76,2.32,11.26a17.853,17.853,0,0,0,6.09,5.21,11.235,11.235,0,0,1-7.23-.97,15.443,15.443,0,0,1-6.53-5.81c-1.44-2.49-1.43-4.33-.65-6.11C18.41,22.52,21.76,21.87,23.14,21.82Z" fill="#8d6ec9"/>
    </g>
    <g id="Layer-6" data-name="Layer">
      <path id="Layer-7" data-name="Layer" d="M30.04,39.92c2.88-.24,6.34-2.53,8.59-7.63a17.794,17.794,0,0,0,1.47-7.88,11.16,11.16,0,0,1,2.77,6.74,15.461,15.461,0,0,1-1.76,8.56c-1.44,2.49-3.04,3.4-4.97,3.62-3.13.34-5.37-2.24-6.1-3.41" fill="#8d6ec9"/>
    </g>
    <g id="Layer-8" data-name="Layer">
      <path id="Layer-9" data-name="Layer" d="M63.45,16.67v1.89H60.03V28.61H57.92V18.56H54.51V16.67Z" fill="#8d6ec9"/>
    </g>
    <g id="Layer-10" data-name="Layer">
      <path id="Layer-11" data-name="Layer" d="M72.66,24.07v4.54H70.65v-4.4a1.763,1.763,0,0,0-1.68-2,1.967,1.967,0,0,0-2.06,2.12v4.28H64.9V16.11h2.01v5.63a2.811,2.811,0,0,1,2.51-1.43c2.08,0,3.24,1.4,3.24,3.76" fill="#8d6ec9"/>
    </g>
    <g id="Layer-12" data-name="Layer">
      <path id="Layer-13" data-name="Layer" d="M82.79,25.26H76.52A2.13,2.13,0,0,0,78.82,27a2.694,2.694,0,0,0,2.19-1.04l1.35,1.02a4.292,4.292,0,0,1-3.66,1.84,4.11,4.11,0,0,1-4.24-4.27,4.107,4.107,0,0,1,4.24-4.24,4,4,0,0,1,4.13,4.17C82.83,24.71,82.81,24.97,82.79,25.26Zm-1.95-1.4a1.983,1.983,0,0,0-2.12-1.77,2.067,2.067,0,0,0-2.2,1.77Z" fill="#8d6ec9" fill-rule="evenodd"/>
    </g>
    <g id="Layer-14" data-name="Layer">
      <path id="Layer-15" data-name="Layer" d="M60.37,35.33c3.41,0,5.41,2.6,5.41,6,0,3.38-2,5.95-5.41,5.95H55.69V35.33Zm0,10.06c2.17,0,3.27-1.84,3.27-4.06,0-2.24-1.1-4.11-3.27-4.11H57.8v8.17Z" fill="#8d6ec9" fill-rule="evenodd"/>
    </g>
    <g id="Layer-16" data-name="Layer">
      <path id="Layer-17" data-name="Layer" d="M67.26,43.22a4.31,4.31,0,1,1,4.3,4.26A4.182,4.182,0,0,1,67.26,43.22Zm6.59,0a2.282,2.282,0,1,0-4.56,0,2.283,2.283,0,1,0,4.56,0Z" fill="#8d6ec9" fill-rule="evenodd"/>
    </g>
    <g id="Layer-18" data-name="Layer">
      <path id="Layer-19" data-name="Layer" d="M85.53,42.73v4.55H83.52V42.87a1.753,1.753,0,0,0-1.68-1.99,1.969,1.969,0,0,0-2.07,2.1v4.3H77.76v-8.1h2.01v1.28a2.818,2.818,0,0,1,2.52-1.49c2.08,0,3.24,1.41,3.24,3.76" fill="#8d6ec9"/>
    </g>
    <g id="Layer-20" data-name="Layer">
      <path id="Layer-21" data-name="Layer" d="M87.31,43.22a4.31,4.31,0,1,1,4.3,4.26A4.182,4.182,0,0,1,87.31,43.22Zm6.59,0a2.283,2.283,0,1,0-2.29,2.39A2.3,2.3,0,0,0,93.9,43.22Z" fill="#8d6ec9" fill-rule="evenodd"/>
    </g>
    <g id="Layer-22" data-name="Layer">
      <path id="Layer-23" data-name="Layer" d="M103.47,39.25l-.39,1.91a2.482,2.482,0,0,0-1.18-.3c-1.32,0-2.05,1.32-2.05,3.59v2.83H97.83v-8.1h2.01v1.73a2.411,2.411,0,0,1,2.32-1.94,2.987,2.987,0,0,1,1.31.28" fill="#8d6ec9"/>
    </g>
    <g id="Layer-24" data-name="Layer">
      <path id="Layer-25" data-name="Layer" d="M104.13,44.78h1.89c0,.55.48,1.07,1.33,1.07.8,0,1.32-.39,1.32-.91,0-.46-.35-.66-.96-.8l-1.07-.28c-1.82-.48-2.29-1.46-2.29-2.48,0-1.26,1.25-2.41,3.02-2.41,1.44,0,3.07.73,3.05,2.53h-1.93a.974.974,0,0,0-1.07-.9.946.946,0,0,0-1.06.87c0,.41.4.66.87.76l1.3.35c1.82.47,2.15,1.61,2.15,2.36,0,1.64-1.65,2.54-3.29,2.54-1.62,0-3.23-.97-3.26-2.7" fill="#8d6ec9"/>
    </g>
    <g id="Layer-26" data-name="Layer">
      <path id="Layer-27" data-name="Layer" d="M62.93,55.89H57.8v3.24h4.05v1.89H57.8v4.92H55.68V54h7.25Z" fill="#8d6ec9"/>
    </g>
    <g id="Layer-28" data-name="Layer">
      <path id="Layer-29" data-name="Layer" d="M69.66,57.85h2.01v8.09H69.66V64.68a2.8,2.8,0,0,1-2.51,1.47c-2.08,0-3.24-1.4-3.24-3.76V57.85h2.01V62.3a1.744,1.744,0,0,0,1.68,1.98,1.95,1.95,0,0,0,2.06-2.1Z" fill="#8d6ec9"/>
    </g>
    <g id="Layer-30" data-name="Layer">
      <path id="Layer-31" data-name="Layer" d="M81.82,61.4v4.54H79.81v-4.4a1.753,1.753,0,0,0-1.68-1.99,1.953,1.953,0,0,0-2.06,2.09v4.3H74.06V57.85h2.01v1.28a2.8,2.8,0,0,1,2.51-1.49c2.08,0,3.24,1.4,3.24,3.76" fill="#8d6ec9"/>
    </g>
    <g id="Layer-32" data-name="Layer">
      <path id="Layer-33" data-name="Layer" d="M90.29,53.44h2.02v12.5H90.29V64.87a3.253,3.253,0,0,1-2.68,1.28,4.265,4.265,0,0,1-.02-8.51,3.262,3.262,0,0,1,2.7,1.26Zm-.03,8.43a2.358,2.358,0,0,0-2.34-2.36,2.289,2.289,0,0,0-2.27,2.36,2.334,2.334,0,0,0,2.27,2.41A2.359,2.359,0,0,0,90.26,61.87Z" fill="#8d6ec9" fill-rule="evenodd"/>
    </g>
  </g>
</svg>
