<svg width="30" height="30" viewBox="0 0 30 30" fill="none" xmlns="http://www.w3.org/2000/svg">
<path d="M26.25 0H5.625C5.13961 0 4.74609 0.393516 4.74609 0.878906V4.74609H3.75C3.26461 4.74609 2.87109 5.13961 2.87109 5.625C2.87109 6.11039 3.26461 6.50391 3.75 6.50391H4.74609V9.43359H3.75C3.26461 9.43359 2.87109 9.82711 2.87109 10.3125C2.87109 10.7979 3.26461 11.1914 3.75 11.1914H4.74609V14.1211H3.75C3.26461 14.1211 2.87109 14.5146 2.87109 15C2.87109 15.4854 3.26461 15.8789 3.75 15.8789H4.74609V18.8086H3.75C3.26461 18.8086 2.87109 19.2021 2.87109 19.6875C2.87109 20.1729 3.26461 20.5664 3.75 20.5664H4.74609V23.4961H3.75C3.26461 23.4961 2.87109 23.8896 2.87109 24.375C2.87109 24.8604 3.26461 25.2539 3.75 25.2539H4.74609V29.1211C4.74609 29.6065 5.13961 30 5.625 30H26.25C26.7354 30 27.1289 29.6065 27.1289 29.1211V0.878906C27.1289 0.393516 26.7354 0 26.25 0ZM20.625 21.9727C20.1396 21.9727 19.7461 21.5791 19.7461 21.0938C19.7461 18.7608 18.3215 16.3477 15.9375 16.3477C13.5535 16.3477 12.1289 18.7608 12.1289 21.0938C12.1289 21.5791 11.7354 21.9727 11.25 21.9727C10.7646 21.9727 10.3711 21.5791 10.3711 21.0938C10.3711 18.8607 11.3906 16.5471 13.2574 15.3659C12.3531 14.6021 11.7773 13.461 11.7773 12.1875C11.7773 9.89361 13.6436 8.02734 15.9375 8.02734C18.2314 8.02734 20.0977 9.89361 20.0977 12.1875C20.0977 13.461 19.5219 14.6021 18.6176 15.3659C20.4845 16.5472 21.5039 18.8604 21.5039 21.0938C21.5039 21.5791 21.1104 21.9727 20.625 21.9727Z" fill="#B6A9D3"/>
<path d="M15.9375 14.5898C17.2643 14.5898 18.3398 13.5143 18.3398 12.1875C18.3398 10.8607 17.2643 9.78516 15.9375 9.78516C14.6107 9.78516 13.5352 10.8607 13.5352 12.1875C13.5352 13.5143 14.6107 14.5898 15.9375 14.5898Z" fill="#B6A9D3"/>
</svg>
