<svg width="27" height="27" viewBox="0 0 27 27" fill="none" xmlns="http://www.w3.org/2000/svg">
<path d="M3.34341 14.5586L3.2886 24.6984H0L0.0548099 14.5586H3.34341ZM2.02797 23.4378L2.08278 15.7644H1.31544L1.26063 23.4378H2.02797Z" fill="#7B5BC4"/>
<path d="M13.8654 26.3419C11.0153 26.3419 8.16519 25.739 5.53431 24.5332L4.60254 24.0947C4.32849 23.9851 4.16406 23.711 4.16406 23.437V15.7636C4.16406 15.4347 4.3833 15.1607 4.71216 15.1059L6.63051 14.5578C8.49405 14.0645 10.4124 14.2289 12.1663 14.9963L16.1675 16.3117C16.88 16.5309 17.4281 17.079 17.7021 17.7367C17.9762 18.3945 17.9214 19.107 17.5925 19.7099C17.5925 19.7099 17.5925 19.7099 17.5925 19.7647L23.3476 17.8464C24.1697 17.5723 24.9919 17.6271 25.6496 18.0108C26.3073 18.3945 26.8006 19.0522 26.965 19.9291C27.2391 21.5734 25.814 22.56 25.3755 22.8341C21.8677 25.1361 17.8666 26.3419 13.8654 26.3419ZM5.53431 22.9985L6.08241 23.2726C12.0567 26.013 19.0724 25.4101 24.3889 21.6831C25.3755 21.0253 25.4851 20.5869 25.3755 20.2032C25.2659 19.7647 25.0467 19.4359 24.7726 19.2714C24.4438 19.107 24.0601 19.0522 23.6216 19.2166L17.5377 21.2446C16.6059 21.5734 15.6742 21.6283 14.6876 21.409L9.09696 20.3128C8.71329 20.258 8.49405 19.8743 8.54886 19.4907C8.60367 19.107 8.93253 18.8329 9.3162 18.8878L15.1809 19.5455C15.6194 19.6003 16.003 19.381 16.2223 18.9974C16.3319 18.7233 16.3867 18.4493 16.2771 18.23C16.1675 17.956 15.9482 17.7367 15.6194 17.6271L11.5634 16.3117C11.5634 16.3117 11.5086 16.3117 11.5086 16.2569C10.1384 15.654 8.49405 15.4895 6.95937 15.928L5.53431 16.3117V22.9985Z" fill="#7B5BC4"/>
<path d="M21.6505 12.4213C21.4861 12.6953 21.2121 12.9146 20.8284 13.0242V13.3531C20.8284 13.5723 20.664 13.7367 20.3899 13.7367C20.1707 13.7367 20.0062 13.5723 20.0062 13.3531V13.1338C19.6774 13.079 19.3485 12.9694 19.0197 12.805L18.8552 12.6953L19.1841 11.654L19.4581 11.8184C19.8966 12.0924 20.2803 12.1472 20.4995 12.0376C20.664 11.928 20.7188 11.654 20.664 11.4347C20.6091 11.1607 20.4447 11.1059 20.1159 10.9414C19.787 10.8318 19.3485 10.6674 19.1293 10.1741C18.9648 9.6808 19.0197 9.18751 19.2937 8.80384C19.4581 8.52979 19.7322 8.36536 20.061 8.25574V7.87207C20.061 7.65283 20.2255 7.43359 20.4447 7.43359C20.664 7.43359 20.8832 7.59802 20.8832 7.87207V8.20093C21.1572 8.25574 21.4313 8.31055 21.6505 8.47498L21.815 8.5846L21.4861 9.62599L21.2121 9.46156C20.938 9.29713 20.6091 9.18751 20.4447 9.24232C20.3899 9.24232 20.3351 9.29713 20.2255 9.40675C20.1159 9.84523 20.2803 9.95485 20.7736 10.2289C21.1572 10.3933 21.6505 10.6126 21.7601 11.1607C21.9246 11.5443 21.8698 12.0376 21.6505 12.4213Z" fill="#7B5BC4"/>
<path d="M20.4448 13.8465C20.1708 13.8465 19.9515 13.6273 19.9515 13.3532V13.1888C19.6227 13.134 19.2938 13.0243 19.0198 12.8599L18.8005 12.7503L19.1294 11.5445L19.5131 11.7637C19.9515 11.983 20.2804 12.0926 20.4448 11.983C20.6093 11.8733 20.6093 11.6541 20.5545 11.4897C20.4996 11.2704 20.39 11.2156 20.0612 11.106C19.7323 10.9964 19.2938 10.832 19.0198 10.2839C18.8553 9.73574 18.9102 9.24245 19.1842 8.80397C19.3486 8.52992 19.6227 8.36549 19.9515 8.20106V7.8722C19.9515 7.59815 20.1708 7.37891 20.4448 7.37891C20.7189 7.37891 20.9381 7.59815 20.9381 7.8722V8.14625C21.2122 8.20106 21.4314 8.25587 21.6507 8.4203L21.8699 8.52992L21.4862 9.73574L21.1026 9.46169C20.8285 9.24245 20.5545 9.18764 20.39 9.24245C20.3352 9.24245 20.2804 9.29726 20.2256 9.35207C20.116 9.68093 20.2256 9.79055 20.7737 10.0098C21.1574 10.1742 21.6507 10.4483 21.8151 10.9964C21.9795 11.5445 21.9247 12.0378 21.6507 12.4214C21.4862 12.6955 21.2122 12.9147 20.8833 13.0243V13.2984C20.9381 13.6273 20.7189 13.8465 20.4448 13.8465ZM18.965 12.6407L19.0746 12.6955C19.4034 12.8599 19.7323 12.9695 20.0064 13.0243H20.0612V13.3532C20.0612 13.5176 20.2256 13.6821 20.39 13.6821C20.5545 13.6821 20.7189 13.5176 20.7189 13.3532V12.9695H20.7737C21.1026 12.8599 21.3766 12.6955 21.541 12.4214C21.7603 12.0378 21.8151 11.5993 21.6507 11.106C21.4862 10.6127 21.0477 10.3935 20.6641 10.229C20.2256 10.0098 19.8967 9.84536 20.0612 9.35207C20.116 9.24245 20.2256 9.13283 20.3352 9.13283C20.5545 9.07802 20.8833 9.18764 21.1574 9.35207L21.3218 9.46169L21.5958 8.58473L21.4862 8.52992C21.267 8.36549 20.9929 8.31068 20.7189 8.25587H20.6641V7.8722C20.6641 7.70777 20.4996 7.54334 20.3352 7.54334C20.1708 7.54334 20.0064 7.70777 20.0064 7.8722V8.31068H19.9515C19.6775 8.4203 19.4034 8.58473 19.239 8.85878C19.0198 9.18764 18.965 9.68093 19.1294 10.1742C19.3486 10.6127 19.7323 10.7771 20.0612 10.8868C20.39 10.9964 20.6093 11.106 20.6641 11.4349C20.7189 11.6541 20.6641 11.983 20.4448 12.1474C20.2256 12.3118 19.7871 12.2022 19.2938 11.9281L19.1294 11.8185L18.965 12.6407Z" fill="#7B5BC4"/>
<path d="M20.2256 16.3684C16.7178 16.3684 13.8677 13.7924 13.8677 10.5586C13.8677 8.25662 15.3475 6.22865 17.5948 5.29688L18.1428 6.61232C16.3889 7.32485 15.2927 8.85953 15.2927 10.5586C15.2927 12.9702 17.5399 14.9434 20.2804 14.9434C23.0209 14.9434 25.2681 12.9702 25.2681 10.5586C25.2681 8.91434 24.2268 7.37966 22.5276 6.66713L23.0757 5.35169C25.2681 6.33827 26.6384 8.36624 26.6384 10.5586C26.5836 13.7376 23.7335 16.3684 20.2256 16.3684Z" fill="#7B5BC4"/>
<path d="M21.9239 6.94057H18.4708C17.7583 6.94057 17.3198 6.28285 17.3198 5.35108C17.3198 5.13184 17.3746 4.74817 17.4843 4.47412C17.7035 4.03565 18.0324 3.81641 18.4708 3.81641H21.9239C22.6364 3.81641 23.0749 4.47412 23.0749 5.40589C23.0749 6.33766 22.6364 6.94057 21.9239 6.94057ZM18.7449 5.51551H21.6498C21.6498 5.40589 21.6498 5.24146 21.6498 5.13184H18.7449C18.7449 5.24146 18.7449 5.40589 18.7449 5.51551Z" fill="#7B5BC4"/>
<path d="M21.9248 5.02243H18.3621C18.0881 5.02243 17.814 4.858 17.7044 4.58395L16.8823 2.39155C16.7178 1.95307 16.7726 1.45978 17.1015 1.07611C17.4304 0.747253 17.8688 0.582823 18.3073 0.692443L19.6228 1.07611L19.9516 0.528013C20.0612 0.363583 20.2805 0.199154 20.4997 0.199154C20.719 0.199154 20.9382 0.253964 21.1026 0.418393L21.4863 0.911683L22.4729 0.199154C22.8565 -0.0748958 23.3498 -0.0748962 23.7335 0.253964C24.1172 0.582823 24.2268 1.07611 24.0076 1.51459L22.5277 4.58395C22.4181 4.858 22.1988 5.02243 21.9248 5.02243ZM18.8006 3.59737H21.4315L22.0892 2.22712L21.7604 2.44636C21.4863 2.6656 21.0478 2.61079 20.8286 2.33674L20.6093 2.1175L20.5545 2.28193C20.3901 2.55598 20.0612 2.6656 19.7872 2.55598L18.3073 2.17231L18.8006 3.59737Z" fill="#7B5BC4"/>
</svg>
