<svg width="27" height="27" viewBox="0 0 27 27" fill="none" xmlns="http://www.w3.org/2000/svg">
<path d="M3.34341 14.5593L3.2886 24.6991H0L0.0548099 14.5593H3.34341ZM2.02797 23.4385L2.08278 15.7651H1.31544L1.26063 23.4385H2.02797Z" fill="black"/>
<path d="M13.8655 26.3419C11.0154 26.3419 8.16531 25.739 5.53443 24.5332L4.60266 24.0947C4.32861 23.9851 4.16418 23.711 4.16418 23.437V15.7636C4.16418 15.4347 4.38342 15.1607 4.71228 15.1059L6.63063 14.5578C8.49417 14.0645 10.4125 14.2289 12.1664 14.9963L16.1676 16.3117C16.8801 16.5309 17.4282 17.079 17.7022 17.7367C17.9763 18.3945 17.9215 19.107 17.5926 19.7099C17.5926 19.7099 17.5926 19.7099 17.5926 19.7647L23.3477 17.8464C24.1698 17.5723 24.992 17.6271 25.6497 18.0108C26.3074 18.3945 26.8007 19.0522 26.9651 19.9291C27.2392 21.5734 25.8141 22.56 25.3756 22.8341C21.8678 25.1361 17.8667 26.3419 13.8655 26.3419ZM5.53443 22.9985L6.08253 23.2726C12.0568 26.013 19.0725 25.4101 24.389 21.6831C25.3756 21.0253 25.4852 20.5869 25.3756 20.2032C25.266 19.7647 25.0468 19.4359 24.7727 19.2714C24.4439 19.107 24.0602 19.0522 23.6217 19.2166L17.5378 21.2446C16.606 21.5734 15.6743 21.6283 14.6877 21.409L9.09708 20.3128C8.71341 20.258 8.49417 19.8743 8.54898 19.4907C8.60379 19.107 8.93265 18.8329 9.31632 18.8878L15.181 19.5455C15.6195 19.6003 16.0031 19.381 16.2224 18.9974C16.332 18.7233 16.3868 18.4493 16.2772 18.23C16.1676 17.956 15.9483 17.7367 15.6195 17.6271L11.5635 16.3117C11.5635 16.3117 11.5087 16.3117 11.5087 16.2569C10.1385 15.654 8.49417 15.4895 6.95949 15.928L5.53443 16.3117V22.9985Z" fill="black"/>
<path d="M21.6505 12.4215C21.4861 12.6955 21.2121 12.9148 20.8284 13.0244V13.3533C20.8284 13.5725 20.664 13.7369 20.3899 13.7369C20.1707 13.7369 20.0062 13.5725 20.0062 13.3533V13.134C19.6774 13.0792 19.3485 12.9696 19.0197 12.8052L18.8552 12.6955L19.1841 11.6542L19.4581 11.8186C19.8966 12.0926 20.2803 12.1474 20.4995 12.0378C20.664 11.9282 20.7188 11.6542 20.664 11.4349C20.6091 11.1609 20.4447 11.1061 20.1159 10.9416C19.787 10.832 19.3485 10.6676 19.1293 10.1743C18.9648 9.681 19.0197 9.18771 19.2937 8.80404C19.4581 8.52999 19.7322 8.36556 20.061 8.25594V7.87227C20.061 7.65303 20.2255 7.43379 20.4447 7.43379C20.664 7.43379 20.8832 7.59822 20.8832 7.87227V8.20113C21.1572 8.25594 21.4313 8.31075 21.6505 8.47518L21.815 8.5848L21.4861 9.62619L21.2121 9.46176C20.938 9.29733 20.6091 9.18771 20.4447 9.24252C20.3899 9.24252 20.3351 9.29733 20.2255 9.40695C20.1159 9.84543 20.2803 9.95505 20.7736 10.2291C21.1572 10.3935 21.6505 10.6128 21.7601 11.1609C21.9246 11.5445 21.8698 12.0378 21.6505 12.4215Z" fill="black"/>
<path d="M20.4448 13.8466C20.1708 13.8466 19.9515 13.6274 19.9515 13.3533V13.1889C19.6227 13.1341 19.2938 13.0244 19.0198 12.86L18.8005 12.7504L19.1294 11.5446L19.5131 11.7638C19.9515 11.9831 20.2804 12.0927 20.4448 11.9831C20.6093 11.8734 20.6093 11.6542 20.5545 11.4898C20.4996 11.2705 20.39 11.2157 20.0612 11.1061C19.7323 10.9965 19.2938 10.8321 19.0198 10.284C18.8553 9.73585 18.9102 9.24256 19.1842 8.80408C19.3486 8.53003 19.6227 8.3656 19.9515 8.20117V7.87231C19.9515 7.59826 20.1708 7.37902 20.4448 7.37902C20.7189 7.37902 20.9381 7.59826 20.9381 7.87231V8.14636C21.2122 8.20117 21.4314 8.25598 21.6507 8.42041L21.8699 8.53003L21.4862 9.73585L21.1026 9.4618C20.8285 9.24256 20.5545 9.18775 20.39 9.24256C20.3352 9.24256 20.2804 9.29737 20.2256 9.35218C20.116 9.68104 20.2256 9.79066 20.7737 10.0099C21.1574 10.1743 21.6507 10.4484 21.8151 10.9965C21.9795 11.5446 21.9247 12.0379 21.6507 12.4215C21.4862 12.6956 21.2122 12.9148 20.8833 13.0244V13.2985C20.9381 13.6274 20.7189 13.8466 20.4448 13.8466ZM18.965 12.6408L19.0746 12.6956C19.4034 12.86 19.7323 12.9696 20.0064 13.0244H20.0612V13.3533C20.0612 13.5177 20.2256 13.6822 20.39 13.6822C20.5545 13.6822 20.7189 13.5177 20.7189 13.3533V12.9696H20.7737C21.1026 12.86 21.3766 12.6956 21.541 12.4215C21.7603 12.0379 21.8151 11.5994 21.6507 11.1061C21.4862 10.6128 21.0477 10.3936 20.6641 10.2291C20.2256 10.0099 19.8967 9.84547 20.0612 9.35218C20.116 9.24256 20.2256 9.13294 20.3352 9.13294C20.5545 9.07813 20.8833 9.18775 21.1574 9.35218L21.3218 9.4618L21.5958 8.58484L21.4862 8.53003C21.267 8.3656 20.9929 8.31079 20.7189 8.25598H20.6641V7.87231C20.6641 7.70788 20.4996 7.54345 20.3352 7.54345C20.1708 7.54345 20.0064 7.70788 20.0064 7.87231V8.31079H19.9515C19.6775 8.42041 19.4034 8.58484 19.239 8.85889C19.0198 9.18775 18.965 9.68104 19.1294 10.1743C19.3486 10.6128 19.7323 10.7772 20.0612 10.8869C20.39 10.9965 20.6093 11.1061 20.6641 11.435C20.7189 11.6542 20.6641 11.9831 20.4448 12.1475C20.2256 12.3119 19.7871 12.2023 19.2938 11.9282L19.1294 11.8186L18.965 12.6408Z" fill="black"/>
<path d="M20.2256 16.3675C16.7178 16.3675 13.8677 13.7915 13.8677 10.5577C13.8677 8.25568 15.3475 6.22771 17.5948 5.29594L18.1428 6.61138C16.3889 7.32391 15.2927 8.85859 15.2927 10.5577C15.2927 12.9693 17.5399 14.9425 20.2804 14.9425C23.0209 14.9425 25.2681 12.9693 25.2681 10.5577C25.2681 8.9134 24.2268 7.37872 22.5276 6.66619L23.0757 5.35075C25.2681 6.33733 26.6384 8.3653 26.6384 10.5577C26.5836 13.7367 23.7335 16.3675 20.2256 16.3675Z" fill="black"/>
<path d="M21.9239 6.94146H18.4708C17.7583 6.94146 17.3198 6.28374 17.3198 5.35197C17.3198 5.13273 17.3746 4.74906 17.4843 4.47501C17.7035 4.03654 18.0324 3.8173 18.4708 3.8173H21.9239C22.6364 3.8173 23.0749 4.47501 23.0749 5.40678C23.0749 6.33855 22.6364 6.94146 21.9239 6.94146ZM18.7449 5.5164H21.6498C21.6498 5.40678 21.6498 5.24235 21.6498 5.13273H18.7449C18.7449 5.24235 18.7449 5.40678 18.7449 5.5164Z" fill="black"/>
<path d="M21.9248 5.02243H18.3621C18.0881 5.02243 17.814 4.858 17.7044 4.58395L16.8823 2.39155C16.7178 1.95307 16.7726 1.45978 17.1015 1.07611C17.4304 0.747253 17.8688 0.582823 18.3073 0.692443L19.6228 1.07611L19.9516 0.528013C20.0612 0.363583 20.2805 0.199154 20.4997 0.199154C20.719 0.199154 20.9382 0.253964 21.1026 0.418393L21.4863 0.911683L22.4729 0.199154C22.8565 -0.0748957 23.3498 -0.0748961 23.7335 0.253964C24.1172 0.582823 24.2268 1.07611 24.0076 1.51459L22.5277 4.58395C22.4181 4.858 22.1988 5.02243 21.9248 5.02243ZM18.8006 3.59737H21.4315L22.0892 2.22712L21.7604 2.44636C21.4863 2.6656 21.0478 2.61079 20.8286 2.33674L20.6093 2.1175L20.5545 2.28193C20.3901 2.55598 20.0612 2.6656 19.7872 2.55598L18.3073 2.17231L18.8006 3.59737Z" fill="black"/>
</svg>
