<svg width="36" height="36" viewBox="0 0 36 36" fill="none" xmlns="http://www.w3.org/2000/svg">
<path d="M30.7266 9.07031H29.7422V5.27344C29.7422 2.36566 27.3765 0 24.4688 0H11.5312C8.62348 0 6.25781 2.36566 6.25781 5.27344V9.07031H5.27344C2.36566 9.07031 0 11.436 0 14.3438V22.7812C0 25.689 2.36566 28.0547 5.27344 28.0547H6.25781V32.8359C6.25781 34.5806 7.67721 36 9.42188 36H26.5781C28.3228 36 29.7422 34.5806 29.7422 32.8359V28.0547H30.7266C33.6343 28.0547 36 25.689 36 22.7812V14.3438C36 11.436 33.6343 9.07031 30.7266 9.07031ZM8.36719 5.27344C8.36719 3.52877 9.78659 2.10938 11.5312 2.10938H24.4688C26.2134 2.10938 27.6328 3.52877 27.6328 5.27344V9.07031H8.36719V5.27344ZM27.6328 32.8359C27.6328 33.4175 27.1597 33.8906 26.5781 33.8906H9.42188C8.84032 33.8906 8.36719 33.4175 8.36719 32.8359V22.4297H27.6328V32.8359ZM33.8906 22.7812C33.8906 24.5259 32.4712 25.9453 30.7266 25.9453H29.7422V22.4297H30.375C30.9575 22.4297 31.4297 21.9575 31.4297 21.375C31.4297 20.7925 30.9575 20.3203 30.375 20.3203H5.625C5.04253 20.3203 4.57031 20.7925 4.57031 21.375C4.57031 21.9575 5.04253 22.4297 5.625 22.4297H6.25781V25.9453H5.27344C3.52877 25.9453 2.10938 24.5259 2.10938 22.7812V14.3438C2.10938 12.5991 3.52877 11.1797 5.27344 11.1797H30.7266C32.4712 11.1797 33.8906 12.5991 33.8906 14.3438V22.7812Z" fill="#625F69"/>
<path d="M20.8125 24.8203H15.1875C14.605 24.8203 14.1328 25.2925 14.1328 25.875C14.1328 26.4575 14.605 26.9297 15.1875 26.9297H20.8125C21.395 26.9297 21.8672 26.4575 21.8672 25.875C21.8672 25.2925 21.395 24.8203 20.8125 24.8203Z" fill="#625F69"/>
<path d="M20.8125 29.3203H15.1875C14.605 29.3203 14.1328 29.7925 14.1328 30.375C14.1328 30.9575 14.605 31.4297 15.1875 31.4297H20.8125C21.395 31.4297 21.8672 30.9575 21.8672 30.375C21.8672 29.7925 21.395 29.3203 20.8125 29.3203Z" fill="#625F69"/>
<path d="M9 13.5703H5.625C5.04253 13.5703 4.57031 14.0425 4.57031 14.625C4.57031 15.2075 5.04253 15.6797 5.625 15.6797H9C9.58247 15.6797 10.0547 15.2075 10.0547 14.625C10.0547 14.0425 9.58247 13.5703 9 13.5703Z" fill="#625F69"/>
</svg>
