<svg width="30" height="30" viewBox="0 0 30 30" fill="none" xmlns="http://www.w3.org/2000/svg">
<path d="M24.2578 4.6875H5.74219C5.41857 4.6875 5.15625 4.42518 5.15625 4.10156V2.57812C5.15625 1.15424 6.31049 0 7.73438 0H22.2656C23.6895 0 24.8438 1.15424 24.8438 2.57812V4.10156C24.8438 4.42518 24.5814 4.6875 24.2578 4.6875Z" fill="#7B5BC4"/>
<path d="M26.8359 6.5625H3.16406C1.41938 6.5625 0 7.98188 0 9.72656V20.7422C0 22.4869 1.41938 23.9062 3.16406 23.9062H5.15625V19.2188C5.15625 16.8925 7.04877 15 9.375 15H20.625C22.9512 15 24.8438 16.8925 24.8438 19.2188V23.9062H26.8359C28.5806 23.9062 30 22.4869 30 20.7422V9.72656C30 7.98188 28.5806 6.5625 26.8359 6.5625ZM5.62617 13.5938C4.84951 13.5938 4.21963 12.9642 4.21963 12.1875C4.21963 11.4108 4.84893 10.7812 5.62559 10.7812H5.62617C6.40283 10.7812 7.03242 11.4108 7.03242 12.1875C7.03242 12.9642 6.40283 13.5938 5.62617 13.5938V13.5938Z" fill="#7B5BC4"/>
<path d="M20.625 17.8125H9.375C8.59834 17.8125 7.96875 18.4421 7.96875 19.2188V23.9062V25.7812C7.96875 26.5579 8.59834 27.1875 9.375 27.1875H20.625C21.4017 27.1875 22.0312 26.5579 22.0312 25.7812V23.9062V19.2188C22.0312 18.4421 21.4017 17.8125 20.625 17.8125Z" fill="#7B5BC4"/>
</svg>
