<svg width="190" height="238" viewBox="0 0 190 238" fill="none" xmlns="http://www.w3.org/2000/svg">
<g clip-path="url(#clip0)">
<path d="M109.804 101.825C118.18 95.44 122.554 86.0365 121.505 76.6737C120.779 70.7688 118.083 65.2829 113.854 61.1062C109.626 56.9296 104.114 54.3071 98.2112 53.6643C92.8076 53.0627 87.3495 54.1272 82.5655 56.7156C77.7815 59.3041 73.8992 63.2934 71.437 68.1509C71.0924 68.8577 71.0407 69.6724 71.2935 70.4172C71.5462 71.162 72.0827 71.7763 72.7859 72.126C73.4891 72.4757 74.3018 72.5324 75.0465 72.2837C75.7912 72.035 76.4075 71.5011 76.7608 70.7986C78.6755 67.0275 81.6941 63.9325 85.4124 61.9279C89.1307 59.9232 93.3713 59.1046 97.5667 59.5816C102.129 60.0712 106.393 62.0913 109.666 65.3141C112.939 68.537 115.029 72.7735 115.597 77.3364C116.41 84.5993 112.898 91.9843 106.201 97.0908C100.086 101.753 91.7117 108.136 91.7117 119.093V136.831C91.7142 137.619 92.0285 138.374 92.5856 138.931C93.1428 139.487 93.8975 139.8 94.6842 139.8C95.4709 139.8 96.2255 139.487 96.7827 138.931C97.3399 138.374 97.6541 137.619 97.6566 136.831V119.093C97.6567 111.688 103.158 106.892 109.804 101.825Z" fill="#6D55A5"/>
<path d="M94.9062 151.712C96.5471 151.712 97.8774 150.379 97.8774 148.735C97.8774 147.09 96.5471 145.757 94.9062 145.757C93.2653 145.757 91.9351 147.09 91.9351 148.735C91.9351 150.379 93.2653 151.712 94.9062 151.712Z" fill="#6D55A5"/>
<path d="M19.5101 62.5994C19.8866 62.703 20.2798 62.7311 20.6671 62.6821C21.0545 62.6332 21.4284 62.5081 21.7675 62.3142C22.1066 62.1202 22.4041 61.8611 22.6431 61.5517C22.8821 61.2423 23.0579 60.8887 23.1603 60.5112C23.2866 60.0476 23.4167 59.586 23.5507 59.1263C23.7697 58.3678 23.6791 57.5531 23.2989 56.8615C22.9187 56.1698 22.28 55.6577 21.5232 55.4377C20.7664 55.2178 19.9534 55.3079 19.2629 55.6884C18.5724 56.0689 18.0609 56.7086 17.8409 57.4668C17.6987 57.9565 17.5598 58.4492 17.4243 58.9447C17.2175 59.7065 17.321 60.5195 17.7121 61.2048C18.1032 61.8901 18.7499 62.3918 19.5101 62.5994V62.5994Z" fill="#6D55A5"/>
<path d="M17.6072 77.339C17.6784 77.3433 17.7495 77.3462 17.8192 77.3462C18.5705 77.3458 19.2938 77.0601 19.8435 76.5468C20.3931 76.0334 20.7283 75.3304 20.7815 74.5794C20.8149 74.1042 20.8526 73.6305 20.8947 73.1582C20.9619 72.3739 20.7166 71.5949 20.2123 70.9914C19.708 70.3879 18.9858 70.009 18.2036 69.9376C17.4214 69.8662 16.6427 70.108 16.0379 70.6102C15.433 71.1124 15.0512 71.8341 14.9759 72.6176C14.928 73.1306 14.8873 73.645 14.851 74.1609C14.8237 74.5509 14.8733 74.9425 14.9971 75.3134C15.1208 75.6842 15.3162 76.027 15.5722 76.3221C15.8281 76.6172 16.1396 76.8589 16.4888 77.0334C16.8379 77.2079 17.218 77.3117 17.6072 77.339V77.339Z" fill="#6D55A5"/>
<path d="M20.0907 99.4577C19.7177 99.5721 19.3708 99.7591 19.0699 100.008C18.769 100.257 18.52 100.563 18.337 100.908C18.1541 101.253 18.0409 101.631 18.0039 102.021C17.9669 102.41 18.0067 102.803 18.1212 103.176C18.2721 103.667 18.4274 104.158 18.5871 104.647C18.7829 105.243 19.1613 105.762 19.6684 106.129C20.1755 106.497 20.7855 106.696 21.4115 106.696C21.4669 106.696 21.5234 106.672 21.5791 106.669C22.1737 105.117 23.0338 103.682 24.1208 102.427C24.0141 102.095 23.9071 101.764 23.8049 101.43C23.572 100.675 23.0504 100.044 22.3543 99.6749C21.6581 99.3053 20.8442 99.2272 20.0907 99.4577V99.4577Z" fill="#6D55A5"/>
<path d="M18.5477 92.1746C19.3299 92.0796 20.0424 91.6772 20.5285 91.0559C21.0146 90.4346 21.2346 89.6452 21.1399 88.8614C21.0833 88.3891 21.0301 87.9144 20.9803 87.4373C20.8999 86.6515 20.5113 85.9299 19.9 85.4312C19.2887 84.9326 18.5048 84.6977 17.7207 84.7782C16.9366 84.8588 16.2165 85.2482 15.7189 85.8608C15.2213 86.4733 14.9869 87.2589 15.0673 88.0447C15.1195 88.5591 15.1761 89.0692 15.2385 89.5792C15.3262 90.3007 15.6742 90.9651 16.2169 91.4472C16.7597 91.9294 17.4597 92.1958 18.185 92.1964C18.3062 92.1964 18.4273 92.1891 18.5477 92.1746V92.1746Z" fill="#6D55A5"/>
<path d="M28.2273 47.1611C28.4392 46.7339 28.655 46.3091 28.8746 45.8867C29.2388 45.1862 29.3104 44.3694 29.0737 43.6159C28.8369 42.8625 28.3112 42.2342 27.6121 41.8692C26.9131 41.5042 26.0979 41.4325 25.3461 41.6698C24.5943 41.907 23.9673 42.4339 23.6031 43.1344C23.3636 43.5936 23.1294 44.0552 22.9006 44.5193C22.5569 45.2264 22.5064 46.041 22.76 46.7854C23.0136 47.5297 23.5507 48.1433 24.2542 48.4921C24.9576 48.841 25.7702 48.8969 26.5145 48.6475C27.2589 48.3981 27.8746 47.8637 28.2272 47.1611L28.2273 47.1611Z" fill="#6D55A5"/>
<path d="M83.3545 6.73537C83.5021 6.73547 83.6496 6.72478 83.7957 6.7034C84.2689 6.6322 84.7449 6.56681 85.221 6.50286C85.6079 6.45175 85.9809 6.32473 86.3188 6.12905C86.6566 5.93338 86.9527 5.6729 87.19 5.36249C87.4274 5.05209 87.6014 4.69785 87.702 4.32003C87.8026 3.94221 87.828 3.54821 87.7766 3.16057C87.7252 2.77292 87.5981 2.39923 87.4025 2.06085C87.2068 1.72248 86.9466 1.42605 86.6366 1.18853C86.3266 0.950998 85.973 0.777026 85.5958 0.676556C85.2187 0.576085 84.8255 0.551086 84.4387 0.602987C83.9322 0.669835 83.4266 0.740546 82.922 0.81512C82.1801 0.924842 81.5071 1.31176 81.0381 1.89818C80.5691 2.4846 80.3389 3.22711 80.3937 3.9766C80.4484 4.72609 80.7841 5.42708 81.3333 5.9388C81.8825 6.45052 82.6046 6.73509 83.3545 6.73537V6.73537Z" fill="#6D55A5"/>
<path d="M164.645 54.2512C164.919 54.9909 165.474 55.5916 166.19 55.9214C166.905 56.2512 167.721 56.2831 168.46 56.0103C169.199 55.7374 169.8 55.182 170.13 54.4659C170.461 53.7498 170.495 52.9315 170.224 52.1906C170.044 51.7052 169.859 51.2218 169.67 50.7403C169.378 50.0097 168.809 49.4246 168.088 49.1129C167.367 48.8011 166.552 48.7879 165.822 49.0763C165.091 49.3647 164.504 49.9312 164.189 50.6519C163.874 51.3727 163.856 52.1892 164.14 52.9229C164.312 53.3633 164.482 53.8065 164.645 54.2512Z" fill="#6D55A5"/>
<path d="M168.038 66.6509C168.122 67.113 168.202 67.5775 168.276 68.0445C168.398 68.8248 168.824 69.5247 169.461 69.9901C170.098 70.4555 170.893 70.6483 171.672 70.5262C172.451 70.404 173.149 69.9768 173.614 69.3386C174.078 68.7004 174.271 67.9035 174.149 67.1231C174.069 66.6073 173.98 66.0958 173.887 65.5842C173.746 64.807 173.303 64.1177 172.655 63.6681C172.006 63.2185 171.206 63.0454 170.431 63.1868C169.655 63.3283 168.967 63.7727 168.519 64.4223C168.07 65.0719 167.897 65.8736 168.038 66.6509V66.6509Z" fill="#6D55A5"/>
<path d="M55.5325 16.6069C56.0629 16.6067 56.5836 16.4642 57.0405 16.1942C57.4513 15.9501 57.8644 15.7108 58.28 15.4764C58.6191 15.2833 58.917 15.0251 59.1566 14.7166C59.3962 14.4082 59.5728 14.0554 59.6764 13.6786C59.7799 13.3017 59.8084 12.9081 59.7602 12.5202C59.7119 12.1323 59.5879 11.7577 59.3952 11.4178C59.2025 11.0779 58.9449 10.7794 58.6371 10.5393C58.3293 10.2992 57.9773 10.1222 57.6012 10.0184C57.2251 9.91466 56.8323 9.88613 56.4453 9.93447C56.0582 9.98281 55.6844 10.1071 55.3452 10.3002C54.9011 10.5531 54.4589 10.8088 54.0186 11.0675C53.4571 11.3992 53.02 11.9069 52.775 12.5123C52.5299 13.1176 52.4904 13.787 52.6626 14.417C52.8348 15.0471 53.2091 15.6029 53.7277 15.9986C54.2464 16.3944 54.8805 16.6081 55.5324 16.6069L55.5325 16.6069Z" fill="#6D55A5"/>
<path d="M31.6077 35.5942C32.2334 36.0745 33.0237 36.2864 33.8052 36.1834C34.5867 36.0804 35.2955 35.671 35.7761 35.0449C36.0649 34.6671 36.3576 34.2926 36.6542 33.9216C37.1444 33.3049 37.3706 32.5186 37.2831 31.7351C37.1956 30.9516 36.8016 30.2348 36.1876 29.742C35.5735 29.2491 34.7894 29.0204 34.0074 29.106C33.2253 29.1916 32.5089 29.5845 32.0155 30.1986C31.6919 30.6025 31.373 31.0099 31.059 31.4207C30.8216 31.7308 30.6474 32.0848 30.5465 32.4624C30.4455 32.8399 30.4198 33.2337 30.4708 33.6213C30.5217 34.0088 30.6483 34.3825 30.8434 34.7211C31.0385 35.0596 31.2982 35.3563 31.6077 35.5942V35.5942Z" fill="#6D55A5"/>
<path d="M43.5352 25.3417C44.2611 25.3425 44.962 25.0762 45.5048 24.5933C45.8589 24.2794 46.2145 23.9684 46.5759 23.6618C46.8746 23.4094 47.1206 23.1005 47.3 22.7527C47.4794 22.4049 47.5885 22.025 47.6212 21.6349C47.6538 21.2447 47.6094 20.852 47.4903 20.4791C47.3713 20.1062 47.18 19.7605 46.9275 19.4618C46.675 19.163 46.3661 18.9172 46.0186 18.7383C45.6711 18.5593 45.2918 18.4508 44.9024 18.419C44.513 18.3872 44.1212 18.4327 43.7493 18.5528C43.3775 18.673 43.033 18.8654 42.7355 19.1192C42.3392 19.4549 41.9483 19.7945 41.5627 20.1379C41.1114 20.5385 40.7924 21.0673 40.6482 21.6541C40.504 22.2408 40.5414 22.8576 40.7555 23.4224C40.9696 23.9873 41.3503 24.4735 41.8468 24.8163C42.3433 25.1591 42.9322 25.3424 43.5352 25.3417V25.3417Z" fill="#6D55A5"/>
<path d="M68.9639 10.3277C69.3027 10.3271 69.6389 10.2686 69.9581 10.1548C70.4066 9.99497 70.857 9.83997 71.3094 9.68981C72.0566 9.43985 72.6742 8.90265 73.0262 8.19639C73.3782 7.49012 73.4359 6.67266 73.1864 5.92382C72.937 5.17498 72.4009 4.5561 71.6961 4.20335C70.9914 3.85059 70.1756 3.79284 69.4283 4.0428C68.9407 4.20556 68.453 4.37412 67.9697 4.54557C67.3094 4.7802 66.753 5.24117 66.399 5.84703C66.045 6.4529 65.9161 7.16466 66.0351 7.85654C66.1541 8.54843 66.5132 9.1759 67.0492 9.6281C67.5851 10.0803 68.2633 10.3281 68.9639 10.3277H68.9639Z" fill="#6D55A5"/>
<path d="M163.484 38.3169C163.215 37.878 162.943 37.4426 162.668 37.0105C162.244 36.3453 161.574 35.876 160.805 35.7055C160.036 35.5351 159.231 35.6775 158.567 36.1015C157.902 36.5255 157.433 37.1964 157.262 37.9669C157.091 38.7373 157.232 39.5442 157.655 40.2104C157.91 40.6115 158.164 41.0169 158.412 41.4238C158.824 42.0964 159.486 42.5777 160.251 42.7622C161.017 42.9466 161.824 42.819 162.496 42.4074C163.168 41.9958 163.649 41.3339 163.834 40.5669C164.019 39.8 163.893 38.9908 163.484 38.3169V38.3169Z" fill="#6D55A5"/>
<path d="M160.646 120.443C159.994 119.999 159.193 119.832 158.419 119.979C157.645 120.127 156.96 120.575 156.516 121.228C156.247 121.623 155.975 122.015 155.7 122.405C155.246 123.049 155.065 123.848 155.199 124.626C155.332 125.404 155.768 126.097 156.41 126.553C157.053 127.009 157.85 127.19 158.626 127.058C159.403 126.925 160.095 126.489 160.55 125.846C160.847 125.427 161.141 125.003 161.43 124.579C161.65 124.256 161.804 123.892 161.883 123.51C161.962 123.127 161.966 122.732 161.893 122.348C161.82 121.964 161.673 121.598 161.459 121.271C161.245 120.944 160.969 120.663 160.646 120.443V120.443Z" fill="#6D55A5"/>
<path d="M149.826 30.024C150.358 30.6065 151.1 30.9532 151.887 30.9879C152.674 31.0226 153.443 30.7425 154.025 30.2091C154.606 29.6757 154.952 28.9327 154.986 28.1437C155.021 27.3546 154.741 26.5841 154.209 26.0016C153.861 25.6223 153.51 25.2465 153.157 24.874C152.614 24.3015 151.866 23.9687 151.078 23.9487C150.29 23.9287 149.527 24.2232 148.956 24.7674C148.384 25.3116 148.052 26.0609 148.032 26.8505C148.012 27.6401 148.306 28.4053 148.849 28.9777C149.179 29.3236 149.504 29.6709 149.826 30.024Z" fill="#6D55A5"/>
<path d="M98.0515 5.94764C98.5276 5.96799 99.0022 5.99123 99.4754 6.0203C99.5377 6.02466 99.5987 6.02612 99.6611 6.02612C100.433 6.0261 101.175 5.72482 101.729 5.18613C102.283 4.64744 102.606 3.91369 102.629 3.14042C102.653 2.36714 102.375 1.61512 101.854 1.04377C101.334 0.472422 100.612 0.126648 99.8411 0.0797462C99.3273 0.0477749 98.8121 0.0216147 98.2954 0.00126572C97.9053 -0.0154897 97.5158 0.0449921 97.1491 0.17925C96.7824 0.313508 96.4458 0.518908 96.1584 0.783694C95.871 1.04848 95.6385 1.36746 95.4743 1.72237C95.3101 2.07729 95.2173 2.46117 95.2012 2.85206C95.1852 3.24295 95.2463 3.63317 95.3809 4.00039C95.5155 4.36761 95.7211 4.70462 95.9858 4.99215C96.2506 5.27967 96.5693 5.51206 96.9237 5.67601C97.2782 5.83996 97.6614 5.93227 98.0515 5.94764H98.0515Z" fill="#6D55A5"/>
<path d="M172.227 77.9448H172.182C171.402 77.9448 170.653 78.2524 170.097 78.8011C169.541 79.3497 169.223 80.0955 169.211 80.8773C169.204 81.3569 169.193 81.835 169.178 82.3131C169.153 83.1023 169.442 83.869 169.981 84.4448C170.52 85.0206 171.265 85.3583 172.053 85.3836C172.085 85.3851 172.118 85.3851 172.15 85.3851C172.921 85.385 173.662 85.0845 174.216 84.547C174.77 84.0096 175.094 83.2773 175.12 82.5049C175.136 81.9919 175.149 81.479 175.156 80.9645C175.167 80.175 174.864 79.4133 174.315 78.8471C173.766 78.2808 173.015 77.9563 172.227 77.9448Z" fill="#6D55A5"/>
<path d="M171.169 92.7787C170.787 92.6969 170.393 92.6913 170.009 92.7624C169.625 92.8334 169.259 92.9797 168.931 93.1929C168.604 93.4061 168.322 93.6819 168.101 94.0046C167.88 94.3273 167.725 94.6904 167.645 95.0733C167.545 95.5441 167.442 96.0121 167.333 96.48C167.245 96.861 167.234 97.2556 167.298 97.6412C167.363 98.0268 167.503 98.3958 167.71 98.7272C167.917 99.0586 168.187 99.3459 168.505 99.5727C168.823 99.7995 169.182 99.9614 169.562 100.049C169.782 100.099 170.007 100.124 170.233 100.125C170.904 100.124 171.556 99.8952 172.081 99.4763C172.607 99.0573 172.975 98.4725 173.127 97.8169C173.241 97.3142 173.353 96.8114 173.461 96.3086C173.624 95.536 173.474 94.7302 173.044 94.0682C172.614 93.4063 171.94 92.9425 171.169 92.7787Z" fill="#6D55A5"/>
<path d="M167.254 107.128C166.529 106.819 165.711 106.811 164.98 107.106C164.248 107.401 163.664 107.975 163.354 108.701C163.17 109.139 162.981 109.572 162.786 110.002C162.46 110.721 162.433 111.541 162.711 112.28C162.988 113.019 163.548 113.618 164.266 113.944C164.984 114.27 165.801 114.297 166.539 114.019C167.277 113.741 167.874 113.18 168.199 112.461C168.414 111.987 168.622 111.51 168.826 111.032C168.979 110.672 169.059 110.286 169.063 109.895C169.067 109.504 168.993 109.116 168.847 108.754C168.701 108.391 168.486 108.061 168.212 107.782C167.939 107.503 167.613 107.281 167.254 107.128V107.128Z" fill="#6D55A5"/>
<path d="M125.692 12.5074C126.125 12.7036 126.555 12.9041 126.982 13.109C127.334 13.2781 127.716 13.376 128.105 13.3973C128.495 13.4186 128.885 13.3628 129.253 13.2331C129.621 13.1034 129.959 12.9023 130.25 12.6414C130.54 12.3804 130.777 12.0647 130.945 11.7122C131.114 11.3597 131.212 10.9774 131.233 10.5871C131.254 10.1968 131.199 9.80606 131.069 9.4373C130.94 9.06854 130.739 8.72894 130.479 8.43788C130.218 8.14683 129.903 7.91002 129.551 7.74098C129.083 7.51574 128.612 7.2968 128.139 7.08415C127.422 6.75896 126.604 6.73278 125.868 7.01137C125.131 7.28996 124.534 7.85049 124.21 8.56965C123.885 9.28882 123.859 10.1077 124.137 10.8462C124.415 11.5846 124.975 12.1822 125.692 12.5074V12.5074Z" fill="#6D55A5"/>
<path d="M112.182 7.89233C112.65 8.00277 113.115 8.11757 113.579 8.23673C113.957 8.33414 114.351 8.35583 114.737 8.30054C115.124 8.24525 115.496 8.11406 115.832 7.9145C116.168 7.71494 116.462 7.45092 116.696 7.13755C116.93 6.82419 117.1 6.46763 117.196 6.0883C117.293 5.70896 117.313 5.3143 117.257 4.92691C117.201 4.53952 117.07 4.16701 116.87 3.83069C116.67 3.49438 116.406 3.20088 116.093 2.96699C115.779 2.7331 115.423 2.56341 115.045 2.46765C114.55 2.3427 114.055 2.21916 113.555 2.1C113.176 2.00911 112.782 1.99412 112.396 2.05589C112.011 2.11766 111.641 2.25497 111.309 2.45998C110.976 2.66498 110.687 2.93366 110.458 3.25065C110.23 3.56763 110.065 3.92671 109.975 4.30734C109.885 4.68797 109.87 5.08269 109.933 5.46893C109.995 5.85517 110.132 6.22535 110.337 6.55831C110.542 6.89126 110.811 7.18046 111.127 7.40936C111.444 7.63826 111.802 7.80238 112.182 7.89233H112.182Z" fill="#6D55A5"/>
<path d="M147.395 132.218C147.057 132.554 146.715 132.887 146.369 133.216C145.801 133.763 145.472 134.512 145.455 135.301C145.438 136.09 145.734 136.853 146.278 137.423C146.822 137.994 147.57 138.324 148.357 138.342C149.144 138.361 149.906 138.065 150.476 137.521C150.848 137.165 151.216 136.806 151.581 136.444C151.859 136.169 152.08 135.841 152.231 135.48C152.382 135.12 152.461 134.732 152.463 134.341C152.465 133.949 152.39 133.561 152.242 133.199C152.094 132.837 151.876 132.507 151.601 132.229C151.326 131.952 150.998 131.731 150.638 131.58C150.277 131.429 149.891 131.351 149.5 131.35C149.11 131.349 148.723 131.425 148.361 131.574C148 131.723 147.672 131.942 147.395 132.218Z" fill="#6D55A5"/>
<path d="M138.064 19.6279C138.451 19.904 138.836 20.184 139.219 20.4679C139.533 20.7024 139.889 20.8726 140.268 20.9688C140.647 21.0649 141.042 21.0852 141.429 21.0283C141.815 20.9714 142.187 20.8385 142.523 20.6372C142.859 20.4359 143.151 20.1703 143.384 19.8554C143.617 19.5406 143.786 19.1828 143.88 18.8025C143.975 18.4222 143.993 18.027 143.935 17.6394C143.877 17.2519 143.743 16.8796 143.541 16.5441C143.339 16.2086 143.073 15.9163 142.758 15.6841C142.344 15.3774 141.926 15.0742 141.504 14.7744C141.186 14.548 140.826 14.3867 140.446 14.2995C140.066 14.2124 139.672 14.2011 139.288 14.2664C138.903 14.3317 138.535 14.4723 138.205 14.6801C137.874 14.8879 137.588 15.1589 137.362 15.4776C137.136 15.7963 136.975 16.1565 136.888 16.5375C136.801 16.9186 136.79 17.313 136.855 17.6984C136.92 18.0838 137.061 18.4526 137.268 18.7837C137.475 19.1147 137.746 19.4016 138.064 19.628V19.6279Z" fill="#6D55A5"/>
<path d="M136.345 141.265C135.953 141.528 135.558 141.787 135.159 142.043C134.497 142.469 134.03 143.141 133.862 143.912C133.693 144.682 133.837 145.488 134.261 146.153C134.685 146.818 135.355 147.286 136.124 147.456C136.893 147.626 137.697 147.483 138.361 147.059C138.798 146.779 139.231 146.494 139.66 146.206C139.984 145.988 140.262 145.708 140.477 145.382C140.693 145.057 140.843 144.692 140.918 144.308C140.993 143.924 140.992 143.53 140.915 143.146C140.837 142.763 140.686 142.399 140.468 142.075C140.25 141.75 139.971 141.472 139.646 141.256C139.321 141.039 138.957 140.889 138.574 140.814C138.191 140.739 137.797 140.74 137.415 140.818C137.032 140.895 136.669 141.047 136.345 141.265V141.265Z" fill="#6D55A5"/>
<path d="M147.054 112.27C152.803 102.882 155.845 92.0814 155.842 81.0663C155.842 47.8149 128.506 20.7627 94.9063 20.7627C61.3062 20.7627 33.9705 47.8149 33.9705 81.0663C33.9705 82.9265 34.088 84.7736 34.2587 86.6126C36.0455 85.6319 38.0199 85.043 40.0511 84.885C39.9615 83.6176 39.9163 82.3447 39.9154 81.0663C39.9154 51.0962 64.5835 26.7149 94.9063 26.7149C125.229 26.7149 149.897 51.0961 149.897 81.0663C149.9 90.9827 147.162 100.706 141.985 109.158C139.212 113.477 136.167 117.615 132.869 121.546C129.091 126.027 125.652 130.785 122.582 135.78C118.237 143.572 115.016 151.941 113.015 160.639H76.9349C75.264 153.7 72.8537 146.961 69.7455 140.538C68.3656 140.98 66.926 141.208 65.4771 141.212C65.2962 141.212 65.1159 141.208 64.9361 141.201C64.6092 141.553 64.2648 141.888 63.9041 142.205C68.3822 151.101 71.362 160.678 72.723 170.548C72.9219 172.199 73.5719 173.764 74.6015 175.068C75.631 176.373 77 177.368 78.5576 177.942V181.471C78.5613 183.84 79.5022 186.11 81.174 187.784C82.8457 189.457 85.1119 190.398 87.4751 190.4H102.337C104.701 190.398 106.967 189.457 108.639 187.784C110.31 186.11 111.251 183.84 111.255 181.472V178C112.838 177.475 114.241 176.509 115.299 175.217C116.357 173.925 117.028 172.358 117.233 170.699C118.686 159.491 122.243 148.661 127.717 138.779C130.638 134.038 133.909 129.524 137.504 125.273C140.959 121.146 144.148 116.803 147.054 112.27ZM105.31 181.472C105.309 182.261 104.995 183.017 104.438 183.575C103.88 184.133 103.125 184.447 102.337 184.448H87.4751C86.6874 184.447 85.9321 184.133 85.3749 183.575C84.8177 183.017 84.504 182.261 84.5026 181.472V178.496H105.31V181.472ZM108.39 172.543H81.5853C80.8464 172.531 80.1376 172.248 79.5923 171.748C79.047 171.249 78.7027 170.567 78.6244 169.83C78.4943 168.759 78.3302 167.677 78.1512 166.591H111.821C111.632 167.741 111.461 168.88 111.329 169.996C111.235 170.707 110.883 171.359 110.342 171.829C109.8 172.298 109.106 172.552 108.39 172.543V172.543Z" fill="#6D55A5"/>
<path d="M71.3903 132.782L73.0268 131.143C74.2156 129.969 75.0212 128.461 75.3374 126.818C75.6535 125.175 75.4654 123.475 74.7979 121.942C76.3535 121.331 77.6878 120.262 78.6244 118.876C79.5611 117.49 80.0561 115.851 80.0441 114.177V111.866C80.056 110.192 79.561 108.553 78.6243 107.167C77.6877 105.781 76.3536 104.712 74.7981 104.102C75.4658 102.569 75.6542 100.87 75.3386 99.2277C75.023 97.5856 74.2181 96.078 73.0301 94.9036L71.3898 93.2627C69.8218 91.6884 67.6974 90.7974 65.4778 90.7833C64.3475 90.7802 63.2296 91.019 62.1989 91.4839C61.5872 89.9268 60.519 88.5919 59.1352 87.6552C57.7514 86.7185 56.1168 86.2239 54.447 86.2366H52.1382C50.4683 86.2238 48.8336 86.7182 47.4496 87.6546C46.0655 88.5911 44.9969 89.9256 44.3846 91.4826C43.3545 91.0188 42.2376 90.7803 41.1083 90.7833C38.888 90.7985 36.763 91.6894 35.1935 93.2632L33.5582 94.9012C32.0985 96.35 31.222 98.2865 31.0958 100.341C31.0185 101.632 31.255 102.923 31.785 104.102C30.2296 104.712 28.8956 105.781 27.9591 107.167C27.0226 108.554 26.5276 110.192 26.5395 111.866V114.177C26.5276 115.851 27.0226 117.49 27.9593 118.876C28.8959 120.262 30.2301 121.331 31.7857 121.942C31.2553 123.121 31.0185 124.412 31.0957 125.703C31.223 127.762 32.1028 129.701 33.5671 131.151L35.1886 132.777C36.7602 134.351 38.8867 135.243 41.1087 135.259C42.2377 135.262 43.3544 135.024 44.3843 134.561C44.9967 136.118 46.0654 137.452 47.4495 138.388C48.8336 139.325 50.4683 139.819 52.1382 139.806H54.447C56.1169 139.819 57.7516 139.324 59.1355 138.388C60.5194 137.451 61.5876 136.116 62.1993 134.559C63.2296 135.023 64.3471 135.262 65.477 135.259C67.6965 135.245 69.8209 134.355 71.3903 132.782V132.782ZM62.0152 126.664C60.4072 127.699 58.6276 128.439 56.7602 128.848V131.798C56.7232 132.377 56.4594 132.918 56.0261 133.303C55.5928 133.688 55.0252 133.886 54.447 133.854H52.1382C51.5596 133.887 50.9915 133.689 50.5578 133.304C50.124 132.919 49.8598 132.377 49.8226 131.798V128.848C47.9559 128.438 46.177 127.699 44.5692 126.664L42.4864 128.755C42.3045 128.933 42.0891 129.074 41.8527 129.169C41.6162 129.264 41.3634 129.311 41.1087 129.307C40.4633 129.298 39.8476 129.033 39.3955 128.571L37.763 126.934C37.3303 126.548 37.068 126.006 37.0335 125.426C36.9991 124.847 37.1953 124.277 37.5792 123.842L39.6636 121.756C38.6325 120.145 37.8949 118.364 37.4854 116.495H34.5398C33.9612 116.459 33.4203 116.195 33.0352 115.761C32.6501 115.326 32.4521 114.757 32.4844 114.177V111.866C32.452 111.286 32.65 110.716 33.0351 110.282C33.4202 109.848 33.9612 109.584 34.5398 109.549H37.4853C37.8946 107.68 38.6321 105.899 39.6635 104.289L37.5791 102.202C37.1952 101.767 36.999 101.197 37.0335 100.617C37.0679 100.038 37.3302 99.4953 37.7629 99.109L39.3955 97.4737C39.8466 97.0106 40.4623 96.7452 41.108 96.7354C41.3631 96.7319 41.6162 96.7792 41.8529 96.8747C42.0895 96.9701 42.3048 97.1117 42.4863 97.2913L44.5692 99.3766C46.1776 98.3441 47.9564 97.6065 49.8226 97.1981V94.2467C49.8587 93.6666 50.1226 93.1244 50.5565 92.7388C50.9905 92.3531 51.5592 92.1553 52.1382 92.1888H54.447C55.0257 92.1558 55.5939 92.3538 56.0273 92.7394C56.4608 93.1251 56.7243 93.667 56.7602 94.2467V97.1982C58.6271 97.6058 60.4066 98.3435 62.0152 99.3766L64.0994 97.2913C64.2809 97.1116 64.4962 96.97 64.7328 96.8745C64.9694 96.7791 65.2226 96.7318 65.4776 96.7353C66.1228 96.745 66.7378 97.0105 67.188 97.4736L68.823 99.109C69.2543 99.4963 69.5153 100.039 69.5491 100.618C69.583 101.198 69.3868 101.767 69.0035 102.202L66.9223 104.289C67.9527 105.899 68.6894 107.68 69.0981 109.549H72.0429C72.6215 109.584 73.1625 109.848 73.5478 110.282C73.9331 110.716 74.1313 111.286 74.0992 111.866V114.177C74.1312 114.757 73.9329 115.326 73.5477 115.761C73.1625 116.195 72.6215 116.459 72.0429 116.495H69.0982C68.6891 118.364 67.9524 120.145 66.9223 121.756L69.0035 123.842C69.3869 124.277 69.583 124.846 69.5492 125.426C69.5154 126.005 69.2543 126.547 68.823 126.934L67.188 128.571C66.737 129.033 66.1219 129.298 65.477 129.307C65.2224 129.311 64.9695 129.264 64.7331 129.169C64.4967 129.074 64.2813 128.933 64.0995 128.755L62.0152 126.664Z" fill="#6D55A5"/>
<path d="M53.2915 102.605C51.236 102.607 49.2273 103.22 47.5191 104.365C45.811 105.511 44.4802 107.139 43.6948 109.042C42.9095 110.946 42.705 113.04 43.1071 115.06C43.5092 117.08 44.4999 118.935 45.954 120.391C47.408 121.846 49.2602 122.837 51.2762 123.239C53.2923 123.64 55.3818 123.433 57.2806 122.644C59.1794 121.856 60.8022 120.521 61.944 118.808C63.0857 117.095 63.6951 115.082 63.6951 113.022C63.6906 110.259 62.5927 107.611 60.6424 105.658C58.692 103.705 56.0484 102.608 53.2915 102.605V102.605ZM53.2915 117.486C52.4106 117.485 51.5497 117.223 50.8176 116.732C50.0855 116.241 49.5152 115.543 49.1786 114.727C48.8421 113.912 48.7544 113.014 48.9267 112.148C49.0991 111.283 49.5237 110.488 50.1468 109.864C50.77 109.24 51.5638 108.815 52.4278 108.643C53.2918 108.471 54.1873 108.56 55.0011 108.898C55.8149 109.236 56.5104 109.808 56.9997 110.542C57.489 111.276 57.7502 112.139 57.7502 113.022C57.7483 114.206 57.2779 115.341 56.442 116.178C55.6061 117.015 54.4731 117.485 53.2915 117.486V117.486Z" fill="#6D55A5"/>
</g>
<defs>
<clipPath id="clip0">
<rect width="190" height="238" fill="white"/>
</clipPath>
</defs>
</svg>
