<svg width="41" height="60" viewBox="0 0 41 60" fill="none" xmlns="http://www.w3.org/2000/svg">
<path d="M20.9018 7.07481L18.2289 6.15324C17.0329 5.73938 16.394 4.43714 16.7992 3.22772C17.1833 2.11792 18.309 1.38403 19.7247 1.79793L27.7653 4.5673C28.9614 4.98116 29.6003 6.2834 29.1975 7.48175L26.4158 15.6354C26.002 16.8315 24.6974 17.4814 23.5014 17.0676C22.3054 16.6537 21.6554 15.3491 22.0716 14.142L23.1033 11.1109C14.131 15.2319 8.80614 24.5375 9.83622 34.4077C10.8663 44.2778 18.2745 52.463 27.9332 54.5213C29.3611 54.8221 30.0682 55.9653 29.8402 57.2121C29.6011 58.4565 28.4916 59.3325 26.9862 59.0153C15.3858 56.571 6.48816 46.731 5.26325 34.8776C4.0325 23.1617 10.2986 12.0776 20.9018 7.07481V7.07481V7.07481Z" fill="#EA4343"/>
</svg>
