<svg width="30" height="30" viewBox="0 0 30 30" fill="none" xmlns="http://www.w3.org/2000/svg">
<path d="M8.67307 8.55685H23.1931L19.5038 12.2661C18.9957 12.7764 18.9957 13.6045 19.5038 14.1157C19.7578 14.3711 20.0904 14.4991 20.4234 14.4991C20.7564 14.4991 21.089 14.3711 21.343 14.1157L27.2529 8.17447C27.313 8.11407 27.3669 8.04748 27.4147 7.97662C27.4266 7.95807 27.4351 7.93714 27.446 7.91812C27.4781 7.86437 27.5098 7.81015 27.5344 7.75213C27.5458 7.72455 27.551 7.69506 27.5609 7.667C27.5784 7.61468 27.5978 7.56284 27.6092 7.50767C27.6262 7.42301 27.6352 7.33693 27.6352 7.24894C27.6352 7.16095 27.6262 7.07487 27.6092 6.99021C27.5983 6.93504 27.5789 6.8832 27.5609 6.83088C27.551 6.80282 27.5462 6.77333 27.5344 6.74575C27.5098 6.68773 27.4786 6.63398 27.446 6.57976C27.4351 6.56074 27.4266 6.53981 27.4147 6.52126C27.3669 6.4504 27.313 6.38381 27.2529 6.32341L21.3444 0.3831C20.8364 -0.1277 20.0132 -0.1277 19.5047 0.3831C18.9966 0.893425 18.9966 1.72145 19.5047 2.23273L23.1931 5.9415H8.67307C3.89091 5.9415 0 9.85336 0 14.6613C0 15.3837 0.582336 15.9692 1.30091 15.9692C2.01949 15.9692 2.60183 15.3837 2.60183 14.6613C2.60183 11.2949 5.32523 8.55685 8.67307 8.55685ZM28.6996 14.0301C27.981 14.0301 27.3986 14.6156 27.3986 15.338C27.3986 18.7039 24.6752 21.442 21.3274 21.442H6.80732L10.4967 17.7327C11.0048 17.2224 11.0048 16.3944 10.4967 15.8831C9.98865 15.3718 9.16552 15.3723 8.65698 15.8831L2.74705 21.8248C2.68698 21.8852 2.63305 21.9518 2.58527 22.0227C2.57392 22.0407 2.56587 22.0607 2.55547 22.0788C2.52283 22.133 2.49018 22.1877 2.46606 22.2472C2.45518 22.2743 2.44997 22.3033 2.44004 22.3309C2.42254 22.3837 2.40267 22.436 2.39131 22.4916C2.37428 22.5763 2.3653 22.6624 2.3653 22.7503C2.3653 22.8383 2.37428 22.9244 2.39131 23.0091C2.4022 23.0647 2.42206 23.117 2.44004 23.1698C2.44997 23.1974 2.4547 23.2264 2.46606 23.2535C2.49066 23.3125 2.52283 23.3672 2.55547 23.4219C2.56587 23.44 2.57392 23.46 2.58527 23.478C2.63305 23.5489 2.68698 23.6155 2.74705 23.6759L8.65604 29.6167C8.91007 29.8721 9.24263 30 9.57567 30C9.9087 30 10.2413 29.8721 10.4953 29.6167C11.0034 29.1063 11.0034 28.2783 10.4953 27.767L6.80685 24.0583H21.3269C26.1091 24.0583 30 20.1464 30 15.3385C30.0005 14.6156 29.4181 14.0301 28.6996 14.0301Z" fill="#7B5BC4"/>
</svg>
