<svg width="30" height="30" viewBox="0 0 30 30" fill="none" xmlns="http://www.w3.org/2000/svg">
<path d="M29.115 14.37L15.6225 0.877499C15.075 0.3375 14.325 0 13.5 0H3.00002C1.34248 0 0 1.34248 0 3.00002V13.5C0 14.3325 0.3375 15.0825 0.885023 15.6225L14.385 29.1225C14.925 29.6625 15.675 30 16.5 30C17.325 30 18.0825 29.6625 18.6225 29.1225L29.1225 18.6225C29.6625 18.075 30 17.3251 30 16.5C30 15.6675 29.6625 14.9175 29.115 14.37ZM5.25002 7.50002C4.005 7.50002 3.00002 6.49504 3.00002 5.25002C3.00002 4.005 4.005 3.00002 5.25002 3.00002C6.49504 3.00002 7.50002 4.005 7.50002 5.25002C7.50002 6.49504 6.49497 7.50002 5.25002 7.50002Z" fill="#6D56A4"/>
</svg>
