<svg xmlns="http://www.w3.org/2000/svg" width="23.35" height="28.999" viewBox="0 0 23.35 28.999">
  <g id="Layer_2" data-name="Layer 2" transform="translate(0 17.191)">
    <g id="_ÎÓÈ_1" data-name="—ÎÓÈ_1" transform="translate(0 -17.191)">
      <circle id="Ellipse_4" data-name="Ellipse 4" cx="3.117" cy="3.117" r="3.117" transform="translate(14.533 4.408) rotate(-45)" fill="#b1a5cc"/>
      <circle id="Ellipse_5" data-name="Ellipse 5" cx="3.117" cy="3.117" r="3.117" transform="translate(0.691 1.941) rotate(-9.2)" fill="#b1a5cc"/>
      <path id="Path_104" data-name="Path 104" d="M100.329,118.476a1.816,1.816,0,0,0-1.816-1.816H92.566a1.816,1.816,0,0,0-1.816,1.816v7.684a1.816,1.816,0,0,0,1.816,1.816h.053v6.237a1.394,1.394,0,0,0,1.4,1.4h3.052a1.394,1.394,0,0,0,1.394-1.394v-6.238h.053a1.815,1.815,0,0,0,1.816-1.816Z" transform="translate(-83.936 -106.609)" fill="#b1a5cc"/>
      <circle id="Ellipse_6" data-name="Ellipse 6" cx="3.5" cy="3.5" r="3.5" transform="translate(7.393 3.317) rotate(-13.28)" fill="#b1a5cc"/>
      <path id="Path_105" data-name="Path 105" d="M5.707,103.351V95.667a2.929,2.929,0,0,1,2.452-2.886,4.608,4.608,0,0,1-.425-.556A1.607,1.607,0,0,0,6.914,92h-5.3A1.617,1.617,0,0,0,0,93.617v6.844a1.617,1.617,0,0,0,1.617,1.617h.047v5.557a1.243,1.243,0,0,0,1.242,1.24H5.625a1.243,1.243,0,0,0,1.243-1.242v-1.952A2.929,2.929,0,0,1,5.707,103.351Z" transform="translate(0 -83.801)" fill="#b1a5cc"/>
      <path id="Path_106" data-name="Path 106" d="M207,90.52h-5.3a1.606,1.606,0,0,0-.716.167,4.6,4.6,0,0,1-.526.725,2.928,2.928,0,0,1,2.452,2.886v7.684a2.934,2.934,0,0,1-1.161,2.328v1.84a1.242,1.242,0,0,0,1.242,1.243h2.719a1.243,1.243,0,0,0,1.242-1.243v-5.557H207a1.617,1.617,0,0,0,1.617-1.617V92.137A1.617,1.617,0,0,0,207,90.52Z" transform="translate(-185.407 -82.432)" fill="#b1a5cc"/>
    </g>
  </g>
</svg>
