<svg width="147" height="29" viewBox="0 0 147 29" fill="none" xmlns="http://www.w3.org/2000/svg">
<g clip-path="url(#clip0)">
<path d="M144.145 6.61225C145.363 5.39499 145.363 3.42142 144.145 2.20415C142.928 0.986887 140.955 0.986887 139.737 2.20415C138.52 3.42142 138.52 5.39499 139.737 6.61225C140.955 7.82952 142.928 7.82952 144.145 6.61225Z" fill="#B1A5CC"/>
<path d="M127.765 7.59638C129.464 7.32114 130.618 5.72045 130.343 4.02112C130.068 2.3218 128.467 1.16734 126.768 1.44257C125.068 1.7178 123.914 3.31849 124.189 5.01782C124.464 6.71715 126.065 7.87161 127.765 7.59638Z" fill="#B1A5CC"/>
<path d="M139.393 11.8673C139.393 11.3856 139.202 10.9237 138.861 10.5832C138.521 10.2426 138.059 10.0513 137.577 10.0513H131.63C131.148 10.0513 130.686 10.2426 130.346 10.5832C130.005 10.9237 129.814 11.3856 129.814 11.8673V19.5513C129.814 20.0329 130.005 20.4948 130.346 20.8354C130.686 21.1759 131.148 21.3673 131.63 21.3673H131.683V27.6043C131.682 27.7883 131.718 27.9707 131.788 28.141C131.858 28.3112 131.961 28.4658 132.091 28.596C132.221 28.7262 132.376 28.8292 132.546 28.8993C132.716 28.9694 132.899 29.0051 133.083 29.0043H136.135C136.505 29.0043 136.859 28.8574 137.121 28.596C137.382 28.3346 137.529 27.98 137.529 27.6103V21.3723H137.582C137.82 21.3724 138.057 21.3255 138.277 21.2343C138.497 21.1431 138.698 21.0093 138.866 20.8407C139.035 20.672 139.169 20.4718 139.26 20.2514C139.351 20.031 139.398 19.7948 139.398 19.5563L139.393 11.8673Z" fill="#B1A5CC"/>
<path d="M135.407 9.32572C137.289 8.88169 138.454 6.99664 138.01 5.11533C137.566 3.23402 135.681 2.06888 133.799 2.51291C131.918 2.95694 130.753 4.84199 131.197 6.7233C131.641 8.60461 133.526 9.76975 135.407 9.32572Z" fill="#B1A5CC"/>
<path d="M128.707 19.5502V11.8662C128.708 11.1728 128.955 10.5021 129.404 9.97365C129.853 9.44518 130.475 9.09315 131.159 8.98022C131.003 8.80592 130.861 8.62006 130.734 8.42422C130.486 8.27695 130.203 8.19923 129.914 8.19922H124.614C124.186 8.20001 123.775 8.37073 123.473 8.67389C123.17 8.97705 123 9.38788 123 9.81622V16.6602C123 17.0891 123.17 17.5004 123.474 17.8036C123.777 18.1069 124.188 18.2772 124.617 18.2772H124.664V23.8342C124.665 24.1632 124.796 24.4784 125.029 24.7109C125.262 24.9433 125.577 25.074 125.906 25.0742H128.625C128.954 25.0742 129.271 24.9434 129.504 24.7105C129.737 24.4776 129.868 24.1617 129.868 23.8322V21.8802C129.508 21.6076 129.216 21.2555 129.014 20.8513C128.813 20.4471 128.708 20.0018 128.707 19.5502V19.5502Z" fill="#B1A5CC"/>
<path d="M144.593 8.08789H139.293C139.044 8.08745 138.799 8.14461 138.577 8.25489C138.425 8.5131 138.249 8.75592 138.051 8.9799C138.735 9.09264 139.357 9.44461 139.806 9.97312C140.255 10.5016 140.502 11.1724 140.503 11.8659V19.5499C140.501 20.0011 140.396 20.4458 140.194 20.8496C139.993 21.2534 139.701 21.6052 139.342 21.8779V23.7179C139.342 23.8811 139.374 24.0427 139.436 24.1935C139.498 24.3443 139.59 24.4813 139.705 24.5968C139.821 24.7122 139.958 24.8038 140.108 24.8663C140.259 24.9287 140.421 24.9609 140.584 24.9609H143.303C143.632 24.9606 143.948 24.8296 144.181 24.5965C144.414 24.3634 144.545 24.0474 144.545 23.7179V18.1609H144.593C144.805 18.1609 145.015 18.1191 145.212 18.0378C145.408 17.9565 145.586 17.8374 145.736 17.6873C145.886 17.5371 146.005 17.3589 146.087 17.1627C146.168 16.9665 146.21 16.7562 146.21 16.5439V9.7049C146.21 9.27604 146.039 8.86475 145.736 8.5615C145.433 8.25826 145.022 8.08789 144.593 8.08789Z" fill="#B1A5CC"/>
</g>
<g clip-path="url(#clip1)">
<path d="M21.1454 6.61225C22.3626 5.39499 22.3626 3.42142 21.1454 2.20415C19.9281 0.986887 17.9545 0.986887 16.7373 2.20415C15.52 3.42142 15.52 5.39499 16.7373 6.61225C17.9545 7.82952 19.9281 7.82952 21.1454 6.61225Z" fill="#7B5BC4"/>
<path d="M4.76452 7.59638C6.46385 7.32114 7.61831 5.72045 7.34308 4.02112C7.06784 2.3218 5.46715 1.16734 3.76782 1.44257C2.06849 1.7178 0.914037 3.31849 1.18927 5.01782C1.4645 6.71715 3.06519 7.87161 4.76452 7.59638Z" fill="#7B5BC4"/>
<path d="M16.393 11.8673C16.393 11.3856 16.2016 10.9237 15.8611 10.5832C15.5205 10.2426 15.0586 10.0513 14.577 10.0513H8.62997C8.14833 10.0513 7.68642 10.2426 7.34586 10.5832C7.00529 10.9237 6.81396 11.3856 6.81396 11.8673V19.5513C6.81396 20.0329 7.00529 20.4948 7.34586 20.8354C7.68642 21.1759 8.14833 21.3673 8.62997 21.3673H8.68297V27.6043C8.68217 27.7883 8.71784 27.9707 8.78792 28.141C8.85799 28.3112 8.96109 28.4658 9.09125 28.596C9.22141 28.7262 9.37606 28.8292 9.54627 28.8993C9.71649 28.9694 9.89889 29.0051 10.083 29.0043H13.135C13.5047 29.0043 13.8592 28.8574 14.1207 28.596C14.3821 28.3346 14.529 27.98 14.529 27.6103V21.3723H14.582C14.8205 21.3724 15.0567 21.3255 15.2771 21.2343C15.4975 21.1431 15.6977 21.0093 15.8664 20.8407C16.035 20.672 16.1688 20.4718 16.26 20.2514C16.3512 20.031 16.3981 19.7948 16.398 19.5563L16.393 11.8673Z" fill="#7B5BC4"/>
<path d="M12.4074 9.32572C14.2887 8.88169 15.4539 6.99664 15.0099 5.11533C14.5658 3.23402 12.6808 2.06888 10.7995 2.51291C8.91817 2.95694 7.75302 4.84199 8.19705 6.7233C8.64108 8.60461 10.5261 9.76975 12.4074 9.32572Z" fill="#7B5BC4"/>
<path d="M5.707 19.5502V11.8662C5.70792 11.1728 5.95486 10.5021 6.40386 9.97365C6.85286 9.44518 7.4748 9.09315 8.159 8.98022C8.00344 8.80592 7.86137 8.62006 7.734 8.42422C7.48583 8.27695 7.20258 8.19923 6.914 8.19922H1.614C1.18566 8.20001 0.775145 8.37073 0.472547 8.67389C0.169949 8.97705 -7.37184e-07 9.38788 0 9.81622L0 16.6602C0 17.0891 0.170362 17.5004 0.473608 17.8036C0.776855 18.1069 1.18814 18.2772 1.617 18.2772H1.664V23.8342C1.66479 24.1632 1.79597 24.4784 2.02877 24.7109C2.26158 24.9433 2.57703 25.074 2.906 25.0742H5.625C5.95449 25.0742 6.2705 24.9434 6.50358 24.7105C6.73666 24.4776 6.86773 24.1617 6.868 23.8322V21.8802C6.50796 21.6076 6.21582 21.2555 6.01442 20.8513C5.81302 20.4471 5.7078 20.0018 5.707 19.5502V19.5502Z" fill="#7B5BC4"/>
<path d="M21.5928 8.08789H16.2928C16.0444 8.08745 15.7993 8.14461 15.5768 8.25489C15.4255 8.5131 15.2493 8.75592 15.0508 8.9799C15.7351 9.09264 16.3571 9.44461 16.8062 9.97312C17.2552 10.5016 17.5021 11.1724 17.5028 11.8659V19.5499C17.5013 20.0011 17.3958 20.4458 17.1944 20.8496C16.9931 21.2534 16.7013 21.6052 16.3418 21.8779V23.7179C16.3417 23.8811 16.3737 24.0427 16.4361 24.1935C16.4984 24.3443 16.5899 24.4813 16.7052 24.5968C16.8206 24.7122 16.9575 24.8038 17.1083 24.8663C17.259 24.9287 17.4206 24.9609 17.5838 24.9609H20.3028C20.6323 24.9606 20.9482 24.8296 21.1811 24.5965C21.414 24.3634 21.5448 24.0474 21.5448 23.7179V18.1609H21.5928C21.8051 18.1609 22.0154 18.1191 22.2116 18.0378C22.4078 17.9565 22.586 17.8374 22.7362 17.6873C22.8863 17.5371 23.0054 17.3589 23.0867 17.1627C23.168 16.9665 23.2098 16.7562 23.2098 16.5439V9.7049C23.2098 9.27604 23.0394 8.86475 22.7362 8.5615C22.4329 8.25826 22.0216 8.08789 21.5928 8.08789Z" fill="#7B5BC4"/>
</g>
<defs>
<clipPath id="clip0">
<rect width="23.35" height="28.999" fill="white" transform="translate(123)"/>
</clipPath>
<clipPath id="clip1">
<rect width="23.35" height="28.999" fill="white"/>
</clipPath>
</defs>
</svg>
