<svg width="30" height="30" viewBox="0 0 30 30" fill="none" xmlns="http://www.w3.org/2000/svg">
<g clip-path="url(#clip0)">
<path d="M30.0002 30.0013L24.0014 24.0025H3.00131C2.20586 24.0017 1.44298 23.6853 0.880518 23.1229C0.318054 22.5604 0.00177701 21.7978 0.000976562 21.0023V3.00216C0.00177701 2.20672 0.318054 1.44409 0.880518 0.881625C1.44298 0.31916 2.20586 0.00281461 3.00131 0.00201416H27.0017C27.7952 0.00481622 28.5548 0.322286 29.1144 0.88475C29.674 1.44721 29.9878 2.20872 29.9866 3.00216L30.0017 30.0005L30.0002 30.0013ZM5.02244 13.7155V17.117H25.0537V13.7155H5.02244ZM5.02244 6.91241V10.3139H25.0537V6.91241H5.02244Z" fill="#7B5BC4"/>
</g>
<defs>
<clipPath id="clip0">
<rect width="30" height="30.0008" fill="white"/>
</clipPath>
</defs>
</svg>
