<svg width="30" height="30" viewBox="0 0 30 30" fill="none" xmlns="http://www.w3.org/2000/svg">
<path d="M6 25H20.072L24.272 29.681C24.4583 29.8833 24.7205 29.9989 24.9955 30C25.1545 29.9999 25.3112 29.9618 25.4525 29.889C25.8476 29.6936 26.0646 29.2593 25.9835 28.826L25.341 24.822C28.0411 24.1727 29.9585 21.7768 30 19V6C29.9964 2.68778 27.3122 0.00358242 24 0H6C2.68778 0.00358242 0.00358242 2.68778 0 6V19C0.00358242 22.3122 2.68778 24.9964 6 25V25ZM1 6C1.00303 3.23983 3.23983 1.00303 6 1H24C26.7602 1.00303 28.997 3.23983 29 6V19C28.9604 21.319 27.353 23.3159 25.096 23.85C24.5927 23.975 24.2693 24.4651 24.3525 24.977L25.0075 29.0045L20.816 24.33C20.626 24.1195 20.3556 23.9995 20.072 24H6C3.23983 23.997 1.00303 21.7602 1 19V6Z" fill="#6D56A4"/>
<path d="M3 6C3.00165 4.34383 4.34383 3.00165 6 3C6.27614 3 6.5 2.77614 6.5 2.5C6.5 2.22386 6.27614 2 6 2C3.79189 2.00248 2.00248 3.79189 2 6C2 6.27614 2.22386 6.5 2.5 6.5C2.77614 6.5 3 6.27614 3 6Z" fill="#6D56A4"/>
<path d="M8 3C8.27614 3 8.5 2.77614 8.5 2.5C8.5 2.22386 8.27614 2 8 2C7.72386 2 7.5 2.22386 7.5 2.5C7.5 2.77614 7.72386 3 8 3Z" fill="#6D56A4"/>
<path d="M4.5 12.4999C4.5 13.8806 5.61929 14.9999 7 14.9999C8.38071 14.9999 9.49999 13.8806 9.49999 12.4999C9.49999 11.1192 8.38071 9.99988 7 9.99988C5.61997 10.0015 4.50165 11.1198 4.5 12.4999ZM7 10.9999C7.82842 10.9999 8.49999 11.6714 8.49999 12.4999C8.49999 13.3283 7.82842 13.9999 7 13.9999C6.17157 13.9999 5.5 13.3283 5.5 12.4999C5.5 11.6714 6.17157 10.9999 7 10.9999Z" fill="#6D56A4"/>
<path d="M15 14.9999C16.3807 14.9999 17.5 13.8806 17.5 12.4999C17.5 11.1192 16.3807 9.99988 15 9.99988C13.6193 9.99988 12.5 11.1192 12.5 12.4999C12.5017 13.8799 13.62 14.9982 15 14.9999ZM15 10.9999C15.8284 10.9999 16.5 11.6714 16.5 12.4999C16.5 13.3283 15.8284 13.9999 15 13.9999C14.1716 13.9999 13.5 13.3283 13.5 12.4999C13.5 11.6714 14.1716 10.9999 15 10.9999Z" fill="#6D56A4"/>
<path d="M23 14.9999C24.3807 14.9999 25.5 13.8806 25.5 12.4999C25.5 11.1192 24.3807 9.99988 23 9.99988C21.6193 9.99988 20.5 11.1192 20.5 12.4999C20.5017 13.8799 21.62 14.9982 23 14.9999ZM23 10.9999C23.8284 10.9999 24.5 11.6714 24.5 12.4999C24.5 13.3283 23.8284 13.9999 23 13.9999C22.1716 13.9999 21.5 13.3283 21.5 12.4999C21.5 11.6714 22.1716 10.9999 23 10.9999Z" fill="#6D56A4"/>
</svg>
