<svg xmlns="http://www.w3.org/2000/svg" width="23.723" height="16" viewBox="0 0 23.723 16"><defs><style>.a{opacity:0.698;}.b{fill:#fff;}</style></defs><g class="a"><path class="b" d="M16.66,254.4H1.747A1.77,1.77,0,0,0,0,256.147v8.5a1.783,1.783,0,0,0,1.747,1.773H16.66a1.783,1.783,0,0,0,1.747-1.773v-8.5A1.769,1.769,0,0,0,16.66,254.4Zm-7.2,7.223a.443.443,0,1,1,0,.886H2.477a.443.443,0,1,1,0-.886Zm-5.5-1.852v-.782a.443.443,0,1,1,.887,0v.782a.443.443,0,1,1-.887,0Zm1.955,0v-.782a.443.443,0,0,1,.886,0v.782a.443.443,0,1,1-.886,0Zm1.955,0v-.782a.443.443,0,0,1,.886,0v.782a.443.443,0,1,1-.886,0Zm1.956,0v-.782a.443.443,0,0,1,.887,0v.782a.443.443,0,1,1-.887,0Zm-2.764,4.12a.443.443,0,0,1-.443.443H2.477a.443.443,0,1,1,0-.886H6.623a.443.443,0,0,1,.443.443Zm-4.172-4.12a.443.443,0,1,1-.887,0v-.782a.443.443,0,0,1,.887,0Zm11.373,2.211a1.355,1.355,0,1,1,0,1.994,1.351,1.351,0,0,1-.917.358,1.355,1.355,0,1,1,0-2.71,1.35,1.35,0,0,1,.917.358Zm-.526-2.211v-.782a.443.443,0,0,1,.886,0v.782a.443.443,0,1,1-.886,0Zm-1.068,0a.443.443,0,1,1-.887,0v-.782a.443.443,0,0,1,.887,0Zm3.937,0a.443.443,0,1,1-.887,0v-.782a.443.443,0,1,1,.887,0Z" transform="translate(0 -250.419)"/><path class="b" d="M266.44,1V4.047l12.064,0,.022,0a2.753,2.753,0,0,1,1.916.59,2.751,2.751,0,0,1,.765,2.136c.013,5.4.015,5.87.015,5.87h4.38c0-8.963,0-11.643,0-11.643Z" transform="translate(-261.877 -1)"/></g></svg>