<svg width="69" height="99" viewBox="0 0 69 99" fill="none" xmlns="http://www.w3.org/2000/svg">
<path d="M4.92625 39.5351H49.2624V25.2489C49.2624 17.8596 44.3362 11.4554 37.4395 9.97757C28.0796 8.4997 19.705 15.3964 19.705 24.7563C19.705 27.7121 17.2418 29.6826 14.7787 29.6826C12.3156 29.6826 9.85249 27.7121 9.85249 24.7563C9.85249 10.4702 22.1681 -1.35279 36.9468 0.12508C49.7551 1.60295 59.1149 12.9333 59.1149 25.7416V39.5351H64.0412C66.5043 39.5351 68.9674 41.5056 68.9674 44.4613V93.7238C68.9674 96.1869 66.5043 98.65 64.0412 98.65H4.92625C1.9705 98.65 0 96.1869 0 93.7238V44.4613C0 41.5056 1.9705 39.5351 4.92625 39.5351ZM29.5575 72.5409V78.945C29.5575 81.9008 31.528 83.8713 34.4837 83.8713C37.4394 83.8713 39.4099 81.9008 39.4099 78.945V72.5409C42.3657 70.5704 44.3362 67.6147 44.3362 64.1663C44.3362 57.7622 38.4247 53.3285 32.0206 54.8064C28.5722 55.7917 25.6165 58.7474 24.6312 62.1958C23.646 66.6294 26.1091 70.5704 29.5575 72.5409Z" fill="#C8BDE0"/>
</svg>
