<svg width="60" height="60" viewBox="0 0 60 60" fill="none" xmlns="http://www.w3.org/2000/svg">
<g clip-path="url(#clip0)">
<path d="M30.8709 0.368199C30.3834 -0.12059 29.5919 -0.121527 29.1031 0.365973C29.1024 0.366676 29.1016 0.367496 29.1009 0.368199L6.6009 22.8682C6.12125 23.3647 6.13508 24.1561 6.63161 24.6357C7.11606 25.1036 7.88399 25.1036 8.36833 24.6357L28.7359 4.2682V58.7507C28.7359 59.441 29.2956 60.0007 29.9859 60.0007C30.6763 60.0007 31.2359 59.441 31.2359 58.7507V4.2682L51.6009 24.6332C52.0806 25.1297 52.8718 25.1435 53.3684 24.6639C53.865 24.1842 53.8787 23.393 53.3991 22.8963C53.3891 22.8859 53.3789 22.8757 53.3684 22.8656L30.8709 0.368199Z" fill="#4CAF50"/>
<path d="M52.4858 25.0003C52.1541 25.0009 51.8357 24.8696 51.6008 24.6352L29.9858 3.01777L8.37084 24.6353C7.87432 25.115 7.08295 25.1012 6.6033 24.6046C6.13549 24.1202 6.13549 23.3523 6.6033 22.8679L29.1033 0.36793C29.5914 -0.120039 30.3826 -0.120039 30.8708 0.36793L53.3708 22.8679C53.8582 23.3568 53.857 24.1483 53.368 24.6357C53.1338 24.8691 52.8165 25.0003 52.4858 25.0003Z" fill="#20B737"/>
<path d="M29.9859 60C29.2955 60 28.7358 59.4403 28.7358 58.75V1.25004C28.7358 0.559688 29.2955 0 29.9859 0C30.6762 0 31.2359 0.559688 31.2359 1.25004V58.7501C31.2358 59.4403 30.6762 60 29.9859 60Z" fill="#20B737"/>
</g>
<defs>
<clipPath id="clip0">
<rect width="60" height="60" fill="white"/>
</clipPath>
</defs>
</svg>
