<svg width="22" height="21" viewBox="0 0 22 21" fill="none" xmlns="http://www.w3.org/2000/svg">
<g clip-path="url(#clip0)">
<path d="M21.8669 17.9945C21.7747 17.551 21.3409 17.2663 20.8978 17.3586C20.4548 17.4509 20.1704 17.8854 20.2627 18.3289C20.3158 18.5843 20.2525 18.8462 20.0892 19.0474C19.9945 19.1639 19.7835 19.3594 19.4338 19.3594H3.43231C3.08255 19.3594 2.87154 19.1639 2.77691 19.0474C2.6135 18.8462 2.55025 18.5843 2.60339 18.3289C3.45365 14.2398 7.0559 11.2528 11.2158 11.1521C11.2879 11.1549 11.3603 11.1562 11.433 11.1562C11.506 11.1562 11.5787 11.1548 11.651 11.152C14.5813 11.2224 17.2898 12.7084 18.93 15.1576C19.1819 15.5339 19.6909 15.6344 20.0667 15.3821C20.4426 15.1298 20.543 14.6203 20.2909 14.244C18.9466 12.2365 16.9945 10.7768 14.7687 10.0433C16.1251 9.02491 17.0043 7.40238 17.0043 5.57812C17.0043 2.50236 14.505 0 11.433 0C8.36104 0 5.86181 2.50236 5.86181 5.57812C5.86181 7.40348 6.74206 9.02688 8.09984 10.0452C6.85582 10.4553 5.68853 11.0933 4.66687 11.9347C2.79346 13.4776 1.4909 15.6297 0.999202 17.9945C0.845092 18.7355 1.02972 19.4966 1.50565 20.0825C1.97924 20.6656 2.68151 21 3.43231 21H19.4337C20.1846 21 20.8868 20.6656 21.3604 20.0825C21.8364 19.4966 22.021 18.7355 21.8669 17.9945ZM7.50041 5.57812C7.50041 3.40696 9.26456 1.64062 11.433 1.64062C13.6015 1.64062 15.3657 3.40696 15.3657 5.57812C15.3657 7.68243 13.7084 9.40648 11.6321 9.51062C11.5658 9.50939 11.4995 9.50877 11.433 9.50877C11.3669 9.50877 11.3008 9.50943 11.2348 9.51066C9.15805 9.40693 7.50041 7.68272 7.50041 5.57812Z" fill="#523989"/>
</g>
<defs>
<clipPath id="clip0">
<rect width="20.974" height="21" fill="white" transform="translate(0.945557)"/>
</clipPath>
</defs>
</svg>
