<svg width="30" height="34" viewBox="0 0 30 34" fill="none" xmlns="http://www.w3.org/2000/svg">
<path d="M15 17C16.6953 17 18.3525 16.5015 19.762 15.5675C21.1716 14.6335 22.2702 13.306 22.919 11.7528C23.5677 10.1996 23.7375 8.49057 23.4067 6.84174C23.076 5.1929 22.2597 3.67834 21.0609 2.4896C19.8622 1.30085 18.3349 0.491303 16.6722 0.163329C15.0095 -0.164645 13.2861 0.00368297 11.7199 0.647028C10.1536 1.29037 8.81496 2.37984 7.87312 3.77766C6.93128 5.17548 6.42857 6.81886 6.42857 8.5C6.42857 10.7543 7.33163 12.9164 8.93909 14.5104C10.5465 16.1045 12.7267 17 15 17ZM21 19.125H19.8819C18.3512 19.825 16.6856 20.1876 15 20.1876C13.3144 20.1876 11.6488 19.825 10.1181 19.125H9C6.61321 19.1255 4.32431 20.066 2.6366 21.7396C0.948879 23.4133 0.000504981 25.6831 0 28.05L0 30.8125C0.000252452 31.6578 0.338981 32.4684 0.941721 33.0661C1.54446 33.6638 2.36188 33.9998 3.21429 34H26.7857C27.6381 33.9998 28.4555 33.6638 29.0583 33.0661C29.661 32.4684 29.9997 31.6578 30 30.8125V28.05C29.9995 25.6831 29.0511 23.4133 27.3634 21.7396C25.6757 20.066 23.3868 19.1255 21 19.125Z" fill="#9477D5"/>
</svg>
