<svg width="30" height="30" viewBox="0 0 30 30" fill="none" xmlns="http://www.w3.org/2000/svg">
<g clip-path="url(#clip0)">
<path d="M15 30C23.2706 30 30 23.2712 30 15C30 10.99 28.4406 7.2226 25.6088 4.39117C22.7768 1.55945 19.01 0 15 0C6.72882 0 0 6.72882 0 15C0 19.01 1.55945 22.7774 4.39117 25.6088C7.2226 28.4406 10.99 30 15 30V30ZM15 27.5C12.0789 27.5 9.31244 26.507 7.08618 24.6814L24.6814 7.08618C26.507 9.31244 27.5 12.0789 27.5 15C27.5 21.8924 21.8924 27.5 15 27.5ZM15 2.5C17.9205 2.5 20.6876 3.49304 22.9132 5.3186L5.3186 22.9138C3.49304 20.6876 2.5 17.9211 2.5 15C2.5 8.1076 8.1076 2.5 15 2.5Z" fill="#69686C"/>
</g>
<defs>
<clipPath id="clip0">
<rect width="30" height="30" fill="white"/>
</clipPath>
</defs>
</svg>
