<svg width="40" height="40" viewBox="0 0 40 40" fill="none" xmlns="http://www.w3.org/2000/svg">
<g clip-path="url(#clip0)">
<path d="M9.34759 8.10992L25.2937 3.7573L24.4492 2.0504C23.8967 0.940909 22.5492 0.482739 21.4397 1.03524L7.16455 8.10992H9.34759Z" fill="#7B5BC4"/>
<path d="M30.2436 3.88281C30.046 3.88281 29.8484 3.90976 29.6507 3.96367L25.9046 4.98781L14.4637 8.10966H27.4497H33.1094L32.4087 5.54031C32.1392 4.53863 31.2319 3.88281 30.2436 3.88281Z" fill="#7B5BC4"/>
<path d="M35.4497 9.68359H34.9377H34.2414H33.5452H28.2313H8.70522H6.14486H3.98877H3.589H2.25042C1.54071 9.68359 0.907355 10.0115 0.494104 10.5281C0.305446 10.7661 0.161707 11.0401 0.0808535 11.3411C0.031443 11.5297 0 11.7274 0 11.9295V12.199V14.7594V36.9537C0 38.1935 1.00618 39.1996 2.24593 39.1996H35.4453C36.6851 39.1996 37.6912 38.1935 37.6912 36.9537V30.6875H24.3638C22.2572 30.6875 20.5458 28.9761 20.5458 26.8694V24.8122V24.1159V23.4197V21.8745C20.5458 20.8414 20.959 19.9026 21.6283 19.2154C22.2212 18.6044 23.0163 18.1912 23.9057 18.0879C24.0539 18.0699 24.2066 18.0609 24.3593 18.0609H35.8226H36.5188H37.215H37.6912V11.9295C37.6957 10.6898 36.6895 9.68359 35.4497 9.68359Z" fill="#7B5BC4"/>
<path d="M39.2679 20.2056C39.0433 19.999 38.7783 19.8417 38.4818 19.7384C38.2527 19.6621 38.0102 19.6172 37.7541 19.6172H37.6957H37.6508H36.9546H34.4436H24.3639C23.1241 19.6172 22.1179 20.6233 22.1179 21.8631V22.9815V23.6778V24.374V26.8625C22.1179 28.1023 23.1241 29.1084 24.3639 29.1084H37.6957H37.7541C38.0102 29.1084 38.2527 29.0635 38.4818 28.9872C38.7783 28.8883 39.0433 28.7266 39.2679 28.52C39.7171 28.1112 40.0001 27.5183 40.0001 26.8626V21.8631C40.0001 21.2073 39.7171 20.6143 39.2679 20.2056ZM29.0534 24.8097C29.0534 25.4296 28.5503 25.9327 27.9304 25.9327H27.1848C26.5649 25.9327 26.0618 25.4296 26.0618 24.8097V24.0641C26.0618 23.7047 26.228 23.3858 26.493 23.1836C26.6862 23.0354 26.9243 22.9411 27.1848 22.9411H27.3734H27.9304C28.5503 22.9411 29.0534 23.4442 29.0534 24.0641V24.8097Z" fill="#7B5BC4"/>
</g>
<defs>
<clipPath id="clip0">
<rect width="40" height="40" fill="white"/>
</clipPath>
</defs>
</svg>
