<svg xmlns="http://www.w3.org/2000/svg" version="1.1" xmlns:xlink="http://www.w3.org/1999/xlink" xmlns:svgjs="http://svgjs.com/svgjs" width="512" height="512" x="0" y="0" viewBox="0 0 227.406 227.406" style="enable-background:new 0 0 512 512" xml:space="preserve" class=""><g><path d="m217.575 214.708-65.188-67.793c16.139-15.55 26.209-37.356 26.209-61.485C178.596 38.323 140.272 0 93.167 0 46.06 0 7.737 38.323 7.737 85.43c0 47.106 38.323 85.43 85.43 85.43 17.574 0 33.922-5.339 47.518-14.473l66.078 68.718a7.482 7.482 0 0 0 5.407 2.302 7.5 7.5 0 0 0 5.405-12.699zM22.737 85.43c0-38.835 31.595-70.43 70.43-70.43 38.835 0 70.429 31.595 70.429 70.43s-31.594 70.43-70.429 70.43c-38.835-.001-70.43-31.595-70.43-70.43z" style="" fill="#434246" data-original="#000002" class=""></path><path d="M131.414 77.93H54.919c-4.143 0-7.5 3.357-7.5 7.5s3.357 7.5 7.5 7.5h76.495c4.143 0 7.5-3.357 7.5-7.5s-3.357-7.5-7.5-7.5z" style="" fill="#434246" data-original="#000002" class=""></path></g></svg>